<?xml version="1.0" encoding="UTF-8"?>
<svg version="1.1" xmlns="http://www.w3.org/2000/svg" width="418" height="256">
<path d="M0 0 C18 0 18 0 23 3 C25.56802071 6.42402762 25.22249961 9.84667386 25 14 C24.773125 14.70125 24.54625 15.4025 24.3125 16.125 C23.82401295 19.05592231 25.37117153 20.654487 27 23 C27.33 22.67 27.66 22.34 28 22 C27.34 21.67 26.68 21.34 26 21 C26.25554054 19.53890937 26.53000372 18.08111904 26.8125 16.625 C26.96332031 15.81289062 27.11414063 15.00078125 27.26953125 14.1640625 C28 12 28 12 31 10 C37.16896694 8.6633905 40.46462109 8.94989325 46 12 C46.495 12.99 46.495 12.99 47 14 C47.33 12.68 47.66 11.36 48 10 C51.08115743 9.71533758 54.16420323 9.47841166 57.25 9.25 C58.12269531 9.16878906 58.99539062 9.08757812 59.89453125 9.00390625 C61.16103516 8.91689453 61.16103516 8.91689453 62.453125 8.828125 C63.22817383 8.7652832 64.00322266 8.70244141 64.80175781 8.63769531 C67 9 67 9 71 13 C71.33 9.04 71.66 5.08 72 1 C75.3 1 78.6 1 82 1 C82.495 6.94 82.495 6.94 83 13 C83.33 12.01 83.66 11.02 84 10 C87.63 10 91.26 10 95 10 C95 13.46487536 94.5308706 13.80500345 92.375 16.3125 C90.14333178 19.24587078 90.14333178 19.24587078 90.4375 22.9375 C91.2109375 24.4534375 91.2109375 24.4534375 92 26 C92.71063843 27.39466119 93.41887624 28.79054759 94.125 30.1875 C94.47820312 30.84105469 94.83140625 31.49460937 95.1953125 32.16796875 C96 34 96 34 96 37 C92.62114388 37.28526928 89.36708009 37.46087248 86 37 C83.875 34.5 83.875 34.5 83 32 C82.67 33.65 82.34 35.3 82 37 C78.85418577 37.02888514 75.70840531 37.04675923 72.5625 37.0625 C71.66466797 37.07087891 70.76683594 37.07925781 69.84179688 37.08789062 C68.56079102 37.09272461 68.56079102 37.09272461 67.25390625 37.09765625 C66.46314697 37.10289307 65.6723877 37.10812988 64.85766602 37.11352539 C63 37 63 37 62 36 C61.92674832 33.13732433 61.90761795 30.299281 61.9375 27.4375 C61.94201172 26.63119141 61.94652344 25.82488281 61.95117188 24.99414062 C61.96299482 22.99606244 61.98093086 20.99802217 62 19 C61.01 19.495 61.01 19.495 60 20 C59.7137306 22.69152264 59.53256862 25.30097868 59.4375 28 C59.11929275 35.88070725 59.11929275 35.88070725 58 37 C56.60471089 37.07476432 55.20573064 37.08323459 53.80859375 37.0625 C52.51405273 37.05089844 52.51405273 37.05089844 51.19335938 37.0390625 C49.38345801 37.01340833 47.57356192 36.98737855 45.76367188 36.9609375 C41.62018056 36.92418813 37.66582996 36.98224092 33.56640625 37.62109375 C29.88439909 38.0122818 29.37027765 37.97449206 26.5 36.0625 C25.675 35.381875 24.85 34.70125 24 34 C23.37738281 34.49113281 22.75476563 34.98226562 22.11328125 35.48828125 C17.75304802 37.60548358 13.95713412 37.32514416 9.1875 37.1875 C6.155625 37.125625 3.12375 37.06375 0 37 C0 24.79 0 12.58 0 0 Z M10 11 C10 11.99 10 12.98 10 14 C11.32 14 12.64 14 14 14 C14 13.01 14 12.02 14 11 C12.68 11 11.36 11 10 11 Z M35 18 C35 18.66 35 19.32 35 20 C35.99 19.67 36.98 19.34 38 19 C37.01 18.67 36.02 18.34 35 18 Z M10 23 C10 23.99 10 24.98 10 26 C11.98 26 13.96 26 16 26 C15.67 25.01 15.34 24.02 15 23 C13.35 23 11.7 23 10 23 Z M36 27 C36.33 27.99 36.66 28.98 37 30 C37.33 29.01 37.66 28.02 38 27 C37.34 27 36.68 27 36 27 Z " fill="#F8F8F8" transform="translate(57,87)"/>
<path d="M0 0 C0.93875977 0.55977539 0.93875977 0.55977539 1.89648438 1.13085938 C2.86424805 1.69643555 2.86424805 1.69643555 3.8515625 2.2734375 C5.43276589 3.1987343 7.00889898 4.13268618 8.58398438 5.06835938 C8.58398438 6.05835938 8.58398438 7.04835937 8.58398438 8.06835938 C7.82593506 8.42438232 7.06788574 8.78040527 6.28686523 9.1472168 C-9.84848815 16.75442216 -25.61665718 24.68675225 -41.03320312 33.6875 C-43.13784055 34.90715464 -45.25402034 36.09825376 -47.38476562 37.27148438 C-57.80532644 43.04503834 -67.85532523 49.55105652 -77.14257812 57.02929688 C-77.72773193 57.49803223 -78.31288574 57.96676758 -78.91577148 58.44970703 C-80.50567459 59.73901657 -82.07676527 61.05142583 -83.64648438 62.36523438 C-86.41601562 64.06835938 -86.41601562 64.06835938 -88.94726562 64.06835938 C-91.9368161 62.85740222 -94.1722411 61.2864318 -96.72851562 59.31835938 C-101.17131431 55.97121023 -105.65592421 52.94237683 -110.41601562 50.06835938 C-110.10742188 48.20263672 -110.10742188 48.20263672 -109.41601562 46.06835938 C-107.09824597 44.44237301 -104.87914973 43.05828835 -102.41601562 41.69335938 C-101.03612824 40.89948941 -99.65721687 40.10392049 -98.27929688 39.30664062 C-97.6110791 38.92330566 -96.94286133 38.5399707 -96.25439453 38.14501953 C-93.97533963 36.81027423 -91.78429369 35.37007539 -89.60351562 33.88085938 C-84.98276293 30.74901588 -80.2395718 27.87668319 -75.41601562 25.06835938 C-74.8555957 24.73964844 -74.29517578 24.4109375 -73.71777344 24.07226562 C-56.14412674 13.80451699 -38.00534293 5.77099282 -18.83544922 -1.06396484 C-16.88904634 -1.76199873 -14.95660743 -2.49890771 -13.02929688 -3.24804688 C-7.8576456 -4.60087045 -4.38945655 -2.55094072 0 0 Z " fill="#898989" transform="translate(295.416015625,171.931640625)"/>
<path d="M0 0 C0 0.99 0 1.98 0 3 C-2.66614895 4.04300735 -5.3328416 5.08457888 -8 6.125 C-8.81509033 6.44339844 -9.63018066 6.76179687 -10.4699707 7.08984375 C-15.0390664 8.86875682 -19.6199209 10.60319134 -24.2265625 12.28222656 C-36.9051566 16.92304662 -48.90188848 22.87717738 -60.94140625 28.95703125 C-63.6914454 30.34570445 -66.4493034 31.71668277 -69.21484375 33.07421875 C-77.73486856 37.26566552 -86.01473816 41.5997263 -93.875 46.9609375 C-95.3290625 47.93933594 -95.3290625 47.93933594 -96.8125 48.9375 C-97.68519531 49.54464844 -98.55789062 50.15179688 -99.45703125 50.77734375 C-102.6675738 52.32096866 -103.65517158 52.16849901 -107 51 C-109.76057803 49.78400065 -112.44321283 48.44247245 -115.125 47.0625 C-115.84042969 46.70220703 -116.55585938 46.34191406 -117.29296875 45.97070312 C-120.32767091 44.43066268 -123.16116361 42.89255759 -126 41 C-126 40.34 -126 39.68 -126 39 C-125.14921875 38.58878906 -124.2984375 38.17757812 -123.421875 37.75390625 C-119.92947191 35.96385033 -116.59199608 33.98764345 -113.25 31.9375 C-89.15477476 17.33928714 -64.02567588 4.24358605 -37 -4 C-35.77410156 -4.40347656 -34.54820312 -4.80695313 -33.28515625 -5.22265625 C-19.40886431 -9.59139277 -12.26439247 -6.68173871 0 0 Z " fill="#888888" transform="translate(281,164)"/>
<path d="M0 0 C3.3 0 6.6 0 10 0 C11.12880493 3.33208728 12.25313752 6.66557541 13.375 10 C13.69210938 10.93457031 14.00921875 11.86914062 14.3359375 12.83203125 C16.13224088 18.1835184 17.71637989 23.5024755 19 29 C19.06058594 27.71222656 19.12117188 26.42445312 19.18359375 25.09765625 C19.26798247 23.41925841 19.3526313 21.74087364 19.4375 20.0625 C19.47681641 19.21236328 19.51613281 18.36222656 19.55664062 17.48632812 C19.59853516 16.67744141 19.64042969 15.86855469 19.68359375 15.03515625 C19.72025146 14.2862915 19.75690918 13.53742676 19.79467773 12.76586914 C20 11 20 11 21 10 C22.37419024 9.9528175 23.75050532 9.96272557 25.125 10 C28.19527878 10.04881206 30.74794884 9.87738544 33.8125 9.375 C37.09941376 8.98830426 38.3130712 9.17288841 41 11 C41.33 10.67 41.66 10.34 42 10 C43.9609375 9.796875 43.9609375 9.796875 46.375 9.75 C47.16648437 9.72421875 47.95796875 9.6984375 48.7734375 9.671875 C51.53598652 10.07898749 52.28039609 10.84798108 54 13 C54.99 14.485 54.99 14.485 56 16 C57.175625 14.5459375 57.175625 14.5459375 58.375 13.0625 C59.91288705 11.16037654 60.79259913 10.10370043 63 9 C70.10679612 8.30097087 70.10679612 8.30097087 73.875 11.25 C78.72624914 17.52808712 78.80413439 23.19117687 78 31 C76.98667821 33.74545312 76.08531872 34.85510074 74 37 C69.62873913 38.45708696 65.71847535 38.42961884 61.25 37.3125 C58.43385268 35.66974739 57.44037459 33.88074917 56 31 C55.67 32.98 55.34 34.96 55 37 C51.7 37 48.4 37 45 37 C44.67 31.39 44.34 25.78 44 20 C42.84429296 23.46712111 42.67164707 26.5414956 42.4375 30.1875 C42.35371094 31.45980469 42.26992187 32.73210937 42.18359375 34.04296875 C42.09271484 35.50669922 42.09271484 35.50669922 42 37 C39.03 37 36.06 37 33 37 C32.93941406 35.94039062 32.87882812 34.88078125 32.81640625 33.7890625 C32.73199873 32.40102779 32.64735083 31.01300768 32.5625 29.625 C32.52318359 28.92632812 32.48386719 28.22765625 32.44335938 27.5078125 C32.25719866 23.62639508 32.25719866 23.62639508 31 20 C30.67 25.61 30.34 31.22 30 37 C23.4 37 16.8 37 10 37 C9.505 34.525 9.505 34.525 9 32 C5.535 32.495 5.535 32.495 2 33 C1.67 34.32 1.34 35.64 1 37 C-2.63 37 -6.26 37 -10 37 C-9.31588272 30.41185684 -7.4548169 24.26963171 -5.5625 17.9375 C-5.09360352 16.34325195 -5.09360352 16.34325195 -4.61523438 14.71679688 C-3.15741998 9.78241875 -1.67790335 4.86507655 0 0 Z M4 20 C4 20.66 4 21.32 4 22 C4.66 22 5.32 22 6 22 C6 21.34 6 20.68 6 20 C5.34 20 4.68 20 4 20 Z M65 27 C65.33 27.66 65.66 28.32 66 29 C67.32 28.67 68.64 28.34 70 28 C70 27.67 70 27.34 70 27 C68.35 27 66.7 27 65 27 Z " fill="#F5F5F5" transform="translate(212,87)"/>
<path d="M0 0 C2.43818604 3.98975897 3 6.32874386 3 11 C-4.50769231 11.36923077 -4.50769231 11.36923077 -7 9.5 C-7.495 8.7575 -7.495 8.7575 -8 8 C-9.41577477 9.18424326 -9.41577477 9.18424326 -9.0625 12.5625 C-9.041875 13.696875 -9.02125 14.83125 -9 16 C-8.01 16 -7.02 16 -6 16 C-5.67 15.34 -5.34 14.68 -5 14 C-3.00390625 13.65625 -3.00390625 13.65625 -0.5625 13.5 C3.16559619 13.34878389 3.16559619 13.34878389 6 11 C5.34 10.67 4.68 10.34 4 10 C4.4864 3.6768 4.4864 3.6768 6.671875 0.796875 C9.62112183 -1.47938933 11.30714616 -1.53692854 15 -1.5 C16.03125 -1.5103125 17.0625 -1.520625 18.125 -1.53125 C21.67867022 -0.87459355 22.8326708 0.15036346 25 3 C25.89607732 5.80656105 26.12825605 8.35698969 26.1328125 11.29296875 C26.13410156 12.08767578 26.13539063 12.88238281 26.13671875 13.70117188 C26.13285156 14.52166016 26.12898438 15.34214844 26.125 16.1875 C26.12886719 17.01958984 26.13273437 17.85167969 26.13671875 18.70898438 C26.12667092 24.87332908 26.12667092 24.87332908 25 26 C21.8852177 26.33189614 18.75520026 26.32480728 15.625 26.375 C14.7484375 26.41238281 13.871875 26.44976562 12.96875 26.48828125 C10.54320671 26.52166029 8.37369698 26.50560552 6 26 C3.8984375 23.4765625 3.8984375 23.4765625 3 21 C2.525625 21.804375 2.05125 22.60875 1.5625 23.4375 C-1.59885565 26.59885565 -3.47612545 26.83121862 -7.81640625 27.06640625 C-10.71100381 26.97837734 -12.55526233 26.58188908 -15 25 C-16.8125 22.375 -16.8125 22.375 -18 20 C-18.33 21.98 -18.66 23.96 -19 26 C-20.47906892 26.02689216 -21.95827483 26.04634621 -23.4375 26.0625 C-24.67306641 26.07990234 -24.67306641 26.07990234 -25.93359375 26.09765625 C-28 26 -28 26 -29 25 C-29.07325168 22.13732433 -29.09238205 19.299281 -29.0625 16.4375 C-29.05573242 15.22803711 -29.05573242 15.22803711 -29.04882812 13.99414062 C-29.03700518 11.99606244 -29.01906914 9.99802217 -29 8 C-31.59015477 8.995521 -31.59015477 8.995521 -34 11 C-34.78607643 14.37747878 -34.78607643 14.37747878 -34.75 18.125 C-34.94526316 24.94526316 -34.94526316 24.94526316 -36 26 C-38.97 26 -41.94 26 -45 26 C-45 17.09 -45 8.18 -45 -1 C-36.42 -1 -27.84 -1 -19 -1 C-18.67 0.98 -18.34 2.96 -18 5 C-17.62875 4.21625 -17.2575 3.4325 -16.875 2.625 C-12.76197341 -3.13323722 -5.9718418 -2.89224495 0 0 Z M13 7 C13 7.66 13 8.32 13 9 C13.66 9 14.32 9 15 9 C15 8.34 15 7.68 15 7 C14.34 7 13.68 7 13 7 Z M14 16 C13.67 16.99 13.34 17.98 13 19 C13.66 19 14.32 19 15 19 C15.33 18.01 15.66 17.02 16 16 C15.34 16 14.68 16 14 16 Z " fill="#F5F5F5" transform="translate(336,98)"/>
<path d="M0 0 C1.64935547 0.58974609 1.64935547 0.58974609 3.33203125 1.19140625 C4.48058594 1.64386719 5.62914062 2.09632813 6.8125 2.5625 C8.55466797 3.24505859 8.55466797 3.24505859 10.33203125 3.94140625 C11.65267578 4.46541016 11.65267578 4.46541016 13 5 C12.71704102 6.88378906 12.71704102 6.88378906 12 9 C9.30959905 10.44052964 6.75455625 11.61643661 3.9375 12.75 C2.28515408 13.4487467 0.63413458 14.15063735 -1.015625 14.85546875 C-1.85158203 15.21044434 -2.68753906 15.56541992 -3.54882812 15.93115234 C-7.1979893 17.52239016 -10.75888451 19.26973225 -14.3125 21.0625 C-14.96404053 21.38895508 -15.61558105 21.71541016 -16.28686523 22.05175781 C-19.45601936 23.65524391 -22.583935 25.31045076 -25.67578125 27.05859375 C-27.38314453 28.01958984 -27.38314453 28.01958984 -29.125 29 C-30.61386719 29.86625 -30.61386719 29.86625 -32.1328125 30.75 C-35.47873779 32.20871402 -37.383127 32.47978928 -41 32 C-44.4296875 30.46875 -44.4296875 30.46875 -47.875 28.5 C-48.46796875 28.16613281 -49.0609375 27.83226562 -49.671875 27.48828125 C-51.12104717 26.67020018 -52.56146981 25.83665257 -54 25 C-52.69302634 21.07907901 -51.35305615 20.83374309 -47.734375 18.9609375 C-46.62594238 18.3841626 -45.51750977 17.8073877 -44.37548828 17.21313477 C-43.16749476 16.59943293 -41.9589874 15.98674158 -40.75 15.375 C-40.14540955 15.06585663 -39.54081909 14.75671326 -38.91790771 14.4382019 C-30.75221256 10.26563032 -22.5216352 6.25284687 -14.125 2.5625 C-13.27131836 2.1794873 -12.41763672 1.79647461 -11.53808594 1.40185547 C-4.38105744 -1.64198836 -4.38105744 -1.64198836 0 0 Z " fill="#898989" transform="translate(192,164)"/>
<path d="M0 0 C2.866875 -0.061875 5.73375 -0.12375 8.6875 -0.1875 C10.02880981 -0.22846802 10.02880981 -0.22846802 11.3972168 -0.27026367 C16.10407265 -0.3193539 19.17353342 -0.05668912 23 3 C25.56203933 6.41605244 25.37025936 9.8530952 25 14 C23.5 16.4375 23.5 16.4375 22 18 C22.515625 18.825 23.03125 19.65 23.5625 20.5 C25.45399767 25.10538563 25.18338973 27.18754844 24 32 C21.92014987 34.03168943 20.59899946 34.91091639 17.70996094 35.34057617 C16.4845459 35.3170105 16.4845459 35.3170105 15.234375 35.29296875 C14.43225586 35.28547607 13.63013672 35.2779834 12.80371094 35.27026367 C11.79598633 35.24295166 10.78826172 35.21563965 9.75 35.1875 C4.92375 35.0946875 4.92375 35.0946875 0 35 C0 23.45 0 11.9 0 0 Z M10 11 C10 11.99 10 12.98 10 14 C11.32 14 12.64 14 14 14 C14 13.01 14 12.02 14 11 C12.68 11 11.36 11 10 11 Z M10 23 C10 23.99 10 24.98 10 26 C11.98 26 13.96 26 16 26 C15.67 25.01 15.34 24.02 15 23 C13.35 23 11.7 23 10 23 Z " fill="#F8F8F8" transform="translate(57,87)"/>
<path d="M0 0 C-1 3 -1 3 -2.67626953 3.9921875 C-3.40442871 4.28351563 -4.13258789 4.57484375 -4.8828125 4.875 C-5.70990723 5.21523193 -6.53700195 5.55546387 -7.38916016 5.90600586 C-8.2919873 6.26702393 -9.19481445 6.62804199 -10.125 7 C-18.4058355 10.42329364 -26.54720793 14.05851573 -34.625 17.9375 C-35.61387207 18.40994141 -36.60274414 18.88238281 -37.62158203 19.36914062 C-41.2331177 21.10954844 -44.65946978 22.77297985 -48 25 C-55.03298807 26.04746631 -60.70930314 22.89227442 -67 20 C-66 17 -66 17 -63.140625 15.2734375 C-61.84980326 14.62836722 -60.55231298 13.9965443 -59.25 13.375 C-58.54842773 13.03307617 -57.84685547 12.69115234 -57.12402344 12.33886719 C-16.82060845 -7.03407263 -16.82060845 -7.03407263 0 0 Z " fill="#878787" transform="translate(182,160)"/>
<path d="M0 0 C0.66 0.99 1.32 1.98 2 3 C2.33 1.68 2.66 0.36 3 -1 C6.96 -1 10.92 -1 15 -1 C14.67 -0.01 14.34 0.98 14 2 C13.34 2 12.68 2 12 2 C12 1.34 12 0.68 12 0 C9.69 0 7.38 0 5 0 C5 7.92 5 15.84 5 24 C7.31 24 9.62 24 12 24 C11.97679687 22.94039062 11.95359375 21.88078125 11.9296875 20.7890625 C11.91093056 19.4010487 11.89273028 18.0130273 11.875 16.625 C11.85824219 15.92632812 11.84148437 15.22765625 11.82421875 14.5078125 C11.80655733 12.67102514 11.89696739 10.83398037 12 9 C12.66 8.34 13.32 7.68 14 7 C14.99 7.33 15.98 7.66 17 8 C16.34 8.33 15.68 8.66 15 9 C14.7137306 11.69152264 14.53256862 14.30097868 14.4375 17 C14.11929275 24.88070725 14.11929275 24.88070725 13 26 C11.60471089 26.07476432 10.20573064 26.08323459 8.80859375 26.0625 C7.94556641 26.05476563 7.08253906 26.04703125 6.19335938 26.0390625 C4.38345801 26.01340833 2.57356192 25.98737855 0.76367188 25.9609375 C-3.37981944 25.92418813 -7.33417004 25.98224092 -11.43359375 26.62109375 C-15.11560091 27.0122818 -15.62972235 26.97449206 -18.5 25.0625 C-19.325 24.381875 -20.15 23.70125 -21 23 C-21.62261719 23.49113281 -22.24523437 23.98226562 -22.88671875 24.48828125 C-27.24513273 26.60460021 -31.04027048 26.32628967 -35.8125 26.1875 C-37.13797852 26.16719727 -37.13797852 26.16719727 -38.49023438 26.14648438 C-40.66042023 26.11129217 -42.83029033 26.05748985 -45 26 C-45 25.34 -45 24.68 -45 24 C-44.40985107 23.98018066 -43.81970215 23.96036133 -43.21166992 23.93994141 C-40.53649904 23.84465341 -37.86210502 23.73499061 -35.1875 23.625 C-34.25873047 23.5940625 -33.32996094 23.563125 -32.37304688 23.53125 C-31.48037109 23.49257812 -30.58769531 23.45390625 -29.66796875 23.4140625 C-28.43469849 23.36693115 -28.43469849 23.36693115 -27.17651367 23.31884766 C-24.71047063 23.11626378 -24.71047063 23.11626378 -22 21 C-20.53733173 14.83589799 -21.09769396 11.57242759 -24 6 C-23.34 5.67 -22.68 5.34 -22 5 C-20.68 7.31 -19.36 9.62 -18 12 C-17.67 11.67 -17.34 11.34 -17 11 C-17.66 10.67 -18.32 10.34 -19 10 C-18.74445946 8.53890937 -18.46999628 7.08111904 -18.1875 5.625 C-18.03667969 4.81289062 -17.88585937 4.00078125 -17.73046875 3.1640625 C-17 1 -17 1 -14 -1 C-9.35207168 -2.64044529 -4.52271706 -1.74155706 0 0 Z M-10 7 C-10 7.66 -10 8.32 -10 9 C-9.01 8.67 -8.02 8.34 -7 8 C-7.99 7.67 -8.98 7.34 -10 7 Z M-9 16 C-8.67 16.99 -8.34 17.98 -8 19 C-7.67 18.01 -7.34 17.02 -7 16 C-7.66 16 -8.32 16 -9 16 Z " fill="#F2F2F2" transform="translate(102,98)"/>
<path d="M0 0 C0 0.66 0 1.32 0 2 C-0.7425 2.226875 -1.485 2.45375 -2.25 2.6875 C-5.80512083 4.38426222 -7.0834718 5.52185622 -9 9 C-9.59158406 14.46393614 -9.1927294 19.64726316 -8 25 C-8.99 24.01 -9.98 23.02 -11 22 C-11.33 23.98 -11.66 25.96 -12 28 C-13.47906892 28.02689216 -14.95827483 28.04634621 -16.4375 28.0625 C-17.67306641 28.07990234 -17.67306641 28.07990234 -18.93359375 28.09765625 C-21 28 -21 28 -22 27 C-22.07325168 24.13732433 -22.09238205 21.299281 -22.0625 18.4375 C-22.05573242 17.22803711 -22.05573242 17.22803711 -22.04882812 15.99414062 C-22.03700518 13.99606244 -22.01906914 11.99802217 -22 10 C-24.59015477 10.995521 -24.59015477 10.995521 -27 13 C-27.78607643 16.37747878 -27.78607643 16.37747878 -27.75 20.125 C-27.94526316 26.94526316 -27.94526316 26.94526316 -29 28 C-31.97 28 -34.94 28 -38 28 C-38 19.09 -38 10.18 -38 1 C-29.42 1 -20.84 1 -12 1 C-11.67 2.98 -11.34 4.96 -11 7 C-10.62875 6.21625 -10.2575 5.4325 -9.875 4.625 C-7.32784222 1.05897911 -4.36614346 0 0 0 Z " fill="#F2F2F2" transform="translate(329,96)"/>
<path d="M0 0 C3.31016216 2.59056169 5.44643811 5.11609526 7 9 C7.61575868 14.54182815 8.29826869 20.86335187 5.1875 25.75 C2.34367915 28.67507288 0.66769318 28.96290593 -3.375 29.1875 C-6.89320901 29.00552367 -8.97690783 28.76347043 -12 27 C-13.8125 24.375 -13.8125 24.375 -15 22 C-15.33 23.98 -15.66 25.96 -16 28 C-19.3 28 -22.6 28 -26 28 C-26 22.06 -26 16.12 -26 10 C-25.01 10.495 -25.01 10.495 -24 11 C-24 15.95 -24 20.9 -24 26 C-21.69 26 -19.38 26 -17 26 C-17.11454804 23.12424132 -17.2412847 20.24987888 -17.375 17.375 C-17.4059375 16.56675781 -17.436875 15.75851563 -17.46875 14.92578125 C-17.6952946 10.28161686 -18.2592668 6.37306144 -20 2 C-19.34 2 -18.68 2 -18 2 C-16.375 4.5 -16.375 4.5 -15 7 C-14.21625 6.030625 -13.4325 5.06125 -12.625 4.0625 C-9.13522197 -0.25380441 -5.48677639 -0.94781166 0 0 Z M-6 18 C-5.67 18.66 -5.34 19.32 -5 20 C-3.68 19.67 -2.36 19.34 -1 19 C-1 18.67 -1 18.34 -1 18 C-2.65 18 -4.3 18 -6 18 Z " fill="#F6F6F6" transform="translate(283,96)"/>
<path d="M0 0 C1.930996 0.74549409 3.8671738 1.47606395 5.80444336 2.20507812 C11.89359379 4.52014596 17.72201629 6.87800869 23.23999023 10.36914062 C22.23999023 13.36914062 22.23999023 13.36914062 19.98217773 14.57226562 C19.03600586 14.91773438 18.08983398 15.26320312 17.11499023 15.61914062 C15.71893555 16.1528125 15.71893555 16.1528125 14.29467773 16.69726562 C6.42492531 18.42820861 -0.62000467 14.63793597 -7.76000977 11.68164062 C-8.86401123 11.23191895 -9.9680127 10.78219727 -11.10546875 10.31884766 C-13.30774982 9.42169959 -15.50886959 8.5216948 -17.70874023 7.61865234 C-21.73691137 5.96909402 -25.77822297 4.35367384 -29.82250977 2.74414062 C-31.80167643 1.95247396 -33.7808431 1.16080729 -35.76000977 0.36914062 C-35.76000977 -0.29085937 -35.76000977 -0.95085937 -35.76000977 -1.63085938 C-33.81662815 -2.53858308 -31.85414516 -3.40544756 -29.88500977 -4.25585938 C-28.79446289 -4.743125 -27.70391602 -5.23039063 -26.58032227 -5.73242188 C-17.46081268 -7.87709182 -8.43555667 -3.26190637 0 0 Z " fill="#888888" transform="translate(202.760009765625,151.630859375)"/>
<path d="M0 0 C1.16462769 0.39312378 1.16462769 0.39312378 2.3527832 0.79418945 C11.46055534 3.89704332 20.4468853 7.29775165 29.25 11.1875 C29.25 11.8475 29.25 12.5075 29.25 13.1875 C27.25710832 13.8953411 25.25519539 14.57780382 23.25 15.25 C21.579375 15.82427734 21.579375 15.82427734 19.875 16.41015625 C11.11838707 18.28792131 4.03652085 14.76983727 -3.9375 11.4375 C-6.15861428 10.52805973 -8.37996632 9.61919993 -10.6015625 8.7109375 C-11.66020508 8.27491211 -12.71884766 7.83888672 -13.80957031 7.38964844 C-19.0883093 5.23151901 -24.41520398 3.2026317 -29.75 1.1875 C-29.75 0.1975 -29.75 -0.7925 -29.75 -1.8125 C-27.9455472 -2.38039885 -26.13073566 -2.91540986 -24.3125 -3.4375 C-23.30316406 -3.73914063 -22.29382813 -4.04078125 -21.25390625 -4.3515625 C-13.95710369 -5.31145403 -6.84578874 -2.33668584 0 0 Z " fill="#878787" transform="translate(220.75,143.8125)"/>
<path d="M0 0 C3.73534854 3.21655013 4.98543012 6.64697722 5.53515625 11.40625 C5.71774148 16.67740606 5.19577986 20.40553098 2.25 24.9375 C0.25 26.9375 0.25 26.9375 -2.5 27.16796875 C-3.5725 27.15378906 -4.645 27.13960937 -5.75 27.125 C-6.8225 27.11855469 -7.895 27.11210938 -9 27.10546875 C-11.75 26.9375 -11.75 26.9375 -13.75 25.9375 C-13.75 25.2775 -13.75 24.6175 -13.75 23.9375 C-14.41 23.9375 -15.07 23.9375 -15.75 23.9375 C-18.78762133 17.17634284 -19.28165428 11.97943156 -16.75 4.9375 C-12.72363533 -1.42675383 -7.08363001 -2.73685705 0 0 Z M-6.75 7.9375 C-8.58695434 12.27677969 -8.58695434 12.27677969 -7.875 16.8125 C-7.50375 17.51375 -7.1325 18.215 -6.75 18.9375 C-6.09 18.6075 -5.43 18.2775 -4.75 17.9375 C-4.75 14.6375 -4.75 11.3375 -4.75 7.9375 C-5.41 7.9375 -6.07 7.9375 -6.75 7.9375 Z " fill="#F2F2F2" transform="translate(175.75,97.0625)"/>
<path d="M0 0 C0.89589844 0.01417969 1.79179687 0.02835937 2.71484375 0.04296875 C4.06255859 0.05263672 4.06255859 0.05263672 5.4375 0.0625 C7.65234375 0.23046875 7.65234375 0.23046875 8.65234375 1.23046875 C8.88763787 6.75988051 8.88763787 6.75988051 7.65234375 9.23046875 C7.58339655 10.60389706 7.56766667 11.98048977 7.58984375 13.35546875 C7.61046875 14.63421875 7.63109375 15.91296875 7.65234375 17.23046875 C6.66234375 17.23046875 5.67234375 17.23046875 4.65234375 17.23046875 C4.65234375 23.50046875 4.65234375 29.77046875 4.65234375 36.23046875 C1.35234375 36.23046875 -1.94765625 36.23046875 -5.34765625 36.23046875 C-5.34765625 29.96046875 -5.34765625 23.69046875 -5.34765625 17.23046875 C-6.33765625 17.23046875 -7.32765625 17.23046875 -8.34765625 17.23046875 C-8.34765625 14.92046875 -8.34765625 12.61046875 -8.34765625 10.23046875 C-7.02765625 9.90046875 -5.70765625 9.57046875 -4.34765625 9.23046875 C-4.38890625 8.11671875 -4.43015625 7.00296875 -4.47265625 5.85546875 C-4.33488089 1.85998338 -4.15605393 0.40799864 0 0 Z " fill="#FDFDFD" transform="translate(189.34765625,87.76953125)"/>
<path d="M0 0 C7.87587413 1.93181818 7.87587413 1.93181818 10 5 C10.84499988 7.76279494 11.11948391 10.22812365 11.09765625 13.109375 C11.09443359 13.86347656 11.09121094 14.61757812 11.08789062 15.39453125 C11.07951172 16.17183594 11.07113281 16.94914062 11.0625 17.75 C11.05798828 18.54277344 11.05347656 19.33554688 11.04882812 20.15234375 C11.03708565 22.10159508 11.01915146 24.05080738 11 26 C8.69 26 6.38 26 4 26 C3.67 21.05 3.34 16.1 3 11 C1.68 10.67 0.36 10.34 -1 10 C-2.99616554 11.99616554 -2.40983427 15.81701963 -2.5625 18.5625 C-2.60568359 19.27341797 -2.64886719 19.98433594 -2.69335938 20.71679688 C-2.79971777 22.47761912 -2.90038846 24.2387832 -3 26 C-5.31 26 -7.62 26 -10 26 C-10 18.08 -10 10.16 -10 2 C-7.69 2 -5.38 2 -3 2 C-3 2.66 -3 3.32 -3 4 C-2.34 4 -1.68 4 -1 4 C-0.67 2.68 -0.34 1.36 0 0 Z " fill="#FEFEFE" transform="translate(117,96)"/>
<path d="M0 0 C3.3125 0.5625 3.3125 0.5625 7 2 C9.28755215 5.98476825 10 8.3959053 10 13 C2.49230769 13.36923077 2.49230769 13.36923077 0 11.5 C-0.33 11.005 -0.66 10.51 -1 10 C-2.23267348 11.00836062 -2.23267348 11.00836062 -2.09765625 13.06640625 C-2.08605469 13.89011719 -2.07445312 14.71382812 -2.0625 15.5625 C-2.05347656 16.38878906 -2.04445313 17.21507813 -2.03515625 18.06640625 C-2.02355469 18.70449219 -2.01195312 19.34257813 -2 20 C-0.68 20 0.64 20 2 20 C2.33 19.01 2.66 18.02 3 17 C4.98 17 6.96 17 9 17 C8.39044481 23.46128501 8.39044481 23.46128501 6.765625 25.703125 C3.33521814 28.22280437 -0.95224222 27.6104815 -5 27 C-8.09799981 24.80873184 -8.80352112 23.58943664 -10 20 C-10.58019218 15.38783934 -11.01601458 10.92943486 -8.80078125 6.72265625 C-7.27947056 4.84880001 -6.00520205 3.34753257 -4 2 C-2.68 2 -1.36 2 0 2 C0 1.34 0 0.68 0 0 Z " fill="#FCFCFC" transform="translate(329,96)"/>
<path d="M0 0 C2.64 0 5.28 0 8 0 C8.66 0.66 9.32 1.32 10 2 C12.60280568 1.67958603 12.60280568 1.67958603 15 1 C15.390625 6.95703125 15.390625 6.95703125 15 9 C14.02353516 9.65162109 14.02353516 9.65162109 13.02734375 10.31640625 C10.64280003 11.92600393 10.64280003 11.92600393 10.42578125 15.3203125 C10.38839844 16.57585937 10.35101563 17.83140625 10.3125 19.125 C10.06892895 25.93107105 10.06892895 25.93107105 9 27 C6.03 27 3.06 27 0 27 C0 18.09 0 9.18 0 0 Z " fill="#FCFCFC" transform="translate(291,97)"/>
<path d="M0 0 C3.3 0 6.6 0 10 0 C10.16820551 1.93736701 10.33451095 3.87489906 10.5 5.8125 C10.5928125 6.89144531 10.685625 7.97039062 10.78125 9.08203125 C11 12 11 12 11 15 C10.01 15.495 10.01 15.495 9 16 C9 11.05 9 6.1 9 1 C6.36 1 3.72 1 1 1 C1 12.22 1 23.44 1 35 C3.64 35 6.28 35 9 35 C9 31.7 9 28.4 9 25 C11.26609984 29.53219967 10.92735976 31.17772925 10 36 C6.85418577 36.02888514 3.70840531 36.04675923 0.5625 36.0625 C-0.33533203 36.07087891 -1.23316406 36.07925781 -2.15820312 36.08789062 C-3.43920898 36.09272461 -3.43920898 36.09272461 -4.74609375 36.09765625 C-5.53685303 36.10289307 -6.3276123 36.10812988 -7.14233398 36.11352539 C-9 36 -9 36 -10 35 C-10.07325168 32.13732433 -10.09238205 29.299281 -10.0625 26.4375 C-10.05798828 25.63119141 -10.05347656 24.82488281 -10.04882812 23.99414062 C-10.03700518 21.99606244 -10.01906914 19.99802217 -10 18 C-9.34 18.33 -8.68 18.66 -8 19 C-8 23.95 -8 28.9 -8 34 C-5.69 34 -3.38 34 -1 34 C-1.11437651 31.27001324 -1.24111406 28.5415418 -1.375 25.8125 C-1.4059375 25.04357422 -1.436875 24.27464844 -1.46875 23.48242188 C-1.68241546 19.33375085 -1.8811327 15.68013793 -4 12 C-5.68046157 10.78473015 -5.68046157 10.78473015 -7.625 10.1875 C-8.73875 9.795625 -9.8525 9.40375 -11 9 C-11 8.67 -11 8.34 -11 8 C-8.25 7.75 -8.25 7.75 -5 8 C-3.68 9.32 -2.36 10.64 -1 12 C-0.67 8.04 -0.34 4.08 0 0 Z " fill="#D4D4D4" transform="translate(129,88)"/>
<path d="M0 0 C3.96 0 7.92 0 12 0 C11.67 0.99 11.34 1.98 11 3 C10.34 3 9.68 3 9 3 C9 2.34 9 1.68 9 1 C6.69 1 4.38 1 2 1 C2 8.92 2 16.84 2 25 C4.31 25 6.62 25 9 25 C8.97679688 23.94039062 8.95359375 22.88078125 8.9296875 21.7890625 C8.91093056 20.4010487 8.89273028 19.0130273 8.875 17.625 C8.85824219 16.92632812 8.84148437 16.22765625 8.82421875 15.5078125 C8.80655733 13.67102514 8.89696739 11.83398037 9 10 C9.66 9.34 10.32 8.68 11 8 C11.99 8.33 12.98 8.66 14 9 C13.01 9.495 13.01 9.495 12 10 C11.7137306 12.69152264 11.53256862 15.30097868 11.4375 18 C11.11929275 25.88070725 11.11929275 25.88070725 10 27 C7.00981839 27.12667764 4.05305892 27.18520838 1.0625 27.1875 C0.22525391 27.19974609 -0.61199219 27.21199219 -1.47460938 27.22460938 C-2.67633789 27.22750977 -2.67633789 27.22750977 -3.90234375 27.23046875 C-4.63960693 27.23457764 -5.37687012 27.23868652 -6.13647461 27.24291992 C-8 27 -8 27 -10 25 C-7.03 25 -4.06 25 -1 25 C-1.01160156 23.865625 -1.02320312 22.73125 -1.03515625 21.5625 C-1.0445441 20.04166833 -1.05364322 18.52083486 -1.0625 17 C-1.07087891 16.25621094 -1.07925781 15.51242188 -1.08789062 14.74609375 C-1.10966272 9.73851156 -0.71541549 4.95720968 0 0 Z " fill="#DFDFDF" transform="translate(105,97)"/>
<path d="M0 0 C0.90492188 0.02320312 1.80984375 0.04640625 2.7421875 0.0703125 C4.10730469 0.09738281 4.10730469 0.09738281 5.5 0.125 C6.19867188 0.14820312 6.89734375 0.17140625 7.6171875 0.1953125 C7.6171875 0.5253125 7.6171875 0.8553125 7.6171875 1.1953125 C6.66005859 1.28619141 6.66005859 1.28619141 5.68359375 1.37890625 C4.85730469 1.46269531 4.03101563 1.54648438 3.1796875 1.6328125 C1.94412109 1.75462891 1.94412109 1.75462891 0.68359375 1.87890625 C-1.36943275 1.98462065 -1.36943275 1.98462065 -2.3828125 3.1953125 C-2.75041981 5.52349214 -3.08522831 7.857151 -3.3828125 10.1953125 C-4.3728125 10.1953125 -5.3628125 10.1953125 -6.3828125 10.1953125 C-6.3828125 12.1753125 -6.3828125 14.1553125 -6.3828125 16.1953125 C-5.3928125 16.1953125 -4.4028125 16.1953125 -3.3828125 16.1953125 C-3.3828125 22.1353125 -3.3828125 28.0753125 -3.3828125 34.1953125 C-1.4028125 34.1953125 0.5771875 34.1953125 2.6171875 34.1953125 C2.6171875 28.2553125 2.6171875 22.3153125 2.6171875 16.1953125 C3.9371875 16.1953125 5.2571875 16.1953125 6.6171875 16.1953125 C6.6171875 14.2153125 6.6171875 12.2353125 6.6171875 10.1953125 C5.6271875 10.1953125 4.6371875 10.1953125 3.6171875 10.1953125 C3.9471875 9.5353125 4.2771875 8.8753125 4.6171875 8.1953125 C5.6071875 8.5253125 6.5971875 8.8553125 7.6171875 9.1953125 C7.6171875 11.8353125 7.6171875 14.4753125 7.6171875 17.1953125 C6.6271875 17.1953125 5.6371875 17.1953125 4.6171875 17.1953125 C4.6171875 23.4653125 4.6171875 29.7353125 4.6171875 36.1953125 C1.3171875 36.1953125 -1.9828125 36.1953125 -5.3828125 36.1953125 C-5.3828125 29.9253125 -5.3828125 23.6553125 -5.3828125 17.1953125 C-6.3728125 17.1953125 -7.3628125 17.1953125 -8.3828125 17.1953125 C-8.3828125 14.8853125 -8.3828125 12.5753125 -8.3828125 10.1953125 C-7.0628125 9.8653125 -5.7428125 9.5353125 -4.3828125 9.1953125 C-4.4240625 8.0815625 -4.4653125 6.9678125 -4.5078125 5.8203125 C-4.36942571 1.80709563 -4.18667013 0.34316968 0 0 Z " fill="#DBDBDB" transform="translate(189.3828125,87.8046875)"/>
<path d="M0 0 C0.66 0 1.32 0 2 0 C3.625 2.5 3.625 2.5 5 5 C5.99 4.01 6.98 3.02 8 2 C7.84144531 2.52722656 7.68289063 3.05445312 7.51953125 3.59765625 C6.87562927 6.57509773 6.75439936 9.39181863 6.6875 12.4375 C6.65011719 13.54996094 6.61273438 14.66242188 6.57421875 15.80859375 C7.09089564 19.68130038 8.24749315 21.27730369 11 24 C14.68671757 25.01973039 18.18916631 25.11208334 22 25 C20 27 20 27 16.6875 27.25 C13.16899323 27.01145717 11.02506903 26.7646236 8 25 C6.1875 22.375 6.1875 22.375 5 20 C4.67 21.98 4.34 23.96 4 26 C0.7 26 -2.6 26 -6 26 C-6 20.06 -6 14.12 -6 8 C-5.01 8.495 -5.01 8.495 -4 9 C-4 13.95 -4 18.9 -4 24 C-1.69 24 0.62 24 3 24 C2.88545196 21.12424132 2.7587153 18.24987888 2.625 15.375 C2.5940625 14.56675781 2.563125 13.75851563 2.53125 12.92578125 C2.3047054 8.28161686 1.7407332 4.37306144 0 0 Z " fill="#D9D9D9" transform="translate(263,98)"/>
<path d="M0 0 C0 0.66 0 1.32 0 2 C-0.7425 2.226875 -1.485 2.45375 -2.25 2.6875 C-5.80512083 4.38426222 -7.0834718 5.52185622 -9 9 C-9.59158406 14.46393614 -9.1927294 19.64726316 -8 25 C-8.99 24.01 -9.98 23.02 -11 22 C-11.33 23.98 -11.66 25.96 -12 28 C-14.97 28 -17.94 28 -21 28 C-20.67 27.34 -20.34 26.68 -20 26 C-17.69 26 -15.38 26 -13 26 C-13 18.08 -13 10.16 -13 2 C-15.64 2 -18.28 2 -21 2 C-21 1.67 -21 1.34 -21 1 C-18.03 1 -15.06 1 -12 1 C-11.67 2.98 -11.34 4.96 -11 7 C-10.62875 6.21625 -10.2575 5.4325 -9.875 4.625 C-7.32784222 1.05897911 -4.36614346 0 0 0 Z " fill="#D7D7D7" transform="translate(329,96)"/>
<path d="M0 0 C3.46679688 0.04882812 3.46679688 0.04882812 6.93359375 0.09765625 C6.93359375 3.06765625 6.93359375 6.03765625 6.93359375 9.09765625 C3.63359375 9.09765625 0.33359375 9.09765625 -3.06640625 9.09765625 C-3.1640625 2.9453125 -3.1640625 2.9453125 -3.06640625 1.09765625 C-2.06640625 0.09765625 -2.06640625 0.09765625 0 0 Z " fill="#EAEAEA" transform="translate(310.06640625,86.90234375)"/>
<path d="M0 0 C2.64 0 5.28 0 8 0 C8 0.33 8 0.66 8 1 C5.69 1 3.38 1 1 1 C1 8.92 1 16.84 1 25 C3.31 25 5.62 25 8 25 C7.98839844 24.15695313 7.97679687 23.31390625 7.96484375 22.4453125 C7.95582031 21.34960938 7.94679688 20.25390625 7.9375 19.125 C7.92589844 18.03445312 7.91429687 16.94390625 7.90234375 15.8203125 C8 13 8 13 9 11 C9.66 11.33 10.32 11.66 11 12 C10.85973717 14.31284456 10.71264442 16.62527591 10.5625 18.9375 C10.48128906 20.22527344 10.40007812 21.51304688 10.31640625 22.83984375 C10 26 10 26 9 27 C6.03 27 3.06 27 0 27 C0 18.09 0 9.18 0 0 Z " fill="#D5D5D5" transform="translate(291,97)"/>
<path d="M0 0 C7.75 -0.125 7.75 -0.125 10 1 C10 1.66 10 2.32 10 3 C9.34 3 8.68 3 8 3 C7.896875 3.928125 7.79375 4.85625 7.6875 5.8125 C6.96168341 9.17764963 6.61858802 9.95478227 4 12 C-0.92069598 13.37300319 -5.44156632 13.49978621 -10 11 C-10 10.34 -10 9.68 -10 9 C-9.01 9.33 -8.02 9.66 -7 10 C-3.61466522 10.38975894 -0.37573799 10.51233797 3 10 C5.48641318 7.28754926 6.33602383 4.58547134 7 1 C5.02 1 3.04 1 1 1 C0.67 2.32 0.34 3.64 0 5 C-1.65 4.67 -3.3 4.34 -5 4 C-4.67 3.34 -4.34 2.68 -4 2 C-3.01 2 -2.02 2 -1 2 C-0.67 1.34 -0.34 0.68 0 0 Z " fill="#DBDBDB" transform="translate(331,112)"/>
<path d="M0 0 C0.33 0 0.66 0 1 0 C1.02886751 4.14581887 1.04675327 8.29161216 1.0625 12.4375 C1.07087891 13.62150391 1.07925781 14.80550781 1.08789062 16.02539062 C1.09111328 17.15009766 1.09433594 18.27480469 1.09765625 19.43359375 C1.10289307 20.47572021 1.10812988 21.51784668 1.11352539 22.59155273 C1 25 1 25 0 26 C-5.73611111 26.27314815 -5.73611111 26.27314815 -8 26 C-8.66 25.34 -9.32 24.68 -10 24 C-7.03 24 -4.06 24 -1 24 C-1.01160156 22.85402344 -1.02320312 21.70804688 -1.03515625 20.52734375 C-1.04454242 18.99739748 -1.05364173 17.46744942 -1.0625 15.9375 C-1.07087891 15.18533203 -1.07925781 14.43316406 -1.08789062 13.65820312 C-1.10808341 8.99366882 -0.77595959 4.60076827 0 0 Z " fill="#C2C2C2" transform="translate(105,98)"/>
<path d="M0 0 C0.33 0 0.66 0 1 0 C0 7.42857143 0 7.42857143 -1 11 C1.64 11 4.28 11 7 11 C7 9.68 7 8.36 7 7 C10.3 7 13.6 7 17 7 C16.67 7.99 16.34 8.98 16 10 C16 9.34 16 8.68 16 8 C13.69 8.33 11.38 8.66 9 9 C8.67 10.32 8.34 11.64 8 13 C4.37 13 0.74 13 -3 13 C-2.45144652 8.428721 -1.58255197 4.32564205 0 0 Z " fill="#D7D7D7" transform="translate(205,111)"/>
<path d="M0 0 C0.99 0.495 0.99 0.495 2 1 C2 5.95 2 10.9 2 16 C4.31 16 6.62 16 9 16 C9 16.33 9 16.66 9 17 C6.03 17.33 3.06 17.66 0 18 C0 12.06 0 6.12 0 0 Z " fill="#DDDDDD" transform="translate(257,106)"/>
<path d="M0 0 C2.8125 0.0625 2.8125 0.0625 6 1 C8.24187957 4.9606539 9 7.43432227 9 12 C6.36 12 3.72 12 1 12 C1 11.34 1 10.68 1 10 C2.98 10 4.96 10 7 10 C5.76075855 5.04303419 4.21422242 2.88341534 0 0 Z " fill="#E2E2E2" transform="translate(330,97)"/>
<path d="M0 0 C2.375 0.3125 2.375 0.3125 5 1 C7.16926659 4.25389988 7.24080049 5.13395957 7.1953125 8.88671875 C7.18886719 9.82451172 7.18242188 10.76230469 7.17578125 11.72851562 C7.15902344 12.70498047 7.14226562 13.68144531 7.125 14.6875 C7.11597656 15.67556641 7.10695313 16.66363281 7.09765625 17.68164062 C7.0740843 20.12133765 7.04118022 22.56054697 7 25 C6.67 25 6.34 25 6 25 C5.98582031 23.69804688 5.97164063 22.39609375 5.95703125 21.0546875 C5.91011285 19.32809034 5.86186556 17.60152893 5.8125 15.875 C5.80379883 14.59109375 5.80379883 14.59109375 5.79492188 13.28125 C5.58218539 7.13552943 4.42443697 4.30447616 0 0 Z " fill="#E8E8E8" transform="translate(97,97)"/>
<path d="M0 0 C1.32 0 2.64 0 4 0 C3.77734375 1.89453125 3.77734375 1.89453125 3 4 C1.00390625 5.01171875 1.00390625 5.01171875 -1.4375 5.6875 C-4.79858166 6.6372485 -4.79858166 6.6372485 -8 8 C-7.67 6.35 -7.34 4.7 -7 3 C-0.25 1.875 -0.25 1.875 2 3 C2 2.34 2 1.68 2 1 C1.34 0.67 0.68 0.34 0 0 Z " fill="#D6D6D6" transform="translate(349,104)"/>
<path d="M0 0 C3 3.625 3 3.625 3 7 C-0.3 7 -3.6 7 -7 7 C-7 6.01 -7 5.02 -7 4 C-4.36 4.33 -1.72 4.66 1 5 C0.67 3.35 0.34 1.7 0 0 Z " fill="#D7D7D7" transform="translate(150,117)"/>
<path d="M0 0 C1.37478516 0.01740234 1.37478516 0.01740234 2.77734375 0.03515625 C3.69644531 0.04417969 4.61554688 0.05320312 5.5625 0.0625 C6.27277344 0.07410156 6.98304688 0.08570312 7.71484375 0.09765625 C7.38484375 1.08765625 7.05484375 2.07765625 6.71484375 3.09765625 C4.07484375 2.76765625 1.43484375 2.43765625 -1.28515625 2.09765625 C-1.94515625 3.41765625 -2.60515625 4.73765625 -3.28515625 6.09765625 C-3.32787725 4.4315372 -3.32579457 2.7638274 -3.28515625 1.09765625 C-2.28515625 0.09765625 -2.28515625 0.09765625 0 0 Z " fill="#DDDDDD" transform="translate(214.28515625,86.90234375)"/>
<path d="M0 0 C0.66 0 1.32 0 2 0 C2.66 2.97 3.32 5.94 4 9 C2.35 9 0.7 9 -1 9 C-0.67 6.03 -0.34 3.06 0 0 Z M0 5 C0 5.66 0 6.32 0 7 C0.66 7 1.32 7 2 7 C2 6.34 2 5.68 2 5 C1.34 5 0.68 5 0 5 Z " fill="#DDDDDD" transform="translate(216,102)"/>
<path d="M0 0 C0 0.66 0 1.32 0 2 C-0.721875 2.226875 -1.44375 2.45375 -2.1875 2.6875 C-5.53209313 4.24831013 -7.51603959 6.3031287 -10 9 C-9.63692621 6.31325398 -9.33095772 4.44127696 -7.6875 2.25 C-5.21825169 0.42092718 -3.03628681 0 0 0 Z " fill="#E6E6E6" transform="translate(329,96)"/>
<path d="M0 0 C0 0.66 0 1.32 0 2 C-1.0725 2.226875 -2.145 2.45375 -3.25 2.6875 C-7.37218701 4.13026545 -8.64414523 5.41910075 -11 9 C-10.6875 6.125 -10.6875 6.125 -10 3 C-6.64781163 0.76520776 -4.01177204 0 0 0 Z " fill="#DCDCDC" transform="translate(95,96)"/>
<path d="M0 0 C3.63820044 -0.33074549 5.3773086 -0.48805542 8.3125 1.8125 C10 4 10 4 11 7 C10.34 7.66 9.68 8.32 9 9 C8.814375 8.236875 8.62875 7.47375 8.4375 6.6875 C6.36554378 2.81384272 4.07713462 2.43454737 0 1 C0 0.67 0 0.34 0 0 Z " fill="#E1E1E1" transform="translate(118,96)"/>
<path d="M0 0 C1.65 0.33 3.3 0.66 5 1 C4.67 1.66 4.34 2.32 4 3 C1.4375 3.625 1.4375 3.625 -1 4 C-0.67 2.68 -0.34 1.36 0 0 Z " fill="#DADADA" transform="translate(277,104)"/>
</svg>
