<?xml version="1.0" encoding="UTF-8"?>
<svg version="1.1" xmlns="http://www.w3.org/2000/svg" width="470" height="256">
<path d="M0 0 C1.75280273 -0.01836914 1.75280273 -0.01836914 3.54101562 -0.03710938 C12.47441007 -0.0522251 20.2848294 0.19921763 27.4375 6.1875 C30.347872 10.553058 31.0881249 13.98250079 30.4375 19.1875 C28.4375 22.625 28.4375 22.625 26.4375 25.1875 C27.45403417 27.37695821 28.38396178 29.12753719 30 30.9375 C32.07731892 34.18895571 32.55790799 37.3981897 32.4375 41.1875 C30.96560247 45.83559746 29.30586605 49.17877085 25.4375 52.1875 C20.29168599 54.77809636 16.61182116 55.55104604 10.75390625 55.48046875 C10.05353745 55.47622391 9.35316864 55.47197906 8.63157654 55.46760559 C6.42064 55.45097156 4.21065543 55.4133518 2 55.375 C0.49024765 55.35993326 -1.01951916 55.34624836 -2.52929688 55.33398438 C-6.20733434 55.30111921 -9.88482407 55.24944582 -13.5625 55.1875 C-13.58776605 47.51538798 -13.60533123 39.8432866 -13.61743164 32.17114258 C-13.62247377 29.55883381 -13.62930725 26.94652789 -13.63793945 24.33422852 C-13.65001036 20.58869732 -13.65572935 16.84320328 -13.66015625 13.09765625 C-13.66531754 11.92163345 -13.67047882 10.74561066 -13.67579651 9.53395081 C-13.67590981 7.91238319 -13.67590981 7.91238319 -13.67602539 6.25805664 C-13.678246 5.30097305 -13.68046661 4.34388947 -13.68275452 3.35780334 C-13.36973144 -2.29150662 -4.24169176 0.00228663 0 0 Z M0.4375 12.1875 C0.41060784 13.66656892 0.39115379 15.14577483 0.375 16.625 C0.36339844 17.44871094 0.35179687 18.27242187 0.33984375 19.12109375 C0.20482652 21.17913938 0.20482652 21.17913938 1.4375 22.1875 C6.45512683 22.6332809 10.88372611 22.53783491 15.4375 20.1875 C15.1075 17.8775 14.7775 15.5675 14.4375 13.1875 C11.28819107 12.13773036 9.04935544 12.08618405 5.75 12.125 C4.75613281 12.13402344 3.76226562 12.14304687 2.73828125 12.15234375 C1.97902344 12.16394531 1.21976563 12.17554687 0.4375 12.1875 Z M0.4375 33.1875 C0.4375 36.4875 0.4375 39.7875 0.4375 43.1875 C2.35385217 43.24173638 4.27064925 43.28039963 6.1875 43.3125 C7.25484375 43.33570313 8.3221875 43.35890625 9.421875 43.3828125 C12.36220106 43.19237687 13.96111878 42.71420104 16.4375 41.1875 C16.4375 39.2075 16.4375 37.2275 16.4375 35.1875 C12.9608662 33.04413839 10.22520805 32.97472374 6.1875 33.0625 C4.57101563 33.08957031 4.57101563 33.08957031 2.921875 33.1171875 C2.10203125 33.14039063 1.2821875 33.16359375 0.4375 33.1875 Z " fill="#868788" transform="translate(58.5625,111.8125)"/>
<path d="M0 0 C1.68125977 -0.01836914 1.68125977 -0.01836914 3.39648438 -0.03710938 C12.26651341 -0.05273479 19.79553742 0.34407607 26.9375 6.1875 C30.75918843 10.10975918 31.25667096 13.38920912 31.4375 18.6875 C31.18943126 26.47508639 28.28265638 29.87603158 22.9375 35.1875 C23.2456665 35.7222998 23.55383301 36.25709961 23.87133789 36.80810547 C25.25589186 39.22156742 26.62805386 41.64185072 28 44.0625 C28.48533203 44.90425781 28.97066406 45.74601562 29.47070312 46.61328125 C29.92509766 47.41894531 30.37949219 48.22460938 30.84765625 49.0546875 C31.27183838 49.79831543 31.69602051 50.54194336 32.13305664 51.30810547 C32.39852295 51.92830566 32.66398926 52.54850586 32.9375 53.1875 C32.4425 54.1775 32.4425 54.1775 31.9375 55.1875 C26.9875 55.1875 22.0375 55.1875 16.9375 55.1875 C15.43230613 52.56535672 13.93318681 49.94005792 12.4375 47.3125 C12.00824219 46.56613281 11.57898438 45.81976563 11.13671875 45.05078125 C10.73066406 44.33535156 10.32460938 43.61992187 9.90625 42.8828125 C9.52919922 42.22297363 9.15214844 41.56313477 8.76367188 40.88330078 C7.9375 39.1875 7.9375 39.1875 7.9375 37.1875 C5.6275 37.1875 3.3175 37.1875 0.9375 37.1875 C0.9375 43.1275 0.9375 49.0675 0.9375 55.1875 C-3.6825 55.1875 -8.3025 55.1875 -13.0625 55.1875 C-13.08713993 47.51538327 -13.10533123 39.84328935 -13.11743164 32.17114258 C-13.12247377 29.55883381 -13.12930725 26.94652789 -13.13793945 24.33422852 C-13.15001036 20.58869732 -13.15572935 16.84320328 -13.16015625 13.09765625 C-13.16531754 11.92163345 -13.17047882 10.74561066 -13.17579651 9.53395081 C-13.17590981 7.91238319 -13.17590981 7.91238319 -13.17602539 6.25805664 C-13.178246 5.30097305 -13.18046661 4.34388947 -13.18275452 3.35780334 C-12.8736072 -2.22155853 -4.20397249 0.00236046 0 0 Z M0.9375 13.1875 C0.9375 17.1475 0.9375 21.1075 0.9375 25.1875 C2.835 25.27 4.7325 25.3525 6.6875 25.4375 C8.28851563 25.50710937 8.28851563 25.50710937 9.921875 25.578125 C13.02512969 25.4260835 13.02512969 25.4260835 15.3359375 23.40234375 C17.31326125 21.14446903 17.31326125 21.14446903 16.8125 17.5 C16.52375 16.406875 16.235 15.31375 15.9375 14.1875 C13.05334117 12.74542059 10.52028472 13.09355113 7.3125 13.125 C5.52972656 13.13853516 5.52972656 13.13853516 3.7109375 13.15234375 C2.33808594 13.16974609 2.33808594 13.16974609 0.9375 13.1875 Z " fill="#FFFFFF" transform="translate(252.0625,111.8125)"/>
<path d="M0 0 C1.093125 0.00257812 2.18625 0.00515625 3.3125 0.0078125 C4.405625 0.00523438 5.49875 0.00265625 6.625 0 C9.3125 0.1328125 9.3125 0.1328125 10.3125 1.1328125 C10.47036308 2.98455956 10.56357356 4.8419036 10.62890625 6.69921875 C10.69174805 8.3862793 10.69174805 8.3862793 10.75585938 10.10742188 C10.79517578 11.29142578 10.83449219 12.47542969 10.875 13.6953125 C10.91818359 14.88318359 10.96136719 16.07105469 11.00585938 17.29492188 C11.11233546 20.24076034 11.21434841 23.1866868 11.3125 26.1328125 C11.77140625 25.60171875 12.2303125 25.070625 12.703125 24.5234375 C13.96677909 23.06864246 15.23825079 21.62060884 16.51660156 20.17871094 C17.81407813 18.70061773 19.06941925 17.18517344 20.296875 15.6484375 C23.33292005 13.3655199 25.83451083 13.74473883 29.5625 13.8828125 C30.82578125 13.91890625 32.0890625 13.955 33.390625 13.9921875 C34.83695312 14.06179687 34.83695312 14.06179687 36.3125 14.1328125 C36.3125 17.65313678 35.60898649 18.5713468 33.3125 21.1328125 C32.6525 21.1328125 31.9925 21.1328125 31.3125 21.1328125 C31.065 21.7103125 30.8175 22.2878125 30.5625 22.8828125 C29.14566683 25.4331122 27.43622463 27.15066951 25.3125 29.1328125 C26.59584913 32.5349444 28.07196578 35.595275 29.94921875 38.70703125 C30.44357422 39.53912109 30.93792969 40.37121094 31.44726562 41.22851562 C32.49068544 42.97017361 33.53761878 44.70973102 34.58789062 46.44726562 C35.07837891 47.27548828 35.56886719 48.10371094 36.07421875 48.95703125 C36.52756592 49.71072998 36.98091309 50.46442871 37.44799805 51.2409668 C37.73328369 51.86527588 38.01856934 52.48958496 38.3125 53.1328125 C37.8175 54.1228125 37.8175 54.1228125 37.3125 55.1328125 C32.43230165 55.93475521 28.15221542 56.28042742 23.3125 55.1328125 C20.39468961 51.93444342 18.62749736 48.84291647 16.765625 44.9765625 C16.28609375 44.038125 15.8065625 43.0996875 15.3125 42.1328125 C14.6525 42.1328125 13.9925 42.1328125 13.3125 42.1328125 C10.81850835 44.62680415 10.98317912 45.74723823 10.75 49.1953125 C10.40972222 54.03559028 10.40972222 54.03559028 9.3125 55.1328125 C7.31450428 55.23155066 5.31292842 55.26253049 3.3125 55.2578125 C2.219375 55.26039063 1.12625 55.26296875 0 55.265625 C-2.6875 55.1328125 -2.6875 55.1328125 -3.6875 54.1328125 C-3.78618509 52.48089854 -3.81548837 50.82478033 -3.81689453 49.16992188 C-3.82004669 48.11212524 -3.82319885 47.05432861 -3.82644653 45.96447754 C-3.82341019 44.23795959 -3.82341019 44.23795959 -3.8203125 42.4765625 C-3.82126923 41.30395874 -3.82222595 40.13135498 -3.82321167 38.92321777 C-3.8238937 36.43823188 -3.82203784 33.95324421 -3.81787109 31.46826172 C-3.81252319 27.64937363 -3.81781536 23.83060315 -3.82421875 20.01171875 C-3.82355797 17.60416641 -3.82227682 15.19661413 -3.8203125 12.7890625 C-3.82233673 11.63805054 -3.82436096 10.48703857 -3.82644653 9.30114746 C-3.82329437 8.24335083 -3.82014221 7.1855542 -3.81689453 6.09570312 C-3.81609894 5.15940063 -3.81530334 4.22309814 -3.81448364 3.25842285 C-3.62289207 0.05132454 -3.24302462 0.16026575 0 0 Z " fill="#FFFFFF" transform="translate(375.6875,111.8671875)"/>
<path d="M0 0 C4.29 0 8.58 0 13 0 C13.33 8.91 13.66 17.82 14 27 C15.629375 25.22625 17.25875 23.4525 18.9375 21.625 C19.45046631 21.06893066 19.96343262 20.51286133 20.49194336 19.93994141 C23.03708062 17.17832605 23.03708062 17.17832605 25 14 C29.95 14 34.9 14 40 14 C40 17.69834896 39.18635778 18.27081428 36.75 20.9375 C36.11449219 21.63746094 35.47898438 22.33742187 34.82421875 23.05859375 C32.92272554 25.08223855 31.00339585 27.07673998 29 29 C30.89334692 36.19471831 35.10520105 42.3667829 39.375 48.375 C41 51 41 51 41 55 C36.05 55 31.1 55 26 55 C23.69 50.71 21.38 46.42 19 42 C15.31622777 43.57836298 15.31622777 43.57836298 14 45 C13.76712992 46.68183948 13.58735834 48.3712416 13.4375 50.0625 C13.293125 51.691875 13.14875 53.32125 13 55 C8.71 55 4.42 55 0 55 C0 36.85 0 18.7 0 0 Z " fill="#858688" transform="translate(196,112)"/>
<path d="M0 0 C3.91907617 3.48037362 5.70198818 6.94263258 6.20532227 12.10644531 C6.26030884 13.20617676 6.26030884 13.20617676 6.31640625 14.328125 C6.35830078 15.12734375 6.40019531 15.9265625 6.44335938 16.75 C6.48267578 17.575 6.52199219 18.4 6.5625 19.25 C6.60568359 20.09046875 6.64886719 20.9309375 6.69335938 21.796875 C6.79908543 23.86440671 6.90001295 25.93218281 7 28 C7.99 28 8.98 28 10 28 C10 31.3 10 34.6 10 38 C6.10860457 39.94569771 5.36333309 40.25687845 1.375 39.75 C0.59898437 39.66234375 -0.17703125 39.5746875 -0.9765625 39.484375 C-3 39 -3 39 -5 37 C-7.31076874 37.31872672 -9.08984166 38.04363738 -11.1875 39.0625 C-16.43071068 40.81023689 -21.23625002 40.68590277 -26.375 38.6875 C-29.99217848 36.36217098 -31.62964492 35.11106523 -33 31 C-33.34531267 25.64765358 -33.47574585 22.34468232 -30 18 C-25.6235497 14.04707715 -21.62741264 13.86086631 -15.875 13.875 C-14.82054687 13.87242187 -13.76609375 13.86984375 -12.6796875 13.8671875 C-10 14 -10 14 -8 15 C-8.495 12.525 -8.495 12.525 -9 10 C-10.60379341 9.94583812 -12.20811406 9.90713362 -13.8125 9.875 C-14.70582031 9.85179687 -15.59914063 9.82859375 -16.51953125 9.8046875 C-19.25402714 9.81714173 -19.25402714 9.81714173 -22 12 C-24.375 12.0625 -24.375 12.0625 -27 11 C-28.91714913 8.81643505 -30.48214828 6.47377535 -32 4 C-24.18657857 -4.27575405 -9.77892998 -5.84562703 0 0 Z M-17.9375 23.25 C-19.23938689 24.97701922 -19.23938689 24.97701922 -18.6875 27.1875 C-18.460625 27.785625 -18.23375 28.38375 -18 29 C-14.75691762 30.01925446 -13.37302767 30.15750057 -10.1875 28.8125 C-9.465625 28.214375 -8.74375 27.61625 -8 27 C-8 25.68 -8 24.36 -8 23 C-11.36428984 21.31785508 -14.74165586 21.18816507 -17.9375 23.25 Z " fill="#87888A" transform="translate(143,128)"/>
<path d="M0 0 C6.04943723 5.30820184 8.67259651 10.41635108 9.25 18.5 C8.71716597 25.9596764 6.64370477 31.1071744 1 36 C-5.1883837 40.09348338 -11.71158074 41.16860731 -19 40 C-24.82604089 38.12704802 -29.84817342 35.39756308 -33.09765625 30.078125 C-35.91859866 23.58140914 -36.74342194 16.84556552 -34.82421875 10 C-32.51155475 4.38822764 -28.19168906 0.98245967 -23 -2 C-15.74728169 -4.30560098 -6.53327133 -4.13498186 0 0 Z M-21.25 12.6875 C-22.52892996 16.63086737 -22.52892996 20.36913263 -21.25 24.3125 C-19.61930861 26.51393337 -18.64398578 27.21395017 -16 28 C-11.22354073 27.7755587 -11.22354073 27.7755587 -7.125 25.5625 C-4.90168616 22.47456411 -4.60075337 19.85142496 -4.65625 16.04296875 C-4.90208981 13.67752477 -4.90208981 13.67752477 -7.125 11 C-11.91593579 7.6671751 -17.59927223 7.75901751 -21.25 12.6875 Z " fill="#FFFFFF" transform="translate(319,128)"/>
<path d="M0 0 C2.36074561 2.09349139 4.48692953 4.21443093 6 7 C4.77887968 10.66336097 3.13279518 11.35042014 -0.11328125 13.23046875 C-2 14 -2 14 -6 14 C-6.61875 13.34 -7.2375 12.68 -7.875 12 C-9.88938068 9.73254771 -9.88938068 9.73254771 -13 9.5 C-16.03322528 9.80628745 -16.03322528 9.80628745 -18.375 11.5 C-20.67465772 15.03793495 -20.53069364 17.89765396 -20 22 C-19.64021433 24.47546872 -19.64021433 24.47546872 -18 26 C-14.07496408 27.11085922 -11.92210354 27.43031499 -8.1875 25.6875 C-5.95234401 24.03765823 -5.95234401 24.03765823 -4 22 C-0.7 23.65 2.6 25.3 6 27 C4.82120629 31.71517485 3.31193884 34.27858047 -0.62109375 37.20703125 C-6.90761601 40.90575432 -14.12891389 41.23105631 -21.1484375 39.45703125 C-26.98112333 37.15197419 -31.25379142 33.62972759 -34 28 C-36.04829357 21.29649377 -35.64635942 13.6946166 -33.24609375 7.1484375 C-30.51489681 2.43947726 -25.76553331 -1.25326259 -20.51171875 -2.671875 C-13.41642748 -3.59878708 -6.2895329 -3.84881864 0 0 Z " fill="#FFFFFF" transform="translate(365,128)"/>
<path d="M0 0 C3.20675216 2.7791852 5.21441053 5.19451295 7 9 C5.59248779 9.86916887 4.1735479 10.71985149 2.75 11.5625 C1.96109375 12.03816406 1.1721875 12.51382813 0.359375 13.00390625 C-2 14 -2 14 -4.1875 13.75 C-6 13 -6 13 -7.75 11.4375 C-11.16348916 9.2566597 -13.99872124 9.79993606 -18 10 C-20.00348873 14.13219551 -20.57170574 17.42635406 -20 22 C-18.10350449 25.14658666 -18.10350449 25.14658666 -15 27 C-9.67737918 27.0950468 -6.83219046 25.59993649 -3 22 C-1.51719804 22.78483659 -0.0388502 23.57809334 1.4375 24.375 C2.26121094 24.81585938 3.08492187 25.25671875 3.93359375 25.7109375 C6 27 6 27 7 29 C3.36068969 35.10464955 -0.02197006 38.22396527 -7 40 C-14.38563528 40.94264029 -20.93638585 40.60185002 -27 36 C-32.5439745 31.00052299 -34.53338822 26.12173739 -35.375 18.6875 C-34.69665204 12.0170784 -32.68166516 6.08575621 -27.625 1.5 C-19.53953655 -4.53851067 -8.70953337 -5.05152935 0 0 Z " fill="#88898A" transform="translate(188,128)"/>
<path d="M0 0 C1.093125 0.00257812 2.18625 0.00515625 3.3125 0.0078125 C4.405625 0.00523438 5.49875 0.00265625 6.625 0 C9.3125 0.1328125 9.3125 0.1328125 10.3125 1.1328125 C10.40603163 2.82083235 10.42994791 4.51276457 10.42602539 6.20336914 C10.42594986 7.28441422 10.42587433 8.36545929 10.42579651 9.47926331 C10.42063522 10.6552861 10.41547394 11.8313089 10.41015625 13.04296875 C10.4087413 14.24014023 10.40732635 15.43731171 10.40586853 16.67076111 C10.40024979 20.51230316 10.38769411 24.35378793 10.375 28.1953125 C10.36998741 30.79231687 10.36542409 33.38932215 10.36132812 35.98632812 C10.35027427 42.36850929 10.33351792 48.7506568 10.3125 55.1328125 C8.16673363 55.15967188 6.02087355 55.17914338 3.875 55.1953125 C2.68003906 55.20691406 1.48507813 55.21851563 0.25390625 55.23046875 C-2.6875 55.1328125 -2.6875 55.1328125 -3.6875 54.1328125 C-3.78618509 52.48089854 -3.81548837 50.82478033 -3.81689453 49.16992188 C-3.82004669 48.11212524 -3.82319885 47.05432861 -3.82644653 45.96447754 C-3.82341019 44.23795959 -3.82341019 44.23795959 -3.8203125 42.4765625 C-3.82126923 41.30395874 -3.82222595 40.13135498 -3.82321167 38.92321777 C-3.8238937 36.43823188 -3.82203784 33.95324421 -3.81787109 31.46826172 C-3.81252319 27.64937363 -3.81781536 23.83060315 -3.82421875 20.01171875 C-3.82355797 17.60416641 -3.82227682 15.19661413 -3.8203125 12.7890625 C-3.82233673 11.63805054 -3.82436096 10.48703857 -3.82644653 9.30114746 C-3.82329437 8.24335083 -3.82014221 7.1855542 -3.81689453 6.09570312 C-3.81609894 5.15940063 -3.81530334 4.22309814 -3.81448364 3.25842285 C-3.62289207 0.05132454 -3.24302462 0.16026575 0 0 Z " fill="#868789" transform="translate(96.6875,111.8671875)"/>
<path d="M0 0 C0.763125 0.20625 1.52625 0.4125 2.3125 0.625 C3.64328101 7.03694487 3.64328101 7.03694487 2.1875 9.625 C0.3125 10.625 0.3125 10.625 -2.25 10.5 C-4.6875 9.625 -4.6875 9.625 -6.6875 6.625 C-6.5 4.0625 -6.5 4.0625 -5.6875 1.625 C-2.6875 -0.375 -2.6875 -0.375 0 0 Z " fill="#FFFFFF" transform="translate(421.6875,157.375)"/>
<path d="M0 0 C0.99 0.66 1.98 1.32 3 2 C3 3.32 3 4.64 3 6 C-1.95 6 -6.9 6 -12 6 C-12 5.34 -12 4.68 -12 4 C-7.71 4 -3.42 4 1 4 C0.67 2.68 0.34 1.36 0 0 Z " fill="#A0A1A2" transform="translate(234,161)"/>
<path d="M0 0 C0.66 0.33 1.32 0.66 2 1 C0.88121617 2.17262904 -0.24523051 3.33795138 -1.375 4.5 C-2.00148437 5.1496875 -2.62796875 5.799375 -3.2734375 6.46875 C-5 8 -5 8 -7 8 C-5.50902342 4.2047869 -3.24299151 2.38957269 0 0 Z " fill="#979899" transform="translate(164,127)"/>
</svg>
