<?xml version="1.0" encoding="UTF-8"?>
<svg version="1.1" xmlns="http://www.w3.org/2000/svg" width="175" height="90">
<path d="M0 0 C0 1.65 0 3.3 0 5 C2.475 5.495 2.475 5.495 5 6 C6.47816825 10.30012582 5.37737011 12.68599876 3.71484375 16.76953125 C1.51429741 23.63571683 3.02876828 30.18961654 5.44140625 36.7734375 C6.06401615 39.25516926 5.82430749 40.60896239 5 43 C3.35 43 1.7 43 0 43 C0.495 44.98 0.495 44.98 1 47 C-0.75390625 48.0859375 -0.75390625 48.0859375 -3 49 C-4.90234375 48.5390625 -4.90234375 48.5390625 -6.9375 47.625 C-14.45184616 44.82113949 -22.65642962 44.78797522 -30 48 C-32.6875 48.25 -32.6875 48.25 -35 48 C-35.66 47.34 -36.32 46.68 -37 46 C-37 45.01 -37 44.02 -37 43 C-37.928125 42.814375 -37.928125 42.814375 -38.875 42.625 C-41 42 -41 42 -43 40 C-43.125 36.875 -43.125 36.875 -43 34 C-42.34 34 -41.68 34 -41 34 C-39.88011834 24.45569733 -39.88011834 24.45569733 -41 15 C-41.66 14.67 -42.32 14.34 -43 14 C-43 11.36 -43 8.72 -43 6 C-41.35 5.67 -39.7 5.34 -38 5 C-37.67 3.68 -37.34 2.36 -37 1 C-30.25 0 -30.25 0 -28 0 C-28 0.66 -28 1.32 -28 2 C-21.73 2 -15.46 2 -9 2 C-8.67 1.34 -8.34 0.68 -8 0 C-4.71585695 -0.95067299 -3.30306592 -1.10102197 0 0 Z M-13 17 C-14.63676257 18.9600281 -14.63676257 18.9600281 -16 21 C-12.87802522 19.6910428 -12.87802522 19.6910428 -11 17 C-11.66 17 -12.32 17 -13 17 Z M-25 18 C-24.67 18.66 -24.34 19.32 -24 20 C-23.34 19.67 -22.68 19.34 -22 19 C-22.99 18.67 -23.98 18.34 -25 18 Z M-21 21 C-21.33 22.65 -21.66 24.3 -22 26 C-20.02 26.66 -18.04 27.32 -16 28 C-14.99782936 24.41672247 -14.99782936 24.41672247 -16 21 C-17.65 21 -19.3 21 -21 21 Z M-23 27 C-24.63676257 28.9600281 -24.63676257 28.9600281 -26 31 C-22.87802522 29.6910428 -22.87802522 29.6910428 -21 27 C-21.66 27 -22.32 27 -23 27 Z M-15 27 C-14.67 27.99 -14.34 28.98 -14 30 C-14 29.01 -14 28.02 -14 27 C-14.33 27 -14.66 27 -15 27 Z " fill="#F6F6F6" transform="translate(49,7)"/>
<path d="M0 0 C3.52076232 -0.05855176 7.0413976 -0.0937806 10.5625 -0.125 C12.0484668 -0.15013672 12.0484668 -0.15013672 13.56445312 -0.17578125 C20.07376181 -0.21903247 25.94366737 -0.25203457 31.375 3.75 C33.44196231 6.61194781 33.85908012 8.47700292 34 12 C33.2292919 14.86263008 32.32243175 17.35513651 31 20 C30.01 20 29.02 20 28 20 C28.86625 20.309375 28.86625 20.309375 29.75 20.625 C32.89638344 22.54778988 34.75051542 24.56391739 36 28 C36.32845797 32.02361019 36.2345861 35.97293867 36 40 C35.01 40.33 34.02 40.66 33 41 C33 41.66 33 42.32 33 43 C26.04785719 44.31191997 19.11555097 44.11058058 12.0625 44.0625 C10.80630859 44.05798828 9.55011719 44.05347656 8.25585938 44.04882812 C5.17052337 44.03709681 2.08528684 44.020681 -1 44 C-0.67 43.01 -0.34 42.02 0 41 C0.66 41 1.32 41 2 41 C2 28.46 2 15.92 2 3 C1.34 3 0.68 3 0 3 C0 2.01 0 1.02 0 0 Z M12 3 C11.83276974 8.25087844 11.67217185 13.50190094 11.51782227 18.75317383 C11.46432598 20.54099032 11.40899096 22.32875275 11.35180664 24.11645508 C11.27010765 26.68038266 11.19494055 29.24442953 11.12109375 31.80859375 C11.09405869 32.6127623 11.06702362 33.41693085 11.03916931 34.24546814 C10.98714373 36.16298422 10.98812559 38.08181503 11 40 C12.64156736 41.64156736 14.49215801 41.28815992 16.75 41.375 C20.60974944 41.32523246 21.79393798 41.13600093 25.125 38.9375 C27.47957169 35.24867103 27.61537417 33.30761917 27 29 C25.6310355 25.75771567 24.70995821 24.39234532 21.625 22.6875 C18.95981317 21.98947488 16.74175514 21.84332828 14 22 C14 21.34 14 20.68 14 20 C14.9075 19.896875 15.815 19.79375 16.75 19.6875 C20.9882494 18.84788338 20.9882494 18.84788338 24 16 C24.50874845 12.93607677 24.61322396 10.04954617 24 7 C22.34563628 4.86618171 21.39786553 4.09001794 18.73828125 3.48828125 C17.93777344 3.43027344 17.13726562 3.37226563 16.3125 3.3125 C15.50425781 3.24675781 14.69601563 3.18101563 13.86328125 3.11328125 C12.94095703 3.05720703 12.94095703 3.05720703 12 3 Z " fill="#8C8C8C" transform="translate(101,9)"/>
<path d="M0 0 C3.2914911 -0.08857863 6.58266805 -0.1409104 9.875 -0.1875 C10.7928125 -0.21263672 11.710625 -0.23777344 12.65625 -0.26367188 C20.26374018 -0.34403269 28.09072904 0.51046947 34.375 5.1875 C40.2393659 11.47074918 41.49965059 16.64911224 41.20703125 25.2109375 C40.98602851 28.18821965 40.64811955 31.08346203 40 34 C39.34 34 38.68 34 38 34 C36.53634827 35.65397177 35.2440694 37.4044476 33.92578125 39.17578125 C27.63727419 45.13264291 19.72806548 44.53158358 11.5625 44.6875 C10.35400391 44.72166016 9.14550781 44.75582031 7.90039062 44.79101562 C4.93368651 44.87309835 1.96726324 44.94238015 -1 45 C-1 43.68 -1 42.36 -1 41 C-0.01 40.34 0.98 39.68 2 39 C2.2667616 36.23371085 2.34804189 33.69380369 2.29296875 30.9296875 C2.28872391 30.13345978 2.28447906 29.33723206 2.28010559 28.51687622 C2.26328834 25.96924271 2.22563179 23.42239511 2.1875 20.875 C2.17245705 19.14975099 2.15876796 17.42448961 2.14648438 15.69921875 C2.11337501 11.46584218 2.06157285 7.23305441 2 3 C1.34 3 0.68 3 0 3 C0 2.01 0 1.02 0 0 Z M12 3 C12 15.54 12 28.08 12 41 C20.443354 41.38032787 20.443354 41.38032787 27 38 C31.04875546 33.10898519 31.60314997 29.58095686 31.4375 23.5 C31.44458984 22.76652344 31.45167969 22.03304688 31.45898438 21.27734375 C31.38607152 15.00683788 29.72466236 10.89292211 25.4375 6.1875 C21.26259792 3.16831602 21.26259792 3.16831602 12 3 Z " fill="#8C8C8C" transform="translate(60,9)"/>
<path d="M0 0 C0.84433594 0.00322266 1.68867188 0.00644531 2.55859375 0.00976562 C3.86763672 0.02233398 3.86763672 0.02233398 5.203125 0.03515625 C6.09128906 0.03966797 6.97945312 0.04417969 7.89453125 0.04882812 C10.08075816 0.06058203 12.26695028 0.07851659 14.453125 0.09765625 C14.453125 3.39765625 14.453125 6.69765625 14.453125 10.09765625 C13.133125 9.43765625 11.813125 8.77765625 10.453125 8.09765625 C10.453125 7.43765625 10.453125 6.77765625 10.453125 6.09765625 C6.80232674 4.48700996 3.4023818 3.64871534 -0.546875 3.09765625 C-0.876875 3.75765625 -1.206875 4.41765625 -1.546875 5.09765625 C-2.536875 5.09765625 -3.526875 5.09765625 -4.546875 5.09765625 C-4.546875 8.06765625 -4.546875 11.03765625 -4.546875 14.09765625 C-3.886875 14.09765625 -3.226875 14.09765625 -2.546875 14.09765625 C-2.546875 14.75765625 -2.546875 15.41765625 -2.546875 16.09765625 C-1.46019531 16.26201172 -1.46019531 16.26201172 -0.3515625 16.4296875 C10.21317159 18.16230389 10.21317159 18.16230389 14.453125 21.09765625 C17.02352123 25.25925014 17.05692126 30.31193209 17.453125 35.09765625 C16.793125 35.09765625 16.133125 35.09765625 15.453125 35.09765625 C15.453125 36.74765625 15.453125 38.39765625 15.453125 40.09765625 C5.79432184 45.29855026 -3.9568078 44.72689736 -14.546875 43.09765625 C-14.546875 40.12765625 -14.546875 37.15765625 -14.546875 34.09765625 C-13.886875 34.09765625 -13.226875 34.09765625 -12.546875 34.09765625 C-12.0725 34.90203125 -11.598125 35.70640625 -11.109375 36.53515625 C-9.74703828 39.38946385 -9.74703828 39.38946385 -6.546875 40.09765625 C-3.82356012 40.32954247 -1.29648231 40.22858993 1.453125 40.09765625 C2.113125 39.43765625 2.773125 38.77765625 3.453125 38.09765625 C4.938125 37.60265625 4.938125 37.60265625 6.453125 37.09765625 C6.91406369 32.56993005 6.91406369 32.56993005 5.3515625 28.5 C2.70568077 26.54553181 0.04602793 25.86815608 -3.109375 24.97265625 C-11.83295095 22.46353407 -11.83295095 22.46353407 -14.546875 18.09765625 C-15.75539353 14.21313239 -15.63822603 12.37651728 -14.359375 8.47265625 C-12.42020546 4.86178883 -10.75985781 1.81198461 -6.70214844 0.50219727 C-4.4142508 0.07276292 -2.32689557 -0.01572227 0 0 Z " fill="#888888" transform="translate(152.546875,8.90234375)"/>
<path d="M0 0 C6.27 0 12.54 0 19 0 C19 3.3 19 6.6 19 10 C17.68 9.34 16.36 8.68 15 8 C15 7.34 15 6.68 15 6 C12.25865717 4.79058405 9.91788572 3.98826939 6.9375 3.5625 C4 3 4 3 0 0 Z " fill="#989898" transform="translate(148,9)"/>
<path d="M0 0 C0.66 0 1.32 0 2 0 C2.33 0.78375 2.66 1.5675 3 2.375 C5.79486138 6.04325556 8.5059464 6.05028349 12.91796875 6.73828125 C13.60503906 6.82464844 14.29210937 6.91101562 15 7 C15 7.33 15 7.66 15 8 C17.475 8.495 17.475 8.495 20 9 C20 9.33 20 9.66 20 10 C13.2314676 10.10152799 6.69675136 10.03026944 0 9 C0 6.03 0 3.06 0 0 Z " fill="#959595" transform="translate(138,43)"/>
<path d="" fill="#000000" transform="translate(0,0)"/>
<path d="" fill="#000000" transform="translate(0,0)"/>
<path d="M0 0 C2 1 2 1 2 1 Z " fill="#000000" transform="translate(131,11)"/>
<path d="" fill="#FFFFFF" transform="translate(0,0)"/>
<path d="" fill="#000000" transform="translate(0,0)"/>
<path d="" fill="#000000" transform="translate(0,0)"/>
<path d="" fill="#000000" transform="translate(0,0)"/>
<path d="" fill="#000000" transform="translate(0,0)"/>
<path d="" fill="#000000" transform="translate(0,0)"/>
<path d="" fill="#000000" transform="translate(0,0)"/>
<path d="" fill="#000000" transform="translate(0,0)"/>
<path d="" fill="#000000" transform="translate(0,0)"/>
<path d="" fill="#000000" transform="translate(0,0)"/>
<path d="" fill="#000000" transform="translate(0,0)"/>
<path d="" fill="#000000" transform="translate(0,0)"/>
<path d="" fill="#000000" transform="translate(0,0)"/>
<path d="" fill="#000000" transform="translate(0,0)"/>
<path d="" fill="#FFFFFF" transform="translate(0,0)"/>
<path d="" fill="#000000" transform="translate(0,0)"/>
<path d="" fill="#000000" transform="translate(0,0)"/>
<path d="" fill="#000000" transform="translate(0,0)"/>
<path d="" fill="#000000" transform="translate(0,0)"/>
<path d="" fill="#000000" transform="translate(0,0)"/>
<path d="" fill="#000000" transform="translate(0,0)"/>
<path d="" fill="#000000" transform="translate(0,0)"/>
<path d="" fill="#000000" transform="translate(0,0)"/>
<path d="" fill="#000000" transform="translate(0,0)"/>
<path d="" fill="#000000" transform="translate(0,0)"/>
<path d="" fill="#000000" transform="translate(0,0)"/>
<path d="" fill="#000000" transform="translate(0,0)"/>
<path d="" fill="#000000" transform="translate(0,0)"/>
<path d="" fill="#000000" transform="translate(0,0)"/>
<path d="" fill="#000000" transform="translate(0,0)"/>
<path d="" fill="#000000" transform="translate(0,0)"/>
<path d="" fill="#000000" transform="translate(0,0)"/>
<path d="" fill="#000000" transform="translate(0,0)"/>
<path d="" fill="#000000" transform="translate(0,0)"/>
<path d="" fill="#000000" transform="translate(0,0)"/>
<path d="" fill="#000000" transform="translate(0,0)"/>
<path d="" fill="#000000" transform="translate(0,0)"/>
<path d="" fill="#000000" transform="translate(0,0)"/>
<path d="" fill="#000000" transform="translate(0,0)"/>
<path d="" fill="#000000" transform="translate(0,0)"/>
<path d="" fill="#000000" transform="translate(0,0)"/>
<path d="" fill="#000000" transform="translate(0,0)"/>
<path d="" fill="#000000" transform="translate(0,0)"/>
<path d="" fill="#000000" transform="translate(0,0)"/>
<path d="" fill="#000000" transform="translate(0,0)"/>
<path d="" fill="#000000" transform="translate(0,0)"/>
<path d="" fill="#000000" transform="translate(0,0)"/>
<path d="" fill="#000000" transform="translate(0,0)"/>
<path d="" fill="#000000" transform="translate(0,0)"/>
<path d="" fill="#000000" transform="translate(0,0)"/>
<path d="" fill="#000000" transform="translate(0,0)"/>
<path d="" fill="#000000" transform="translate(0,0)"/>
<path d="" fill="#000000" transform="translate(0,0)"/>
<path d="" fill="#000000" transform="translate(0,0)"/>
<path d="" fill="#000000" transform="translate(0,0)"/>
<path d="" fill="#000000" transform="translate(0,0)"/>
<path d="" fill="#000000" transform="translate(0,0)"/>
<path d="" fill="#000000" transform="translate(0,0)"/>
<path d="" fill="#000000" transform="translate(0,0)"/>
<path d="" fill="#000000" transform="translate(0,0)"/>
<path d="" fill="#000000" transform="translate(0,0)"/>
<path d="" fill="#000000" transform="translate(0,0)"/>
<path d="" fill="#000000" transform="translate(0,0)"/>
<path d="" fill="#000000" transform="translate(0,0)"/>
<path d="" fill="#000000" transform="translate(0,0)"/>
<path d="" fill="#000000" transform="translate(0,0)"/>
<path d="" fill="#000000" transform="translate(0,0)"/>
<path d="" fill="#000000" transform="translate(0,0)"/>
<path d="" fill="#000000" transform="translate(0,0)"/>
<path d="" fill="#000000" transform="translate(0,0)"/>
<path d="" fill="#000000" transform="translate(0,0)"/>
<path d="" fill="#000000" transform="translate(0,0)"/>
<path d="" fill="#000000" transform="translate(0,0)"/>
<path d="" fill="#000000" transform="translate(0,0)"/>
<path d="" fill="#000000" transform="translate(0,0)"/>
<path d="" fill="#000000" transform="translate(0,0)"/>
<path d="" fill="#000000" transform="translate(0,0)"/>
<path d="" fill="#000000" transform="translate(0,0)"/>
<path d="" fill="#000000" transform="translate(0,0)"/>
<path d="" fill="#000000" transform="translate(0,0)"/>
<path d="" fill="#000000" transform="translate(0,0)"/>
<path d="" fill="#000000" transform="translate(0,0)"/>
<path d="" fill="#000000" transform="translate(0,0)"/>
<path d="" fill="#000000" transform="translate(0,0)"/>
<path d="" fill="#FFFFFF" transform="translate(0,0)"/>
<path d="" fill="#FFFFFF" transform="translate(0,0)"/>
<path d="" fill="#FFFFFF" transform="translate(0,0)"/>
</svg>
