<?xml version="1.0" encoding="UTF-8"?>
<svg version="1.1" xmlns="http://www.w3.org/2000/svg" width="471" height="256">
<path d="M0 0 C7.80115848 7.35874873 13.50788373 15.2489329 14.3046875 26.234375 C14.54412174 38.42031751 12.28347937 47.65844808 4.06640625 56.94921875 C3.07679203 57.95949777 2.07984728 58.96284292 1.06640625 59.94921875 C-3.25848779 58.45888364 -4.96942395 55.26350646 -7.18359375 51.51171875 C-7.54710937 50.92583984 -7.910625 50.33996094 -8.28515625 49.73632812 C-9.98227138 46.92587995 -10.93359375 45.28921301 -10.93359375 41.94921875 C-9.94359375 41.94921875 -8.95359375 41.94921875 -7.93359375 41.94921875 C-8.92359375 41.28921875 -9.91359375 40.62921875 -10.93359375 39.94921875 C-11.26359375 40.27921875 -11.59359375 40.60921875 -11.93359375 40.94921875 C-13.27626788 41.03553749 -14.62333697 41.05628348 -15.96875 41.046875 C-16.77763672 41.04365234 -17.58652344 41.04042969 -18.41992188 41.03710938 C-19.27005859 41.02873047 -20.12019531 41.02035156 -20.99609375 41.01171875 C-21.85009766 41.00720703 -22.70410156 41.00269531 -23.58398438 40.99804688 C-25.70055038 40.98622248 -27.8170806 40.96828644 -29.93359375 40.94921875 C-30.16046875 42.12484375 -30.38734375 43.30046875 -30.62109375 44.51171875 C-31.64167392 49.06788021 -32.95161058 53.50453812 -34.37109375 57.94921875 C-34.57629639 58.62025635 -34.78149902 59.29129395 -34.99291992 59.98266602 C-35.6171875 61.88671875 -35.6171875 61.88671875 -36.93359375 64.94921875 C-39.93359375 65.94921875 -39.93359375 65.94921875 -41.94921875 64.98046875 C-51.97755285 58.10790412 -59.43008402 50.64654859 -62.58203125 38.4375 C-64.21227235 26.89901579 -62.56471409 16.65683108 -55.7265625 7.1171875 C-49.48733688 -0.4269742 -42.57792846 -5.27895866 -33.12109375 -7.80078125 C-20.69906423 -8.77505808 -9.83956134 -8.39619099 0 0 Z M-28.93359375 6.94921875 C-28.60359375 11.56921875 -28.27359375 16.18921875 -27.93359375 20.94921875 C-28.59359375 20.94921875 -29.25359375 20.94921875 -29.93359375 20.94921875 C-30.59359375 19.62921875 -31.25359375 18.30921875 -31.93359375 16.94921875 C-33.15720055 19.02375435 -33.15720055 19.02375435 -32.93359375 21.94921875 C-34.58359375 21.61921875 -36.23359375 21.28921875 -37.93359375 20.94921875 C-35.95359375 23.91921875 -35.95359375 23.91921875 -33.93359375 26.94921875 C-37.23359375 26.61921875 -40.53359375 26.28921875 -43.93359375 25.94921875 C-41.17136097 28.71145153 -38.72652758 28.52778166 -34.93359375 28.94921875 C-34.93359375 29.60921875 -34.93359375 30.26921875 -34.93359375 30.94921875 C-37.57359375 31.60921875 -40.21359375 32.26921875 -42.93359375 32.94921875 C-42.93359375 33.27921875 -42.93359375 33.60921875 -42.93359375 33.94921875 C-37.85055689 34.06242731 -37.85055689 34.06242731 -32.93359375 32.94921875 C-28.57601364 27.91027157 -24.81332926 22.99064447 -25.08203125 16.1953125 C-25.84549259 13.00488462 -26.73488112 10.00094131 -27.93359375 6.94921875 C-28.26359375 6.94921875 -28.59359375 6.94921875 -28.93359375 6.94921875 Z M-36.93359375 10.94921875 C-35.93359375 12.94921875 -35.93359375 12.94921875 -35.93359375 12.94921875 Z M-20.93359375 10.94921875 C-24.92475777 23.31601636 -24.92475777 23.31601636 -27.93359375 35.94921875 C-21.00359375 36.44421875 -21.00359375 36.44421875 -13.93359375 36.94921875 C-14.26359375 35.95921875 -14.59359375 34.96921875 -14.93359375 33.94921875 C-14.19109375 34.19671875 -14.19109375 34.19671875 -13.43359375 34.44921875 C-9.89915286 35.15610693 -6.53668674 35.0092703 -2.93359375 34.94921875 C-5.31592899 33.66642285 -7.52469926 32.76377388 -10.12109375 31.94921875 C-12.93359375 30.94921875 -12.93359375 30.94921875 -13.93359375 28.94921875 C-10.96359375 28.61921875 -7.99359375 28.28921875 -4.93359375 27.94921875 C-4.93359375 27.61921875 -4.93359375 27.28921875 -4.93359375 26.94921875 C-7.90359375 26.94921875 -10.87359375 26.94921875 -13.93359375 26.94921875 C-13.93359375 25.95921875 -13.93359375 24.96921875 -13.93359375 23.94921875 C-13.12921875 23.66046875 -12.32484375 23.37171875 -11.49609375 23.07421875 C-8.80094695 22.21659307 -8.80094695 22.21659307 -7.93359375 19.94921875 C-10.90359375 20.93921875 -13.87359375 21.92921875 -16.93359375 22.94921875 C-16.41796875 22.00046875 -15.90234375 21.05171875 -15.37109375 20.07421875 C-14.89671875 19.04296875 -14.42234375 18.01171875 -13.93359375 16.94921875 C-14.26359375 16.28921875 -14.59359375 15.62921875 -14.93359375 14.94921875 C-16.58359375 16.59921875 -18.23359375 18.24921875 -19.93359375 19.94921875 C-19.93359375 16.97921875 -19.93359375 14.00921875 -19.93359375 10.94921875 C-20.26359375 10.94921875 -20.59359375 10.94921875 -20.93359375 10.94921875 Z M-34.93359375 13.94921875 C-34.60359375 14.93921875 -34.27359375 15.92921875 -33.93359375 16.94921875 C-33.93359375 15.95921875 -33.93359375 14.96921875 -33.93359375 13.94921875 C-34.26359375 13.94921875 -34.59359375 13.94921875 -34.93359375 13.94921875 Z M-40.93359375 18.94921875 C-40.60359375 19.60921875 -40.27359375 20.26921875 -39.93359375 20.94921875 C-39.27359375 20.61921875 -38.61359375 20.28921875 -37.93359375 19.94921875 C-38.92359375 19.61921875 -39.91359375 19.28921875 -40.93359375 18.94921875 Z M-37.93359375 37.94921875 C-39.58359375 39.59921875 -41.23359375 41.24921875 -42.93359375 42.94921875 C-41.28359375 42.28921875 -39.63359375 41.62921875 -37.93359375 40.94921875 C-37.93359375 39.95921875 -37.93359375 38.96921875 -37.93359375 37.94921875 Z " fill="#FFFFFF" transform="translate(107.93359375,101.05078125)"/>
<path d="M0 0 C0.74886475 0.00523682 1.49772949 0.01047363 2.26928711 0.01586914 C3.07817383 0.0190918 3.88706055 0.02231445 4.72045898 0.02563477 C5.5705957 0.03401367 6.42073242 0.04239258 7.29663086 0.05102539 C8.15063477 0.05553711 9.00463867 0.06004883 9.88452148 0.06469727 C12.00108749 0.07652166 14.11761771 0.0944577 16.23413086 0.11352539 C17.16836731 3.12384283 17.27862997 3.98002807 16.23413086 7.11352539 C23.82413086 7.44352539 31.41413086 7.77352539 39.23413086 8.11352539 C39.72913086 15.53852539 39.72913086 15.53852539 40.23413086 23.11352539 C40.7278418 22.11450195 41.22155273 21.11547852 41.73022461 20.08618164 C42.37725481 18.78274399 43.02439596 17.47936141 43.67163086 16.17602539 C43.99711914 15.51666992 44.32260742 14.85731445 44.65795898 14.17797852 C47.12084961 9.22680664 47.12084961 9.22680664 48.23413086 8.11352539 C49.57680499 8.02720665 50.92387408 8.00646066 52.26928711 8.01586914 C53.07817383 8.0190918 53.88706055 8.02231445 54.72045898 8.02563477 C55.5705957 8.03401367 56.42073242 8.04239258 57.29663086 8.05102539 C58.15063477 8.05553711 59.00463867 8.06004883 59.88452148 8.06469727 C62.00108749 8.07652166 64.11761771 8.0944577 66.23413086 8.11352539 C65.83138227 14.04235925 63.17476694 17.79126225 59.92163086 22.55102539 C58.94459817 24.00686881 57.96931423 25.46388748 56.99584961 26.92211914 C56.52840332 27.62062988 56.06095703 28.31914062 55.5793457 29.03881836 C53.66304993 31.99429594 51.9424044 35.03376384 50.23413086 38.11352539 C51.88413086 38.77352539 53.53413086 39.43352539 55.23413086 40.11352539 C55.35913086 42.98852539 55.35913086 42.98852539 55.23413086 46.11352539 C53.23413086 48.11352539 53.23413086 48.11352539 50.79663086 48.42602539 C47.78298587 48.05850771 47.20637195 47.29276554 45.23413086 45.11352539 C44.64245117 46.00555664 44.05077148 46.89758789 43.44116211 47.81665039 C42.64339689 48.99922001 41.84519661 50.18149621 41.04663086 51.36352539 C40.65926758 51.95004883 40.2719043 52.53657227 39.87280273 53.14086914 C36.97186135 57.40836969 33.94087195 60.76015484 29.23413086 63.11352539 C27.8586493 63.19661177 26.4792729 63.22088555 25.10131836 63.21118164 C24.2956543 63.20795898 23.48999023 63.20473633 22.65991211 63.20141602 C21.39727539 63.18884766 21.39727539 63.18884766 20.10913086 63.17602539 C19.25963867 63.17151367 18.41014648 63.16700195 17.53491211 63.16235352 C15.43462177 63.15055413 13.33436756 63.13261845 11.23413086 63.11352539 C11.88535191 58.92458996 12.80657993 55.11066799 14.23413086 51.11352539 C16.87413086 50.78352539 19.51413086 50.45352539 22.23413086 50.11352539 C21.59581216 39.77819501 20.93180427 29.44502948 20.23413086 19.11352539 C17.59413086 19.11352539 14.95413086 19.11352539 12.23413086 19.11352539 C12.11295898 19.75418945 11.99178711 20.39485352 11.86694336 21.05493164 C10.87733859 26.16281472 9.74902135 31.13602808 8.23413086 36.11352539 C10.21413086 36.44352539 12.19413086 36.77352539 14.23413086 37.11352539 C14.09305339 38.57232648 13.94610671 40.03056091 13.79663086 41.48852539 C13.71541992 42.30063477 13.63420898 43.11274414 13.55053711 43.94946289 C13.23413086 46.11352539 13.23413086 46.11352539 12.23413086 48.11352539 C8.81775133 48.22985052 5.40188189 48.30081436 1.98413086 48.36352539 C1.01604492 48.39704102 0.04795898 48.43055664 -0.94946289 48.46508789 C-7.97526713 48.56199554 -7.97526713 48.56199554 -11.43774414 46.59790039 C-14.60247471 40.67799262 -12.42843986 33.78182193 -10.61352539 27.71118164 C-10.39393661 26.94801132 -10.17434784 26.184841 -9.94810486 25.39854431 C-9.4864752 23.80136404 -9.01982049 22.20562821 -8.54833984 20.61132812 C-7.82403151 18.16135333 -7.11498526 15.70734953 -6.40844727 13.25219727 C-5.95684272 11.69660606 -5.50439916 10.14125813 -5.05102539 8.58618164 C-4.83744888 7.85085709 -4.62387238 7.11553253 -4.40382385 6.35792542 C-2.56722026 0.16504319 -2.56722026 0.16504319 0 0 Z " fill="#8F8F8F" transform="translate(344.765869140625,109.886474609375)"/>
<path d="M0 0 C6.27 0 12.54 0 19 0 C18.40334113 4.17661206 17.87155376 7.89623788 16.8359375 11.90625 C16.60406738 12.804646 16.37219727 13.70304199 16.13330078 14.62866211 C15.88306152 15.57620361 15.63282227 16.52374512 15.375 17.5 C15.1157373 18.48943604 14.85647461 19.47887207 14.58935547 20.49829102 C11.68654121 31.42040929 8.37963946 42.21741257 5 53 C-2.66666667 53 -10.33333333 53 -18 53 C-18.99 53.495 -18.99 53.495 -20 54 C-24.26255164 54.43546696 -27.94179539 54.42778484 -31.9375 52.8125 C-34.43748663 50.61554205 -35.05413385 49.18397196 -36 46 C-35.66124899 35.44660309 -33.52968224 24.08727135 -26 16.3125 C-21.37991793 12.57352811 -17.51953807 12.20514169 -11.69921875 12.42578125 C-8.75215245 13.05272589 -7.23482006 14.01998128 -5 16 C-4.72285156 15.01257813 -4.44570312 14.02515625 -4.16015625 13.0078125 C-3.79437568 11.71351203 -3.42848451 10.41924281 -3.0625 9.125 C-2.88009766 8.47402344 -2.69769531 7.82304688 -2.50976562 7.15234375 C-1.11328125 2.2265625 -1.11328125 2.2265625 0 0 Z M-12 27 C-14.70844881 32.73290915 -14.70844881 32.73290915 -15 39 C-13.68 39 -12.36 39 -11 39 C-10.49166409 37.75336669 -9.99368855 36.50250613 -9.5 35.25 C-9.2215625 34.55390625 -8.943125 33.8578125 -8.65625 33.140625 C-7.80459673 30.73577305 -7.80459673 30.73577305 -8 27 C-9.32 27 -10.64 27 -12 27 Z " fill="#8F8F8F" transform="translate(229,105)"/>
<path d="M0 0 C12.87 0 25.74 0 39 0 C37 11 37 11 36 14 C29.73 14.33 23.46 14.66 17 15 C16.34 16.98 15.68 18.96 15 21 C20.94 21 26.88 21 33 21 C31.7157924 31.27366084 31.7157924 31.27366084 29 34 C25.91638273 34.6089267 22.93975489 34.46970926 19.8125 34.3125 C18.96751953 34.28994141 18.12253906 34.26738281 17.25195312 34.24414062 C15.16721202 34.18524963 13.08338196 34.09556798 11 34 C10.72285156 35.12019531 10.44570312 36.24039063 10.16015625 37.39453125 C9.79433333 38.86720302 9.42844447 40.33985842 9.0625 41.8125 C8.88009766 42.55048828 8.69769531 43.28847656 8.50976562 44.04882812 C7.7577385 47.07060984 6.98514427 50.04456718 6 53 C-0.6 53 -7.2 53 -14 53 C-13.25511026 47.78577179 -12.29114081 43.05333573 -10.8203125 38.046875 C-10.60688202 37.30600647 -10.39345154 36.56513794 -10.17355347 35.80181885 C-9.49509268 33.44991627 -8.81029258 31.09992 -8.125 28.75 C-7.44821101 26.4139864 -6.77276162 24.07759022 -6.09786987 21.74102783 C-5.67961099 20.29461846 -5.26007005 18.84857884 -4.83889771 17.40301514 C-3.1582876 11.61769742 -1.58592984 5.81507607 0 0 Z " fill="#909090" transform="translate(140,105)"/>
<path d="M0 0 C0.80767822 -0.02296143 1.61535645 -0.04592285 2.44750977 -0.06958008 C8.56951303 0.00902808 11.73058235 1.55351878 16.3125 5.625 C17.22066238 8.34948715 17.47540096 10.06086965 17.5 12.875 C17.51417969 13.60203125 17.52835937 14.3290625 17.54296875 15.078125 C17.3125 17.625 17.3125 17.625 15.3125 24.625 C7.0625 24.625 -1.1875 24.625 -9.6875 24.625 C-9.3575 26.275 -9.0275 27.925 -8.6875 29.625 C-8.0275 29.625 -7.3675 29.625 -6.6875 29.625 C-6.0275 28.305 -5.3675 26.985 -4.6875 25.625 C1.9125 25.625 8.5125 25.625 15.3125 25.625 C12.6036582 33.7515254 8.69725181 36.9326241 1.3125 40.625 C-5.72844356 42.45131983 -14.93391591 43.08425953 -21.8125 40.4375 C-25.12150964 38.35138523 -26.83917717 37.09984691 -28.6875 33.625 C-30.30050491 25.48389032 -27.28362893 17.84564835 -23.6875 10.625 C-17.59393954 2.012106 -10.13013012 0.16070296 0 0 Z M-4.6875 11.625 C-5.0175 12.615 -5.3475 13.605 -5.6875 14.625 C-4.0375 14.295 -2.3875 13.965 -0.6875 13.625 C-1.0175 12.965 -1.3475 12.305 -1.6875 11.625 C-2.6775 11.625 -3.6675 11.625 -4.6875 11.625 Z " fill="#909090" transform="translate(268.6875,117.375)"/>
<path d="M0 0 C6.6 0 13.2 0 20 0 C17.61451007 9.81720857 15.0338935 19.54010066 12.22338867 29.24389648 C10.29244157 35.92254977 8.4889468 42.62537198 6.76171875 49.359375 C6 52 6 52 5 53 C3.58429877 53.08651611 2.164405 53.10704904 0.74609375 53.09765625 C-0.10791016 53.09443359 -0.96191406 53.09121094 -1.84179688 53.08789062 C-2.73962891 53.07951172 -3.63746094 53.07113281 -4.5625 53.0625 C-5.46419922 53.05798828 -6.36589844 53.05347656 -7.29492188 53.04882812 C-9.53001314 53.03700225 -11.76497437 53.0205222 -14 53 C-13.39062082 46.31265706 -11.75857505 40.2270128 -9.8125 33.8125 C-9.18171156 31.69418307 -8.55151579 29.57568958 -7.921875 27.45703125 C-7.60283203 26.3892041 -7.28378906 25.32137695 -6.95507812 24.22119141 C-5.45385049 19.15800189 -4.00675775 14.07967709 -2.5625 9 C-1.716875 6.03 -0.87125 3.06 0 0 Z " fill="#909090" transform="translate(297,105)"/>
<path d="M0 0 C0.80566406 0.00322266 1.61132812 0.00644531 2.44140625 0.00976562 C3.70404297 0.02233398 3.70404297 0.02233398 4.9921875 0.03515625 C6.26642578 0.04192383 6.26642578 0.04192383 7.56640625 0.04882812 C9.66669659 0.06062751 11.7669508 0.07856319 13.8671875 0.09765625 C13.29422061 5.77639481 12.19599538 10.91031957 10.4921875 16.34765625 C8.63297284 22.45516298 6.93317241 28.56639364 5.4453125 34.77734375 C4.8671875 37.09765625 4.8671875 37.09765625 3.8671875 40.09765625 C-2.7328125 40.09765625 -9.3328125 40.09765625 -16.1328125 40.09765625 C-13.88196504 29.96884269 -13.88196504 29.96884269 -12.94921875 26.44921875 C-12.74530518 25.67626465 -12.5413916 24.90331055 -12.33129883 24.10693359 C-12.0164856 22.92671631 -12.0164856 22.92671631 -11.6953125 21.72265625 C-11.36599731 20.48636475 -11.36599731 20.48636475 -11.0300293 19.22509766 C-10.59542811 17.59458286 -10.16030648 15.96420667 -9.72460938 14.33398438 C-9.2071005 12.37838155 -8.70750597 10.41805588 -8.2109375 8.45703125 C-7.95828125 7.4721875 -7.705625 6.48734375 -7.4453125 5.47265625 C-7.23519531 4.63476562 -7.02507812 3.796875 -6.80859375 2.93359375 C-5.57622169 -0.41446906 -3.1585296 -0.02224317 0 0 Z " fill="#929292" transform="translate(184.1328125,117.90234375)"/>
<path d="M0 0 C0.74362793 0.01047363 1.48725586 0.02094727 2.25341797 0.03173828 C3.46191406 0.04140625 3.46191406 0.04140625 4.69482422 0.05126953 C5.95746094 0.07640625 5.95746094 0.07640625 7.24560547 0.10205078 C8.51984375 0.11558594 8.51984375 0.11558594 9.81982422 0.12939453 C11.9202043 0.15299431 14.02043991 0.18886595 16.12060547 0.22705078 C17.40597581 4.08316181 16.31339771 6.41635692 15.05810547 10.10205078 C14.59200013 11.52569315 14.12860447 12.95022465 13.66748047 14.37548828 C13.41804688 15.14602539 13.16861328 15.9165625 12.91162109 16.71044922 C10.46579153 24.49181067 8.34043613 32.3802075 6.12060547 40.22705078 C-0.47939453 40.22705078 -7.07939453 40.22705078 -13.87939453 40.22705078 C-12.23618031 32.8325868 -10.42322304 25.56625448 -8.42041016 18.26782227 C-7.87429017 16.27088624 -7.33779483 14.27150488 -6.80126953 12.27197266 C-6.45580078 11.010625 -6.11033203 9.74927734 -5.75439453 8.44970703 C-5.28646484 6.72892944 -5.28646484 6.72892944 -4.80908203 4.97338867 C-3.82025624 2.05235366 -3.23812512 0.39119984 0 0 Z " fill="#919191" transform="translate(319.87939453125,117.77294921875)"/>
<path d="M0 0 C6.6 0 13.2 0 20 0 C20 3 20 3 17 12 C10.73 12 4.46 12 -2 12 C-1 4 -1 4 0 0 Z " fill="#949494" transform="translate(320,105)"/>
<path d="M0 0 C6.6 0 13.2 0 20 0 C18.125 9.75 18.125 9.75 17 12 C10.73 12 4.46 12 -2 12 C-1 4 -1 4 0 0 Z " fill="#949494" transform="translate(182,105)"/>
<path d="M0 0 C6.0546875 -0.1953125 6.0546875 -0.1953125 8 0 C8.66 0.66 9.32 1.32 10 2 C10.33 1.34 10.66 0.68 11 0 C13.97 0 16.94 0 20 0 C19.01 3.63 18.02 7.26 17 11 C10.4 11 3.8 11 -3 11 C-2.01 7.37 -1.02 3.74 0 0 Z " fill="#FFFFFF" transform="translate(248,162)"/>
<path d="M0 0 C3.4375 -0.1875 3.4375 -0.1875 7 0 C7.99 0 8.98 0 10 0 C11.66666667 0 13.33333333 0 15 0 C14.53199289 4.05606165 14.12046792 7.46588679 12 11 C8.66666667 11 5.33333333 11 2 11 C0.33034549 11.31802943 -1.33678518 11.64984951 -3 12 C-2.88541307 10.56163249 -2.75790884 9.12429034 -2.625 7.6875 C-2.55539062 6.88699219 -2.48578125 6.08648437 -2.4140625 5.26171875 C-2 3 -2 3 0 0 Z " fill="#FFFFFF" transform="translate(295,162)"/>
<path d="M0 0 C1.19625 0.020625 2.3925 0.04125 3.625 0.0625 C4.615 0.0625 5.605 0.0625 6.625 0.0625 C8.29166667 0.0625 9.95833333 0.0625 11.625 0.0625 C11.31717504 1.70921412 11.00360766 3.35485576 10.6875 5 C10.42646484 6.37478516 10.42646484 6.37478516 10.16015625 7.77734375 C9.625 10.0625 9.625 10.0625 8.625 11.0625 C5.95441149 11.20365161 3.30067762 11.10497107 0.625 11.0625 C0.625 10.4025 0.625 9.7425 0.625 9.0625 C-0.035 9.0625 -0.695 9.0625 -1.375 9.0625 C-1.375 9.7225 -1.375 10.3825 -1.375 11.0625 C-3.355 11.0625 -5.335 11.0625 -7.375 11.0625 C-6.8997412 9.41553396 -6.41968109 7.76995272 -5.9375 6.125 C-5.67066406 5.20847656 -5.40382812 4.29195312 -5.12890625 3.34765625 C-3.95718998 -0.20391896 -3.97659294 0.07364061 0 0 Z " fill="#FFFFFF" transform="translate(145.375,161.9375)"/>
<path d="M0 0 C0.66 0.33 1.32 0.66 2 1 C2.36774516 7.49683122 2.36774516 7.49683122 0.76953125 9.68359375 C-1.3938885 11.29302522 -2.82860966 11.5184795 -5.5 11.75 C-6.2734375 11.82734375 -7.046875 11.9046875 -7.84375 11.984375 C-10 12 -10 12 -13 11 C-12.125 3.25 -12.125 3.25 -11 1 C-7.10835652 -0.29721449 -4.10570774 -0.13033993 0 0 Z " fill="#FFFFFF" transform="translate(346,162)"/>
<path d="M0 0 C2.0234375 0.3359375 2.0234375 0.3359375 4.0234375 2.3359375 C3.95207383 6.26093924 3.85364404 8.50573096 1.0234375 11.3359375 C-3.1659104 12.7323868 -6.6912602 12.11083966 -10.9765625 11.3359375 C-11.3065625 10.3459375 -11.6365625 9.3559375 -11.9765625 8.3359375 C-11.3165625 7.6759375 -10.6565625 7.0159375 -9.9765625 6.3359375 C-10.3065625 5.6759375 -10.6365625 5.0159375 -10.9765625 4.3359375 C-7.81189135 -0.06708323 -5.05271564 -0.08393215 0 0 Z " fill="#FFFFFF" transform="translate(215.9765625,161.6640625)"/>
<path d="M0 0 C3.96 0 7.92 0 12 0 C11.07671407 3.69314372 10.05496286 7.34279543 9 11 C5.04 11 1.08 11 -3 11 C-2.01 7.37 -1.02 3.74 0 0 Z " fill="#FFFFFF" transform="translate(275,162)"/>
<path d="M0 0 C3.63 0 7.26 0 11 0 C12.60600892 3.21201784 11.05786315 5.70887021 10 9 C9.67 9.66 9.34 10.32 9 11 C5.37 11 1.74 11 -2 11 C-3 9 -3 9 -2.44140625 6.8359375 C-1.62760417 4.55729167 -0.81380208 2.27864583 0 0 Z " fill="#FFFFFF" transform="translate(187,162)"/>
<path d="M0 0 C2.875 -0.125 2.875 -0.125 6 0 C6.66 0.66 7.32 1.32 8 2 C8.66 1.34 9.32 0.68 10 0 C13.125 -0.125 13.125 -0.125 16 0 C14.53255528 4.53573824 12.49067411 7.73697855 9 11 C6.14536247 11.51372883 3.92856248 11.29781991 1 11 C0.67 7.37 0.34 3.74 0 0 Z " fill="#FFFFFF" transform="translate(164,162)"/>
<path d="M0 0 C3.96 0 7.92 0 12 0 C12 1.32 12 2.64 12 4 C11.38125 4.04125 10.7625 4.0825 10.125 4.125 C9.42375 4.41375 8.7225 4.7025 8 5 C6.6954344 7.99615946 6.6954344 7.99615946 6 11 C4.02 11 2.04 11 0 11 C0.33 8.69 0.66 6.38 1 4 C0.34 4 -0.32 4 -1 4 C-0.67 2.68 -0.34 1.36 0 0 Z " fill="#FFFFFF" transform="translate(317,162)"/>
<path d="M0 0 C3.96 0 7.92 0 12 0 C12 1.32 12 2.64 12 4 C10.68 4 9.36 4 8 4 C7.67 6.31 7.34 8.62 7 11 C4.69 11 2.38 11 0 11 C0.66 8.69 1.32 6.38 2 4 C1.01 4 0.02 4 -1 4 C-0.67 2.68 -0.34 1.36 0 0 Z " fill="#FFFFFF" transform="translate(228,162)"/>
<path d="M0 0 C0.33 0.66 0.66 1.32 1 2 C0.22265625 3.7265625 0.22265625 3.7265625 -0.9375 5.625 C-1.618125 6.73875 -2.29875 7.8525 -3 9 C-0.525 9.99 -0.525 9.99 2 11 C2.125 13.875 2.125 13.875 2 17 C0 19 0 19 -2.4375 19.4375 C-5 19 -5 19 -6.9375 16.8125 C-8 14 -8 14 -7.26171875 11.625 C-5.98371 8.96610874 -4.54380106 6.61814502 -2.875 4.1875 C-2.33617187 3.39730469 -1.79734375 2.60710937 -1.2421875 1.79296875 C-0.83226562 1.20128906 -0.42234375 0.60960937 0 0 Z " fill="#A4A4A4" transform="translate(398,139)"/>
<path d="M0 0 C1.2065625 0.0309375 1.2065625 0.0309375 2.4375 0.0625 C3.57393966 3.47181897 3.30497764 4.06585456 2 7.25 C1.71253906 7.96542969 1.42507812 8.68085938 1.12890625 9.41796875 C0.90074219 9.96066406 0.67257813 10.50335938 0.4375 11.0625 C-1.5425 11.0625 -3.5225 11.0625 -5.5625 11.0625 C-5.25467504 9.41578588 -4.94110766 7.77014424 -4.625 6.125 C-4.45097656 5.20847656 -4.27695313 4.29195312 -4.09765625 3.34765625 C-3.35353878 0.17022035 -3.31733379 0.08091058 0 0 Z " fill="#FFFFFF" transform="translate(128.5625,161.9375)"/>
<path d="M0 0 C5.94 0 11.88 0 18 0 C19.10191901 4.40767604 18.58706842 5.8922935 17 10 C16.67 10 16.34 10 16 10 C16.33 7.36 16.66 4.72 17 2 C11.39 2 5.78 2 0 2 C-0.33 3.65 -0.66 5.3 -1 7 C-1.33 6.01 -1.66 5.02 -2 4 C-1.34 2.68 -0.68 1.36 0 0 Z " fill="#ACACAC" transform="translate(343,110)"/>
<path d="M0 0 C0.66 0.33 1.32 0.66 2 1 C-5.23280802 7.13216332 -5.23280802 7.13216332 -10.1328125 7.09765625 C-10.93847656 7.09443359 -11.74414062 7.09121094 -12.57421875 7.08789062 C-13.41597656 7.07951172 -14.25773437 7.07113281 -15.125 7.0625 C-15.97449219 7.05798828 -16.82398438 7.05347656 -17.69921875 7.04882812 C-19.79950909 7.03702874 -21.8997633 7.01909306 -24 7 C-23.67 5.02 -23.34 3.04 -23 1 C-22.67 2.32 -22.34 3.64 -22 5 C-19.26855334 4.93976964 -16.54240803 4.85267847 -13.8125 4.75 C-12.65911133 4.72873047 -12.65911133 4.72873047 -11.48242188 4.70703125 C-6.42257471 4.48987043 -3.72653344 3.73400144 0 0 Z " fill="#AEAEAE" transform="translate(380,166)"/>
<path d="M0 0 C0.33 0.66 0.66 1.32 1 2 C0.07421875 4.34765625 0.07421875 4.34765625 -1.3125 7.0625 C-1.98732422 8.41021484 -1.98732422 8.41021484 -2.67578125 9.78515625 C-4 12 -4 12 -6 13 C-6.65213292 15.02463255 -6.65213292 15.02463255 -7 17 C-7.74609375 14.89453125 -7.74609375 14.89453125 -8 12 C-6.34765625 8.88671875 -6.34765625 8.88671875 -4.0625 5.6875 C-3.31097656 4.61886719 -2.55945313 3.55023438 -1.78515625 2.44921875 C-1.19605469 1.64097656 -0.60695313 0.83273438 0 0 Z " fill="#B2B2B2" transform="translate(398,139)"/>
<path d="M0 0 C0.125 2.875 0.125 2.875 0 6 C-2 8 -2 8 -4.625 8.125 C-5.40875 8.08375 -6.1925 8.0425 -7 8 C-6.67 7.01 -6.34 6.02 -6 5 C-5.01 5 -4.02 5 -3 5 C-3.33 3.68 -3.66 2.36 -4 1 C-1 0 -1 0 0 0 Z " fill="#B1B1B1" transform="translate(400,150)"/>
<path d="M0 0 C2.64 0.33 5.28 0.66 8 1 C7.67 1.66 7.34 2.32 7 3 C4.69 3 2.38 3 0 3 C0 2.01 0 1.02 0 0 Z " fill="#B0B0B0" transform="translate(261,131)"/>
</svg>
