<?xml version="1.0" encoding="UTF-8"?>
<svg version="1.1" xmlns="http://www.w3.org/2000/svg" width="404" height="256">
<path d="M0 0 C1 1 1 1 1.09765625 4.16015625 C1.08605469 5.44792969 1.07445312 6.73570313 1.0625 8.0625 C1.05347656 9.35285156 1.04445312 10.64320312 1.03515625 11.97265625 C1.02355469 12.97167969 1.01195312 13.97070312 1 15 C-0.32 15 -1.64 15 -3 15 C-3.34933594 14.36191406 -3.69867188 13.72382812 -4.05859375 13.06640625 C-4.74115234 11.82697266 -4.74115234 11.82697266 -5.4375 10.5625 C-5.88996094 9.73878906 -6.34242187 8.91507813 -6.80859375 8.06640625 C-7.83662397 6.07691202 -7.83662397 6.07691202 -9 5 C-11.87237733 4.41557037 -11.87237733 4.41557037 -15 5 C-19.84845353 9.84845353 -19.80193589 15.40986676 -20 22 C-20.02835938 22.84046875 -20.05671875 23.6809375 -20.0859375 24.546875 C-20.4786604 36.18671779 -20.4786604 36.18671779 -17 47 C-15.35 47 -13.7 47 -12 47 C-10.04781556 43.72311897 -9.72936434 41.22930273 -9.75 37.4375 C-9.74484375 36.48746094 -9.7396875 35.53742188 -9.734375 34.55859375 C-9.82423925 31.75900727 -9.82423925 31.75900727 -12 29 C-12.99 28.67 -13.98 28.34 -15 28 C-15 26.68 -15 25.36 -15 24 C-9.72 24 -4.44 24 1 24 C1 37.2 1 50.4 1 64 C-3 63 -3 63 -4.37890625 61.22265625 C-4.76949219 60.50980469 -5.16007812 59.79695313 -5.5625 59.0625 C-7.25438487 56.00601291 -7.97510454 55.01659697 -11 53 C-13.29714187 52.97360171 -13.29714187 52.97360171 -15.6875 53.375 C-16.49574219 53.48585937 -17.30398437 53.59671875 -18.13671875 53.7109375 C-19.05904297 53.85402344 -19.05904297 53.85402344 -20 54 C-20.79953138 57.28696233 -21.09658936 58.71023192 -20 62 C-19.34 62.33 -18.68 62.66 -18 63 C-18 63.66 -18 64.32 -18 65 C-17.278125 65.27328125 -16.55625 65.5465625 -15.8125 65.828125 C-8.61893811 68.82544245 -2.45484375 72.53329133 2 79 C3.55417619 83.66252858 3.54448802 87.48753327 1.875 92.125 C-0.92015826 96.41090933 -4.04775717 99.34925239 -9 101 C-10.70016844 101.08178114 -12.40336297 101.10749501 -14.10546875 101.09765625 C-15.08837891 101.09443359 -16.07128906 101.09121094 -17.08398438 101.08789062 C-18.10814453 101.07951172 -19.13230469 101.07113281 -20.1875 101.0625 C-21.22326172 101.05798828 -22.25902344 101.05347656 -23.32617188 101.04882812 C-25.88417266 101.0370401 -28.44205733 101.02058515 -31 101 C-32.54897985 97.9020403 -31.83239539 94.73783448 -31.5625 91.375 C-31.51029297 90.66859375 -31.45808594 89.9621875 -31.40429688 89.234375 C-31.27458793 87.48920013 -31.13795046 85.74454275 -31 84 C-29.09375 84.29296875 -29.09375 84.29296875 -27 85 C-25.95281202 87.31254012 -24.95653635 89.6485148 -24 92 C-21.79816251 94.88516636 -20.52915397 95.83112107 -17.0625 96.9375 C-13.29039771 97.01448168 -11.75564842 96.59355145 -9 94 C-8.24988633 90.54271642 -8.24988633 90.54271642 -9 87 C-12.48079657 82.76176848 -17.22535339 80.22554656 -21.8671875 77.44335938 C-26.30749742 74.69436922 -30.06018155 71.95298146 -31.71484375 66.75390625 C-32.23745929 61.61026911 -31.9979349 58.44521382 -29 54 C-26.8125 51.625 -26.8125 51.625 -25 50 C-25.78375 49.236875 -26.5675 48.47375 -27.375 47.6875 C-33.33072678 41.5899702 -34.03418534 34.28317443 -34.3125 26 C-34.09853037 18.08312354 -32.48208743 10.15693073 -26.765625 4.37109375 C-19.23759165 -1.47479055 -9.04030217 -0.55963775 0 0 Z " fill="#888888" transform="translate(115,77)"/>
<path d="M0 0 C3.63 0 7.26 0 11 0 C11.495 5.445 11.495 5.445 12 11 C13.32 10.34 14.64 9.68 16 9 C18.25390625 8.91796875 18.25390625 8.91796875 20.5625 9.1875 C21.32691406 9.26355469 22.09132812 9.33960938 22.87890625 9.41796875 C25.41474463 10.11380654 26.38742428 10.94629414 28 13 C29.17942085 16.53826255 29.11289189 19.34148726 29.09765625 23.07421875 C29.0962413 23.7580513 29.09482635 24.44188385 29.09336853 25.1464386 C29.08777876 27.32683722 29.07522822 29.50713251 29.0625 31.6875 C29.05748367 33.16731622 29.052921 34.64713406 29.04882812 36.12695312 C29.03781271 39.75133557 29.02055512 43.3756577 29 47 C25.37 47 21.74 47 18 47 C17.97494385 46.10168457 17.9498877 45.20336914 17.92407227 44.27783203 C17.82901307 40.94925131 17.72977579 37.62085006 17.62768555 34.29248047 C17.58433769 32.8511238 17.54266248 31.40971582 17.50268555 29.96826172 C17.44497912 27.89795459 17.38128629 25.82790568 17.31640625 23.7578125 C17.26141968 21.88826904 17.26141968 21.88826904 17.20532227 19.98095703 C17.19710521 17.07363058 17.19710521 17.07363058 16 15 C12.88214887 15.64644661 12.88214887 15.64644661 12 18 C11.84530633 20.17674783 11.74997894 22.3578348 11.68359375 24.5390625 C11.62075195 26.49199219 11.62075195 26.49199219 11.55664062 28.484375 C11.51682701 29.86458045 11.47711478 31.24478883 11.4375 32.625 C11.39430593 34.01303415 11.35069135 35.40105528 11.30664062 36.7890625 C11.20028 40.19260256 11.09825286 43.59621778 11 47 C7.37 47 3.74 47 0 47 C-0.33 45.02 -0.66 43.04 -1 41 C-1.53625 41.78375 -2.0725 42.5675 -2.625 43.375 C-5.8338448 46.92161794 -8.46346262 47.74498008 -13.17578125 48.21875 C-18.18121662 48.42064991 -21.83434361 48.02956828 -26 45 C-30.2261911 40.94151489 -31.29036658 36.82314902 -31.48486328 31.0144043 C-31.4898584 30.30840088 -31.49485352 29.60239746 -31.5 28.875 C-31.50628418 28.1941333 -31.51256836 27.5132666 -31.51904297 26.81176758 C-31.38513912 21.46796379 -30.11605149 17.37562048 -26.53515625 13.35546875 C-21.17940528 9.10780419 -17.78484829 8.64905957 -11 9 C-7.5625 10 -7.5625 10 -5 11 C-5 14.3 -5 17.6 -5 21 C-6.32 21 -7.64 21 -9 21 C-10.32 18.69 -11.64 16.38 -13 14 C-14.32 14 -15.64 14 -17 14 C-20.33959946 22.76644858 -19.73540968 32.8890992 -18 42 C-14.5822878 43.1392374 -12.94837754 42.98460383 -9.4375 41.9375 C-5.19574164 39.54669074 -2.96095222 36.90180954 -1.41821289 32.24316406 C-0.84562594 29.17198548 -0.77620616 26.16923609 -0.68359375 23.046875 C-0.66281265 22.38665344 -0.64203156 21.72643188 -0.62062073 21.04620361 C-0.55549853 18.94756985 -0.49641498 16.84881628 -0.4375 14.75 C-0.39427921 13.32290453 -0.3506638 11.89582095 -0.30664062 10.46875 C-0.19985589 6.97929278 -0.09848434 3.48970247 0 0 Z " fill="#FAFAFA" transform="translate(185,131)"/>
<path d="M0 0 C2.9375 1.5 2.9375 1.5 5 3 C5.680625 2.505 6.36125 2.01 7.0625 1.5 C10.72431906 -0.36986505 12.93214595 -0.50848176 17 0 C19.75329021 1.79562405 21.52627461 3.05254922 23 6 C23.08639869 8.40838678 23.11567764 10.78733881 23.09765625 13.1953125 C23.0962413 13.90275604 23.09482635 14.61019958 23.09336853 15.33908081 C23.087766 17.60109669 23.07521318 19.86301398 23.0625 22.125 C23.05748532 23.65755065 23.05292236 25.19010286 23.04882812 26.72265625 C23.03779577 30.48180888 23.02052952 34.24088772 23 38 C19.37 38 15.74 38 12 38 C11.67 27.77 11.34 17.54 11 7 C9.68 6.67 8.36 6.34 7 6 C6.67 16.56 6.34 27.12 6 38 C2.37 38 -1.26 38 -5 38 C-5.495 22.655 -5.495 22.655 -6 7 C-7.32 6.67 -8.64 6.34 -10 6 C-10.33 16.56 -10.66 27.12 -11 38 C-14.63 38 -18.26 38 -22 38 C-22 25.79 -22 13.58 -22 1 C-18 1 -14 1 -10 1 C-6.42365687 -0.19211438 -3.75935317 -0.25926574 0 0 Z " fill="#F7F7F7" transform="translate(232,87)"/>
<path d="M0 0 C3.63 0 7.26 0 11 0 C11 15.51 11 31.02 11 47 C7 47 3 47 -1 47 C-1.99 47.495 -1.99 47.495 -3 48 C-7.69187914 48.12904972 -11.09835899 47.65225095 -14.9375 44.875 C-19.894779 37.96485352 -19.66204363 30.2500821 -19 22 C-17.93237392 17.05930704 -16.049686 13.16381719 -12 10 C-8.50615721 8.83538574 -5.66344611 8.86431681 -2 9 C-1.67 9.33 -1.34 9.66 -1 10 C-0.67 6.7 -0.34 3.4 0 0 Z M-5 13 C-7.27038301 16.40557452 -7.25671558 17.65719174 -7.265625 21.65625 C-7.26820313 22.76097656 -7.27078125 23.86570312 -7.2734375 25.00390625 C-7.26570312 26.15761719 -7.25796875 27.31132813 -7.25 28.5 C-7.25773438 29.65371094 -7.26546875 30.80742188 -7.2734375 31.99609375 C-7.27085937 33.10082031 -7.26828125 34.20554687 -7.265625 35.34375 C-7.26336914 36.35630859 -7.26111328 37.36886719 -7.25878906 38.41210938 C-7.18064956 41.23727716 -7.18064956 41.23727716 -5 44 C-3.00016466 43.20882096 -3.00016466 43.20882096 -1 42 C0.52671005 37.41986984 0.22541283 32.86007061 0.25 28.0625 C0.270625 27.06025391 0.29125 26.05800781 0.3125 25.02539062 C0.31765625 24.05923828 0.3228125 23.09308594 0.328125 22.09765625 C0.3374707 21.21601807 0.34681641 20.33437988 0.35644531 19.42602539 C-0.07261526 16.50576858 -0.97636965 15.12062419 -3 13 C-3.66 13 -4.32 13 -5 13 Z " fill="#F7F7F7" transform="translate(192,78)"/>
<path d="M0 0 C2.77791029 1.38895514 3.70536991 2.41239059 5.08935547 5.17260742 C6.19232024 8.59712083 6.22592164 11.45420783 6.1953125 15.05078125 C6.1924826 15.70958786 6.18965271 16.36839447 6.18673706 17.04716492 C6.17560924 19.13580062 6.15051948 21.22399556 6.125 23.3125 C6.11496059 24.73501982 6.10583642 26.1575464 6.09765625 27.58007812 C6.07569447 31.05352681 6.04121646 34.52672033 6 38 C2.37 38 -1.26 38 -5 38 C-5.02505615 37.13721436 -5.0501123 36.27442871 -5.07592773 35.38549805 C-5.17111385 32.18176231 -5.27034444 28.97818463 -5.37231445 25.7746582 C-5.41560218 24.38864017 -5.45728164 23.00257094 -5.49731445 21.61645508 C-5.55516584 19.62308202 -5.61929776 17.62989435 -5.68359375 15.63671875 C-5.72025146 14.43748779 -5.75690918 13.23825684 -5.79467773 12.00268555 C-5.87733025 8.95005651 -5.87733025 8.95005651 -7 6 C-7.99 6 -8.98 6 -10 6 C-11.44962183 8.89924366 -11.22126481 11.52300355 -11.31640625 14.7578125 C-11.33718735 15.42086395 -11.35796844 16.08391541 -11.37937927 16.76705933 C-11.44479231 18.88626694 -11.50372105 21.005599 -11.5625 23.125 C-11.60569309 24.56121081 -11.64930764 25.99740902 -11.69335938 27.43359375 C-11.80046499 30.95559594 -11.90175575 34.47773825 -12 38 C-15.63 38 -19.26 38 -23 38 C-23 25.79 -23 13.58 -23 1 C-19.04 1 -15.08 1 -11 1 C-7.2932809 -0.23557303 -3.85647947 -0.42849772 0 0 Z " fill="#F4F4F4" transform="translate(317,87)"/>
<path d="M0 0 C3.32981865 3.07367876 4.34178655 4.89766155 4.66455078 9.45800781 C4.65407715 10.69389648 4.64360352 11.92978516 4.6328125 13.203125 C4.6299826 13.86334656 4.62715271 14.52356812 4.62423706 15.20379639 C4.61308415 17.30271897 4.58798946 19.40120742 4.5625 21.5 C4.55246384 22.92707715 4.5433391 24.35416102 4.53515625 25.78125 C4.51316111 29.27097328 4.47866536 32.76044423 4.4375 36.25 C3.60605469 36.23839844 2.77460938 36.22679687 1.91796875 36.21484375 C0.28794922 36.20130859 0.28794922 36.20130859 -1.375 36.1875 C-2.45394531 36.17589844 -3.53289062 36.16429687 -4.64453125 36.15234375 C-7.62762169 36.11375234 -7.62762169 36.11375234 -10.5625 37.25 C-18.4682187 37.68122102 -18.4682187 37.68122102 -21.5625 35.25 C-23.90761335 31.85362894 -24.82292833 29.25485925 -24.5 25.1875 C-23.76041664 21.22544627 -22.65973734 18.96952547 -19.5625 16.25 C-11.44446721 12.25 -11.44446721 12.25 -7.5625 12.25 C-7.5625 8.95 -7.5625 5.65 -7.5625 2.25 C-10.9931283 2.80032098 -10.9931283 2.80032098 -14.5625 4.25 C-16.55675024 7.23434837 -16.55675024 7.23434837 -17.5625 10.25 C-18.8825 10.25 -20.2025 10.25 -21.5625 10.25 C-21.5625 6.95 -21.5625 3.65 -21.5625 0.25 C-14.43562873 -2.28399867 -6.96192556 -3.41989326 0 0 Z M-10.125 16.5 C-13.61101741 20.43294271 -12.95117537 23.68049677 -12.73828125 28.765625 C-12.68027344 29.58546875 -12.62226563 30.4053125 -12.5625 31.25 C-11.5725 31.58 -10.5825 31.91 -9.5625 32.25 C-8.9025 31.92 -8.2425 31.59 -7.5625 31.25 C-6.42172343 27.82767028 -6.46434883 25.16326783 -6.5 21.5625 C-6.50902344 20.38300781 -6.51804687 19.20351562 -6.52734375 17.98828125 C-6.53894531 17.08464844 -6.55054688 16.18101563 -6.5625 15.25 C-7.88789254 15.17692939 -7.88789254 15.17692939 -10.125 16.5 Z " fill="#F7F7F7" transform="translate(283.5625,88.75)"/>
<path d="M0 0 C5.51609833 4.72808428 6.88361889 9.1611779 7.625 16.25 C7.6336467 22.14704676 6.95715741 27.25176389 3.625 32.25 C-0.76871874 36.31418983 -4.20664815 37.64173138 -10.25 37.51953125 C-14.67654696 36.95807585 -17.78463709 35.07492972 -20.69921875 31.73046875 C-24.69666735 25.29247258 -24.14668888 17.52933321 -23.375 10.25 C-22.18827862 5.56631267 -20.20238055 2.46704707 -16.1875 -0.25 C-10.63844224 -2.91735824 -5.41346215 -2.80698038 0 0 Z M-8.375 1.25 C-11.70402848 3.85532663 -11.87331231 6.15603917 -12.375 10.25 C-12.49130494 12.90878497 -12.55998564 15.52982289 -12.5625 18.1875 C-12.57474609 18.86490234 -12.58699219 19.54230469 -12.59960938 20.24023438 C-12.61326957 24.98942867 -11.84524589 28.79277234 -10.375 33.25 C-8.725 32.92 -7.075 32.59 -5.375 32.25 C-3.99720542 27.4665446 -4.1908691 22.7549726 -4.1875 17.8125 C-4.17525391 16.87083984 -4.16300781 15.92917969 -4.15039062 14.95898438 C-4.06536181 8.35024095 -4.06536181 8.35024095 -6.375 2.25 C-7.035 1.92 -7.695 1.59 -8.375 1.25 Z " fill="#F8F8F8" transform="translate(144.375,88.75)"/>
<path d="M0 0 C2.18269275 4.0082094 2.23366305 7.54459114 2.1953125 12.05078125 C2.1924826 12.70958786 2.18965271 13.36839447 2.18673706 14.04716492 C2.17560924 16.13580062 2.15051948 18.22399556 2.125 20.3125 C2.11496059 21.73501982 2.10583642 23.1575464 2.09765625 24.58007812 C2.07569447 28.05352681 2.04121646 31.52672033 2 35 C1.15695313 34.98839844 0.31390625 34.97679687 -0.5546875 34.96484375 C-1.65039062 34.95582031 -2.74609375 34.94679687 -3.875 34.9375 C-4.96554688 34.92589844 -6.05609375 34.91429687 -7.1796875 34.90234375 C-9.95177546 34.80255697 -9.95177546 34.80255697 -12 36 C-19.08958838 36.5811138 -19.08958838 36.5811138 -22.9375 34.125 C-26.44925825 30.50682483 -26.52844136 27.44314488 -26.46484375 22.5390625 C-25.78365237 18.81826926 -24.15214733 17.41097513 -21.15625 15.25 C-17.56785371 13.16977027 -13.86734743 11.4908142 -10 10 C-10 7.36 -10 4.72 -10 2 C-12.86734521 2.0311941 -12.86734521 2.0311941 -16 3 C-17.3703055 4.97485205 -18.70672372 6.97386717 -20 9 C-21.32 9 -22.64 9 -24 9 C-24 5.7 -24 2.4 -24 -1 C-15.39980956 -3.15004761 -8.02191815 -4.65271253 0 0 Z M-12.5625 16.375 C-14.98158289 19.10961544 -15.13656613 20.93763308 -15.125 24.5 C-15.12757813 25.2940625 -15.13015625 26.088125 -15.1328125 26.90625 C-15.13277996 29.05918534 -15.13277996 29.05918534 -14 31 C-12.02463255 30.65213292 -12.02463255 30.65213292 -10 30 C-8.55792059 27.11584117 -8.90605113 24.58278472 -8.9375 21.375 C-8.94652344 20.18648437 -8.95554688 18.99796875 -8.96484375 17.7734375 C-8.97644531 16.85820312 -8.98804688 15.94296875 -9 15 C-11.09665437 14.7797907 -11.09665437 14.7797907 -12.5625 16.375 Z " fill="#FCFCFC" transform="translate(147,143)"/>
<path d="M0 0 C1.11181641 -0.00386719 1.11181641 -0.00386719 2.24609375 -0.0078125 C4.5625 0.125 4.5625 0.125 9.5625 1.125 C9.5625 4.755 9.5625 8.385 9.5625 12.125 C8.2425 11.795 6.9225 11.465 5.5625 11.125 C4.3125 8.0625 4.3125 8.0625 3.5625 5.125 C-0.53973585 4.10959888 -0.53973585 4.10959888 -4.4375 5.125 C-4.38459652 7.4987721 -4.38459652 7.4987721 -3.4375 10.125 C-0.83447152 12.26014144 -0.83447152 12.26014144 2.375 14.0625 C7.10931049 16.8707938 9.86838846 19.27942971 12.5625 24.125 C13.30639214 28.75366222 12.97510907 30.50019198 10.375 34.4375 C6.19852001 38.42835865 2.77463463 39.40074927 -2.9375 39.3125 C-3.8553125 39.30605469 -4.773125 39.29960937 -5.71875 39.29296875 C-8.4375 39.125 -8.4375 39.125 -13.4375 38.125 C-13.4375 34.165 -13.4375 30.205 -13.4375 26.125 C-12.1175 26.125 -10.7975 26.125 -9.4375 26.125 C-8.963125 27.259375 -8.48875 28.39375 -8 29.5625 C-6.80127917 32.88240166 -6.80127917 32.88240166 -5.4375 34.125 C-3.10452567 34.16592937 -0.77044775 34.16741723 1.5625 34.125 C1.8925 32.475 2.2225 30.825 2.5625 29.125 C1.81484375 28.59390625 1.0671875 28.0628125 0.296875 27.515625 C-1.18039063 26.45601562 -1.18039063 26.45601562 -2.6875 25.375 C-3.66203125 24.67890625 -4.6365625 23.9828125 -5.640625 23.265625 C-11.677319 18.64536199 -11.677319 18.64536199 -13.4375 15.125 C-13.90526468 10.44735317 -14.16719391 7.4623883 -11.1875 3.6875 C-7.52048668 0.27051031 -4.88761185 -0.01694146 0 0 Z " fill="#F8F8F8" transform="translate(232.4375,139.875)"/>
<path d="M0 0 C0 3.3 0 6.6 0 10 C-1.32 10 -2.64 10 -4 10 C-5.98 6.535 -5.98 6.535 -8 3 C-9.32 3 -10.64 3 -12 3 C-15.33959946 11.76644858 -14.73540968 21.8890992 -13 31 C-9.5822878 32.1392374 -7.94837754 31.98460383 -4.4375 30.9375 C-0.55135563 28.74712772 0.83711948 26.84512092 3 23 C3.66 22.01 4.32 21.02 5 20 C6.32286246 24.96073422 6.08893197 29.91111512 6 35 C8.97 35 11.94 35 15 35 C15 25.76 15 16.52 15 7 C15.33 7 15.66 7 16 7 C16 16.57 16 26.14 16 36 C12.37 36 8.74 36 5 36 C4.67 34.02 4.34 32.04 4 30 C3.46375 30.78375 2.9275 31.5675 2.375 32.375 C-0.8338448 35.92161794 -3.46346262 36.74498008 -8.17578125 37.21875 C-13.18121662 37.42064991 -16.83434361 37.02956828 -21 34 C-25.2261911 29.94151489 -26.29036658 25.82314902 -26.48486328 20.0144043 C-26.4898584 19.30840088 -26.49485352 18.60239746 -26.5 17.875 C-26.50628418 17.1941333 -26.51256836 16.5132666 -26.51904297 15.81176758 C-26.38513912 10.46796379 -25.11605149 6.37562048 -21.53515625 2.35546875 C-14.67785697 -3.08307896 -8.16862984 -3.18775799 0 0 Z " fill="#F6F6F6" transform="translate(180,142)"/>
<path d="M0 0 C3.63 0 7.26 0 11 0 C11 15.51 11 31.02 11 47 C7.37 47 3.74 47 0 47 C0 31.49 0 15.98 0 0 Z " fill="#F9F9F9" transform="translate(157,78)"/>
<path d="M0 0 C2.97 0 5.94 0 9 0 C9 14.85 9 29.7 9 45 C6.36 45 3.72 45 1 45 C1 44.01 1 43.02 1 42 C-0.485 42.495 -0.485 42.495 -2 43 C-1.98952637 42.20303711 -1.97905273 41.40607422 -1.96826172 40.58496094 C-1.92668228 36.97333938 -1.90066739 33.36176821 -1.875 29.75 C-1.85824219 28.49574219 -1.84148437 27.24148437 -1.82421875 25.94921875 C-1.81777344 24.74394531 -1.81132812 23.53867188 -1.8046875 22.296875 C-1.79421387 21.18666992 -1.78374023 20.07646484 -1.77294922 18.93261719 C-1.99903379 16.01247974 -2.61407121 14.51700562 -4 12 C-4 11.01 -4 10.02 -4 9 C-3.34 9 -2.68 9 -2 9 C-1.67 9.66 -1.34 10.32 -1 11 C-0.67 7.37 -0.34 3.74 0 0 Z " fill="#FCFCFC" transform="translate(193,79)"/>
<path d="M0 0 C2.45286296 3.67929445 2.23228878 5.47377907 2.1953125 9.85546875 C2.1924826 10.51710526 2.18965271 11.17874176 2.18673706 11.86042786 C2.17555918 13.96963737 2.15045981 16.07841925 2.125 18.1875 C2.11496707 19.61913448 2.10584176 21.05077564 2.09765625 22.48242188 C2.07562795 25.98841977 2.04111485 29.49416813 2 33 C1.15695313 32.98839844 0.31390625 32.97679687 -0.5546875 32.96484375 C-1.65039062 32.95582031 -2.74609375 32.94679687 -3.875 32.9375 C-4.96554688 32.92589844 -6.05609375 32.91429687 -7.1796875 32.90234375 C-9.95177546 32.80255697 -9.95177546 32.80255697 -12 34 C-19.08958838 34.5811138 -19.08958838 34.5811138 -22.9375 32.125 C-26.44872268 28.50737664 -26.5316013 25.44313035 -26.4609375 20.5390625 C-25.78739421 16.82886642 -24.2116452 15.41041912 -21.22265625 13.25 C-17.31607134 11.05297509 -13.2341504 9.44830094 -9 8 C-9 8.99 -9 9.98 -9 11 C-8.67 11 -8.34 11 -8 11 C-8 15.62 -8 20.24 -8 25 C-8.33 25 -8.66 25 -9 25 C-9 21.04 -9 17.08 -9 13 C-10.32 13.33 -11.64 13.66 -13 14 C-14.00109515 17.31070838 -14.10356134 20.30084769 -14.0625 23.75 C-14.04896484 25.22726563 -14.04896484 25.22726563 -14.03515625 26.734375 C-14.02355469 27.48203125 -14.01195312 28.2296875 -14 29 C-10.9254644 28.2236068 -10.9254644 28.2236068 -9 26 C-9 26.99 -9 27.98 -9 29 C-8.34 29 -7.68 29 -7 29 C-7 29.99 -7 30.98 -7 32 C-4.36 32 -1.72 32 1 32 C0.67 21.44 0.34 10.88 0 0 Z " fill="#F6F6F6" transform="translate(147,145)"/>
<path d="M0 0 C2.64 0 5.28 0 8 0 C8 0.99 8 1.98 8 3 C9.32 2.34 10.64 1.68 12 1 C12.33 1.99 12.66 2.98 13 4 C12.34 4 11.68 4 11 4 C9.8992924 7.3021228 9.79372928 9.94083279 9.68359375 13.41796875 C9.64169922 14.67158203 9.59980469 15.92519531 9.55664062 17.21679688 C9.51732422 18.52712891 9.47800781 19.83746094 9.4375 21.1875 C9.39429008 22.52279978 9.350675 23.85808652 9.30664062 25.19335938 C9.20043498 28.46213297 9.09839003 31.73098333 9 35 C6.03 35 3.06 35 0 35 C0 23.45 0 11.9 0 0 Z " fill="#FEFEFE" transform="translate(211,89)"/>
<path d="M0 0 C2.97 0 5.94 0 9 0 C9 0.66 9 1.32 9 2 C9.99 1.67 10.98 1.34 12 1 C11.67 2.32 11.34 3.64 11 5 C10.34 5 9.68 5 9 5 C9 14.9 9 24.8 9 35 C6.03 35 3.06 35 0 35 C0 23.45 0 11.9 0 0 Z " fill="#FEFEFE" transform="translate(295,89)"/>
<path d="M0 0 C1.32 0 2.64 0 4 0 C4.474375 1.134375 4.94875 2.26875 5.4375 3.4375 C6.63622083 6.75740166 6.63622083 6.75740166 8 8 C12.65088715 8.30523962 12.65088715 8.30523962 17 7 C16.67 7.99 16.34 8.98 16 10 C16.99 10.66 17.98 11.32 19 12 C15.94583187 13.01805604 13.82063039 13.13375515 10.625 13.125 C9.22121094 13.12886719 9.22121094 13.12886719 7.7890625 13.1328125 C5 13 5 13 0 12 C0 8.04 0 4.08 0 0 Z " fill="#F2F2F2" transform="translate(219,166)"/>
<path d="M0 0 C3.63 0 7.26 0 11 0 C11 15.51 11 31.02 11 47 C7 47 3 47 -1 47 C-1.99 47.495 -1.99 47.495 -3 48 C-4.99960012 48.039992 -7.00047242 48.04346799 -9 48 C-9 47.67 -9 47.34 -9 47 C-7.35 47 -5.7 47 -4 47 C-4.495 45.515 -4.495 45.515 -5 44 C-3.1875 42.9375 -3.1875 42.9375 -1 42 C-0.01 42.33 0.98 42.66 2 43 C2 43.99 2 44.98 2 46 C4.64 46 7.28 46 10 46 C10 31.15 10 16.3 10 1 C7.03 1 4.06 1 1 1 C1 4.96 1 8.92 1 13 C0.34 12.34 -0.32 11.68 -1 11 C-0.96658559 7.29100027 -0.42912195 3.69044879 0 0 Z " fill="#ECECEC" transform="translate(192,78)"/>
<path d="M0 0 C1.11181641 -0.00386719 1.11181641 -0.00386719 2.24609375 -0.0078125 C4.5625 0.125 4.5625 0.125 9.5625 1.125 C9.5625 4.755 9.5625 8.385 9.5625 12.125 C8.2425 11.795 6.9225 11.465 5.5625 11.125 C4.3125 8.0625 4.3125 8.0625 3.5625 5.125 C0.9225 4.795 -1.7175 4.465 -4.4375 4.125 C-4.4375 3.465 -4.4375 2.805 -4.4375 2.125 C-7.14974618 3.73768692 -9.81102812 5.37401874 -12.4375 7.125 C-11.28576645 4.65699953 -10.38966435 3.07716435 -8.4375 1.125 C-5.59782465 0.17644037 -2.98102595 -0.01033285 0 0 Z " fill="#F5F5F5" transform="translate(232.4375,139.875)"/>
<path d="M0 0 C0 0.33 0 0.66 0 1 C-2.31 1.33 -4.62 1.66 -7 2 C-5.68 2.66 -4.36 3.32 -3 4 C-4.6396875 4.5878125 -4.6396875 4.5878125 -6.3125 5.1875 C-9.99269875 6.72461113 -11.03664073 8.54074796 -13 12 C-14.32 12 -15.64 12 -17 12 C-17 8.7 -17 5.4 -17 2 C-11.11840613 0.52960153 -6.05503233 -0.22018299 0 0 Z " fill="#EAEAEA" transform="translate(140,140)"/>
<path d="M0 0 C-0.66 0.66 -1.32 1.32 -2 2 C-1.01 2.66 -0.02 3.32 1 4 C0.071875 4.20625 -0.85625 4.4125 -1.8125 4.625 C-5.26004095 5.74446192 -5.26004095 5.74446192 -6.875 9.125 C-7.24625 10.07375 -7.6175 11.0225 -8 12 C-9.32 12 -10.64 12 -12 12 C-12 8.7 -12 5.4 -12 2 C-7.8803623 0.70756464 -4.33168317 -0.26252625 0 0 Z " fill="#F5F5F5" transform="translate(274,87)"/>
<path d="M0 0 C0.33 0 0.66 0 1 0 C1 9.57 1 19.14 1 29 C-2.63 29 -6.26 29 -10 29 C-10.33 26.69 -10.66 24.38 -11 22 C-13.46278801 22 -14.85224119 22.85452863 -17 24 C-16.20890398 22.72881136 -15.41709922 21.45806377 -14.625 20.1875 C-14.18414062 19.47980469 -13.74328125 18.77210938 -13.2890625 18.04296875 C-12.21811524 16.34567961 -11.11323761 14.66985642 -10 13 C-8.67713754 17.96073422 -8.91106803 22.91111512 -9 28 C-6.03 28 -3.06 28 0 28 C0 18.76 0 9.52 0 0 Z " fill="#EEEEEE" transform="translate(195,149)"/>
<path d="M0 0 C2.45286296 3.67929445 2.23228878 5.47377907 2.1953125 9.85546875 C2.1924826 10.51710526 2.18965271 11.17874176 2.18673706 11.86042786 C2.17555918 13.96963737 2.15045981 16.07841925 2.125 18.1875 C2.11496707 19.61913448 2.10584176 21.05077564 2.09765625 22.48242188 C2.07733071 25.98857778 2.03817991 29.4938113 2 33 C-2.29 33 -6.58 33 -11 33 C-11 32.01 -11 31.02 -11 30 C-11.99 29.67 -12.98 29.34 -14 29 C-13.01 28.67 -12.02 28.34 -11 28 C-10.34 27.34 -9.68 26.68 -9 26 C-9 26.99 -9 27.98 -9 29 C-8.34 29 -7.68 29 -7 29 C-7 29.99 -7 30.98 -7 32 C-4.36 32 -1.72 32 1 32 C0.67 21.44 0.34 10.88 0 0 Z " fill="#E2E2E2" transform="translate(147,145)"/>
<path d="M0 0 C-0.928125 0.598125 -1.85625 1.19625 -2.8125 1.8125 C-7.44454772 4.73788092 -7.44454772 4.73788092 -9.51171875 9.48046875 C-9.56972656 10.37378906 -9.62773437 11.26710938 -9.6875 12.1875 C-9.75324219 13.08855469 -9.81898438 13.98960938 -9.88671875 14.91796875 C-9.92410156 15.60503906 -9.96148437 16.29210937 -10 17 C-12.27776462 13.58335307 -12.16396569 11.9743804 -11.54296875 8 C-10.48739513 4.11184395 -8.21622687 1.81081792 -4.9375 -0.375 C-3 -1 -3 -1 0 0 Z " fill="#E5E5E5" transform="translate(271,104)"/>
<path d="M0 0 C0.79921875 0.00902344 1.5984375 0.01804688 2.421875 0.02734375 C3.02515625 0.03894531 3.6284375 0.05054688 4.25 0.0625 C2.27 1.0525 2.27 1.0525 0.25 2.0625 C0.58 2.7225 0.91 3.3825 1.25 4.0625 C-0.73 4.0625 -2.71 4.0625 -4.75 4.0625 C-4.75 3.4025 -4.75 2.7425 -4.75 2.0625 C-7.46224618 3.67518692 -10.12352812 5.31151874 -12.75 7.0625 C-11.59826645 4.59449953 -10.70216435 3.01466435 -8.75 1.0625 C-5.80049953 0.06042612 -3.09837394 -0.04556432 0 0 Z " fill="#E1E1E1" transform="translate(232.75,139.9375)"/>
<path d="M0 0 C0.144375 0.639375 0.28875 1.27875 0.4375 1.9375 C0.81007181 3.97545146 0.81007181 3.97545146 2 5 C2.07226502 6.85287502 2.0838122 8.70833878 2.0625 10.5625 C2.05347656 11.57441406 2.04445312 12.58632812 2.03515625 13.62890625 C2.02355469 14.41136719 2.01195312 15.19382813 2 16 C1.67 16 1.34 16 1 16 C0.67 13.69 0.34 11.38 0 9 C-2.46278801 9 -3.85224119 9.85452863 -6 11 C-5.47599609 10.18595703 -5.47599609 10.18595703 -4.94140625 9.35546875 C-4.25884766 8.28232422 -4.25884766 8.28232422 -3.5625 7.1875 C-3.11003906 6.47980469 -2.65757812 5.77210938 -2.19140625 5.04296875 C-0.85913661 2.91865448 -0.85913661 2.91865448 0 0 Z " fill="#E3E3E3" transform="translate(184,162)"/>
<path d="M0 0 C0 0.99 0 1.98 0 3 C0.99 3.66 1.98 4.32 3 5 C-0.01490557 6.00496852 -2.04181692 6.10335303 -5.1875 6.0625 C-6.53908203 6.04896484 -6.53908203 6.04896484 -7.91796875 6.03515625 C-8.60503906 6.02355469 -9.29210937 6.01195312 -10 6 C-8.68 5.34 -7.36 4.68 -6 4 C-6.33 3.34 -6.66 2.68 -7 2 C-4.69 1.34 -2.38 0.68 0 0 Z " fill="#DADADA" transform="translate(235,173)"/>
<path d="M0 0 C0.33 0.99 0.66 1.98 1 3 C-0.59727577 5.84731767 -1.93660751 7.60300014 -5.05078125 8.765625 C-7.01623401 9.25436991 -9.00789288 9.63478036 -11 10 C-10.67 9.34 -10.34 8.68 -10 8 C-8.68 8 -7.36 8 -6 8 C-5.7525 7.4225 -5.505 6.845 -5.25 6.25 C-3.83316683 3.6997003 -2.12372463 1.98214299 0 0 Z " fill="#EDEDED" transform="translate(183,169)"/>
<path d="M0 0 C0.33 0.99 0.66 1.98 1 3 C1.66 3 2.32 3 3 3 C3 3.99 3 4.98 3 6 C5.64 6 8.28 6 11 6 C11 6.33 11 6.66 11 7 C7.04 7 3.08 7 -1 7 C-1 6.01 -1 5.02 -1 4 C-1.99 3.67 -2.98 3.34 -4 3 C-3.01 2.67 -2.02 2.34 -1 2 C-0.67 1.34 -0.34 0.68 0 0 Z " fill="#ECECEC" transform="translate(137,171)"/>
<path d="M0 0 C-0.66 0.66 -1.32 1.32 -2 2 C-1.01 2.66 -0.02 3.32 1 4 C-0.65 4.33 -2.3 4.66 -4 5 C-4 4.01 -4 3.02 -4 2 C-5.98 2 -7.96 2 -10 2 C-10 1.67 -10 1.34 -10 1 C-6.59437148 0.22157062 -3.49234244 -0.09978121 0 0 Z " fill="#D9D9D9" transform="translate(274,87)"/>
<path d="M0 0 C-1.49097658 3.7952131 -3.75700849 5.61042731 -7 8 C-4.18918919 0 -4.18918919 0 0 0 Z " fill="#EBEBEB" transform="translate(182,88)"/>
</svg>
