<?xml version="1.0" encoding="UTF-8"?>
<svg version="1.1" xmlns="http://www.w3.org/2000/svg" width="410" height="256">
<path d="M0 0 C14.31376567 6.87456534 24.48114143 19.97930559 33 33 C26.51779321 47.18763993 14.23277285 61.42779319 0 68 C-19.87337326 74.18699998 -50.14666216 75.61398568 -69.24926758 66.43945312 C-81.80103082 58.79504565 -91.0449178 47.15898743 -99 35 C-81.52907106 -3.23871362 -37.55695771 -12.01822647 0 0 Z " fill="#898989" transform="translate(365,104)"/>
<path d="M0 0 C11.17181309 9.57583979 21.66798082 19.5333954 32 30 C34.81679365 28.72225575 36.81440527 27.41600546 38.9453125 25.1796875 C39.46480469 24.64472656 39.98429687 24.10976562 40.51953125 23.55859375 C41.04933594 23.00300781 41.57914062 22.44742188 42.125 21.875 C44.04571432 19.86216509 45.98429507 17.92167788 48 16 C48.66 16 49.32 16 50 16 C50 15.34 50 14.68 50 14 C50.66 14 51.32 14 52 14 C52.37511719 13.12021484 52.37511719 13.12021484 52.7578125 12.22265625 C54.16439632 9.70584431 55.67693706 8.29133799 57.875 6.4375 C58.55304688 5.85871094 59.23109375 5.27992187 59.9296875 4.68359375 C61.91252068 3.07113884 63.9554344 1.5334242 66 0 C66 21.78 66 43.56 66 66 C44.22 66 22.44 66 0 66 C0 44.22 0 22.44 0 0 Z " fill="#FDFDFD" transform="translate(299,106)"/>
<path d="M0 0 C9.24 0 18.48 0 28 0 C28 0.99 28 1.98 28 3 C26.865625 3.28875 25.73125 3.5775 24.5625 3.875 C23.386875 4.24625 22.21125 4.6175 21 5 C19.68638302 7.62723396 19.78746091 9.72610561 19.68359375 12.6640625 C19.64548584 13.6742041 19.60737793 14.6843457 19.56811523 15.72509766 C19.50346069 17.65554932 19.50346069 17.65554932 19.4375 19.625 C19.293125 23.70875 19.14875 27.7925 19 32 C29.23 32 39.46 32 50 32 C49.87625 27.75125 49.7525 23.5025 49.625 19.125 C49.59100098 17.7858252 49.55700195 16.44665039 49.52197266 15.06689453 C49.4863623 14.01614746 49.45075195 12.96540039 49.4140625 11.8828125 C49.3826416 10.80402832 49.3512207 9.72524414 49.31884766 8.61376953 C49.25323678 5.84238346 49.25323678 5.84238346 47 4 C45.01178687 3.60235737 43.01055661 3.26224651 41 3 C41 2.01 41 1.02 41 0 C50.24 0 59.48 0 69 0 C69 0.99 69 1.98 69 3 C67.865625 3.28875 66.73125 3.5775 65.5625 3.875 C64.386875 4.24625 63.21125 4.6175 62 5 C60.73548989 7.52902022 60.8593041 9.30555522 60.83886719 12.13647461 C60.82925964 13.20776108 60.8196521 14.27904755 60.80975342 15.38279724 C60.8033786 17.12497276 60.8033786 17.12497276 60.796875 18.90234375 C60.78832489 20.68530602 60.78832489 20.68530602 60.77960205 22.50428772 C60.77014324 25.02197374 60.76361458 27.5396722 60.75976562 30.05737305 C60.75004902 33.91802416 60.71902858 37.77814556 60.6875 41.63867188 C60.68097133 44.08072599 60.67572032 46.52278393 60.671875 48.96484375 C60.6595282 50.12426987 60.6471814 51.28369598 60.63446045 52.47825623 C60.63746155 53.55269485 60.64046265 54.62713348 60.64355469 55.73413086 C60.63990906 56.68074081 60.63626343 57.62735077 60.63250732 58.60264587 C61.06808125 61.44413092 61.71140047 62.31194246 64 64 C66.60611077 64.72197162 66.60611077 64.72197162 69 65 C69 65.99 69 66.98 69 68 C59.76 68 50.52 68 41 68 C41 67.01 41 66.02 41 65 C42.134375 64.71125 43.26875 64.4225 44.4375 64.125 C45.613125 63.75375 46.78875 63.3825 48 63 C49.28605661 60.42788678 49.21043941 58.43093034 49.31640625 55.5546875 C49.35451416 54.58515137 49.39262207 53.61561523 49.43188477 52.61669922 C49.47498779 51.38193848 49.51809082 50.14717773 49.5625 48.875 C49.706875 44.95625 49.85125 41.0375 50 37 C39.77 37 29.54 37 19 37 C19.103125 40.898125 19.20625 44.79625 19.3125 48.8125 C19.33739502 50.03815674 19.36229004 51.26381348 19.38793945 52.52661133 C19.42105225 53.4936499 19.45416504 54.46068848 19.48828125 55.45703125 C19.51446533 56.44678955 19.54064941 57.43654785 19.56762695 58.45629883 C20.06236074 61.36687555 20.64360109 62.27656901 23 64 C25.60611077 64.72197162 25.60611077 64.72197162 28 65 C28 65.99 28 66.98 28 68 C19.09 68 10.18 68 1 68 C0.67 67.01 0.34 66.02 0 65 C2.64 64.34 5.28 63.68 8 63 C8.33 43.86 8.66 24.72 9 5 C4.545 4.01 4.545 4.01 0 3 C0 2.01 0 1.02 0 0 Z " fill="#F8F8F8" transform="translate(12,104)"/>
<path d="M0 0 C4.49823356 -0.10002059 8.99585192 -0.17200172 13.49487305 -0.21972656 C15.02037859 -0.23965311 16.54580968 -0.26680485 18.07104492 -0.30175781 C38.06853311 -0.74804242 38.06853311 -0.74804242 46.01904297 5.61621094 C49.63993488 9.15893827 50.93758297 12.77958459 51.16796875 17.796875 C50.68973418 24.06953308 47.54199234 27.94903386 43 32 C43.62648437 32.51949219 44.25296875 33.03898437 44.8984375 33.57421875 C45.71570313 34.27160156 46.53296875 34.96898437 47.375 35.6875 C48.18710938 36.37199219 48.99921875 37.05648437 49.8359375 37.76171875 C52.65698924 40.67952136 53.90163728 43.14422332 54.1171875 47.2109375 C53.49622794 52.75951166 52.36227339 56.48747519 49 61 C39.21689712 68.23949613 26.98752058 67.26167857 15.375 67.125 C13.87891227 67.11494608 12.38281797 67.10582451 10.88671875 67.09765625 C7.25767374 67.07584308 3.62888015 67.04144741 0 67 C0 66.01 0 65.02 0 64 C1.134375 63.71125 2.26875 63.4225 3.4375 63.125 C4.613125 62.75375 5.78875 62.3825 7 62 C8.26942299 59.46115401 8.12701165 57.68949709 8.12939453 54.84765625 C8.13254669 53.77314209 8.13569885 52.69862793 8.13894653 51.59155273 C8.1369223 50.42696533 8.13489807 49.26237793 8.1328125 48.0625 C8.13376923 46.87148682 8.13472595 45.68047363 8.13571167 44.45336914 C8.13639315 41.93147733 8.1345411 39.40958377 8.13037109 36.88769531 C8.12502243 33.01623616 8.13031721 29.14489302 8.13671875 25.2734375 C8.13605796 22.82812474 8.13477679 20.38281206 8.1328125 17.9375 C8.13584885 16.1906189 8.13584885 16.1906189 8.13894653 14.40844727 C8.13579437 13.33393311 8.13264221 12.25941895 8.12939453 11.15234375 C8.12859894 10.20351318 8.12780334 9.25468262 8.12698364 8.27709961 C8.14923834 5.9678775 8.14923834 5.9678775 7 4 C4.6859378 3.26924352 2.35171131 2.59861742 0 2 C0 1.34 0 0.68 0 0 Z M19 5 C18.91262355 6.85369611 18.89301847 8.71067541 18.90234375 10.56640625 C18.90556641 11.69111328 18.90878906 12.81582031 18.91210938 13.97460938 C18.92048828 15.15861328 18.92886719 16.34261719 18.9375 17.5625 C18.94201172 18.75037109 18.94652344 19.93824219 18.95117188 21.16210938 C18.96300325 24.10812226 18.97948713 27.05403681 19 30 C27.50882526 30.53123491 27.50882526 30.53123491 35.625 28.4375 C39.50145066 24.45903748 41 21.00221906 41 15.4375 C39.5521975 10.46067891 37.29657013 7.44355836 32.8125 4.625 C29.30761427 3.84613651 21.75900332 2.24099668 19 5 Z M19 35 C19 43.91 19 52.82 19 62 C28.63367996 63.16463361 28.63367996 63.16463361 37 60 C40.47154216 57.16608804 41.65617905 55.75348684 42.5078125 51.41015625 C42.81513916 46.53969673 42.51516903 42.88613232 39.5 38.9375 C34.99832619 34.50997141 30.20199189 34.10654799 24.125 33.8125 C21.09467629 33.78897791 21.09467629 33.78897791 19 35 Z " fill="#F8F8F8" transform="translate(130,105)"/>
<path d="M0 0 C2.05412507 0.69453671 4.07061208 1.49904638 6.07421875 2.328125 C6.73421875 1.338125 7.39421875 0.348125 8.07421875 -0.671875 C9.06421875 -0.671875 10.05421875 -0.671875 11.07421875 -0.671875 C11.07421875 6.918125 11.07421875 14.508125 11.07421875 22.328125 C10.08421875 22.328125 9.09421875 22.328125 8.07421875 22.328125 C7.85507813 21.51988281 7.6359375 20.71164063 7.41015625 19.87890625 C5.50366066 12.87633565 5.50366066 12.87633565 1.38671875 7.078125 C-2.89014982 4.81864726 -6.18473373 4.49865996 -10.92578125 5.328125 C-13.34447703 6.4870834 -15.04900221 7.45134596 -16.92578125 9.328125 C-17.42703408 12.65954778 -17.42703408 12.65954778 -16.92578125 16.328125 C-12.31287161 21.9008926 -5.98036989 25.44528578 0.03710938 29.3359375 C5.95911563 33.26833691 11.75059718 37.35726029 14.07421875 44.328125 C14.80846614 51.21319892 14.21483091 55.73270316 10.07421875 61.328125 C4.08042186 66.87238713 -0.4187813 67.74954204 -8.44921875 67.66796875 C-12.94119852 67.22886511 -16.66303629 65.89625861 -20.78125 64.10546875 C-21.48894531 63.84894531 -22.19664063 63.59242188 -22.92578125 63.328125 C-23.91578125 63.823125 -23.91578125 63.823125 -24.92578125 64.328125 C-25.25578125 65.318125 -25.58578125 66.308125 -25.92578125 67.328125 C-26.91578125 67.328125 -27.90578125 67.328125 -28.92578125 67.328125 C-28.92578125 59.408125 -28.92578125 51.488125 -28.92578125 43.328125 C-27.93578125 43.328125 -26.94578125 43.328125 -25.92578125 43.328125 C-25.59707031 44.43220703 -25.59707031 44.43220703 -25.26171875 45.55859375 C-22.76184702 53.25128847 -20.67636702 56.83406747 -13.42578125 60.640625 C-8.75015097 61.92642333 -6.00142795 61.90731938 -1.67578125 59.578125 C1.6168929 57.00182808 1.6168929 57.00182808 3.07421875 53.328125 C3.36569035 49.83046579 3.48081619 48.41138658 2.07421875 45.328125 C-1.25032857 42.13952571 -5.03496598 39.77241631 -8.92578125 37.328125 C-24.8453162 27.22799874 -24.8453162 27.22799874 -27.92578125 21.328125 C-29.02046533 15.96187647 -28.65062984 11.80466842 -26.23828125 6.890625 C-18.77580625 -1.37860405 -10.84326799 -2.49004285 0 0 Z " fill="#F7F7F7" transform="translate(112.92578125,104.671875)"/>
<path d="M0 0 C2.11043586 1.08303135 2.11043586 1.08303135 4.953125 -0.22265625 C5.283125 -0.88265625 5.613125 -1.54265625 5.953125 -2.22265625 C6.943125 -2.22265625 7.933125 -2.22265625 8.953125 -2.22265625 C8.953125 5.36734375 8.953125 12.95734375 8.953125 20.77734375 C8.293125 20.77734375 7.633125 20.77734375 6.953125 20.77734375 C6.71078125 20.18566406 6.4684375 19.59398438 6.21875 18.984375 C3.45657832 12.47202408 1.22301189 7.67794108 -5.359375 4.46484375 C-13.17948668 1.33170454 -19.36416197 3.18037033 -27.046875 5.77734375 C-27.046875 6.43734375 -27.046875 7.09734375 -27.046875 7.77734375 C-28.04117713 8.78300934 -29.04207892 9.78216294 -30.046875 10.77734375 C-31.2120422 12.63733358 -31.2120422 12.63733358 -32.171875 14.65234375 C-32.50445312 15.30976562 -32.83703125 15.9671875 -33.1796875 16.64453125 C-36.61911549 25.10366495 -36.11117121 35.49991322 -32.84765625 43.8984375 C-32.58339844 44.51847656 -32.31914062 45.13851562 -32.046875 45.77734375 C-31.655 46.78796875 -31.263125 47.79859375 -30.859375 48.83984375 C-30.59125 49.47921875 -30.323125 50.11859375 -30.046875 50.77734375 C-29.386875 50.77734375 -28.726875 50.77734375 -28.046875 50.77734375 C-28.046875 51.43734375 -28.046875 52.09734375 -28.046875 52.77734375 C-26.38702702 53.46081057 -24.71850695 54.1232269 -23.046875 54.77734375 C-22.16 55.14859375 -21.273125 55.51984375 -20.359375 55.90234375 C-12.99283322 57.84822271 -5.79252048 57.44628155 0.953125 53.77734375 C3.78749421 51.81366312 6.38142064 49.92075246 7.953125 46.77734375 C9.273125 47.10734375 10.593125 47.43734375 11.953125 47.77734375 C7.43071613 55.50312557 1.44947872 60.76821848 -7.046875 63.77734375 C-17.61920733 65.56286397 -27.19896355 63.98183893 -36.046875 57.77734375 C-42.0972943 53.05801669 -45.7808909 47.41928544 -47.796875 40.02734375 C-48.7020522 28.26004011 -48.76063382 17.31162473 -41.046875 7.77734375 C-30.16625179 -3.96950383 -14.76631165 -7.45849415 0 0 Z " fill="#F7F7F7" transform="translate(236.046875,108.22265625)"/>
<path d="M0 0 C2.86682216 1.14409259 4.55723694 3.02451497 6.7046814 5.21757507 C7.50390015 6.02066101 8.3031189 6.82374695 9.1265564 7.65116882 C10.9546814 9.78007507 10.9546814 9.78007507 10.9546814 11.78007507 C11.50253296 11.99019226 12.05038452 12.20030945 12.61483765 12.41679382 C15.79756075 14.27116839 17.9871164 16.85668958 20.3921814 19.59257507 C21.32724424 20.64176486 22.26343415 21.68995132 23.20077515 22.73710632 C23.65436401 23.24709167 24.10795288 23.75707703 24.57528687 24.28251648 C25.93044944 25.75376732 27.36643888 27.14922807 28.80233765 28.54179382 C30.9546814 30.78007507 30.9546814 30.78007507 30.9546814 32.78007507 C9.8346814 32.78007507 -11.2853186 32.78007507 -33.0453186 32.78007507 C-31.45345311 29.59634408 -30.56952679 28.04802432 -28.21963501 25.647995 C-27.65209503 25.06446762 -27.08455505 24.48094025 -26.49981689 23.87973022 C-25.88834808 23.26289871 -25.27687927 22.6460672 -24.6468811 22.01054382 C-24.01551239 21.37014664 -23.38414368 20.72974945 -22.73364258 20.06994629 C-21.39984353 18.72166576 -20.06323742 17.37615714 -18.72402954 16.0332489 C-16.67237481 13.96964326 -14.64010938 11.88812151 -12.6078186 9.8054657 C-11.3094914 8.49768043 -10.01004955 7.19100061 -8.7093811 5.88554382 C-8.10196075 5.25859116 -7.49454041 4.63163849 -6.86871338 3.98568726 C-2.56193713 -0.27547485 -2.56193713 -0.27547485 0 0 Z " fill="#898989" transform="translate(333.0453186035156,139.2199249267578)"/>
<path d="M0 0 C2.32273159 0.15520557 4.64959313 0.25019167 6.9765625 0.31640625 C7.66181 0.33718735 8.3470575 0.35796844 9.05307007 0.37937927 C11.24361069 0.44480185 13.43427189 0.50372554 15.625 0.5625 C17.1093875 0.60569218 18.59376278 0.6493067 20.078125 0.69335938 C23.71862084 0.80047553 27.35925251 0.90176362 31 1 C31 1.33 31 1.66 31 2 C26.41443228 2.89663672 22.0829778 3.11633191 17.4140625 3.09765625 C16.71227875 3.0962413 16.010495 3.09482635 15.28744507 3.09336853 C13.06658496 3.0878129 10.84582916 3.07526892 8.625 3.0625 C7.11067855 3.05747926 5.5963555 3.05291736 4.08203125 3.04882812 C0.38798748 3.03785807 -3.30599606 3.02062449 -7 3 C-7 2.01 -7 1.02 -7 0 C-2.25 -1.125 -2.25 -1.125 0 0 Z " fill="#E9E9E9" transform="translate(137,169)"/>
<path d="M0 0 C9.24 0 18.48 0 28 0 C28 0.99 28 1.98 28 3 C25.69 3.33 23.38 3.66 21 4 C21 3.34 21 2.68 21 2 C14.565 2.495 14.565 2.495 8 3 C8 3.99 8 4.98 8 6 C7.34 5.34 6.68 4.68 6 4 C4.01178687 3.60235737 2.01055661 3.26224651 0 3 C0 2.01 0 1.02 0 0 Z " fill="#E8E8E8" transform="translate(53,104)"/>
<path d="M0 0 C0.99 0 1.98 0 3 0 C3 7.59 3 15.18 3 23 C2.01 23 1.02 23 0 23 C-0.66 20.36 -1.32 17.72 -2 15 C-1.34 15 -0.68 15 0 15 C0 11.37 0 7.74 0 4 C-1.32 4.33 -2.64 4.66 -4 5 C-2.1875 2.5 -2.1875 2.5 0 0 Z " fill="#DEDEDE" transform="translate(121,104)"/>
<path d="M0 0 C9.24 0 18.48 0 28 0 C28 0.33 28 0.66 28 1 C21.07 1 14.14 1 7 1 C7.33 2.32 7.66 3.64 8 5 C5.36 4.34 2.72 3.68 0 3 C0 2.01 0 1.02 0 0 Z " fill="#DDDDDD" transform="translate(12,104)"/>
<path d="M0 0 C10.89 0 21.78 0 33 0 C33 0.33 33 0.66 33 1 C32.22809326 1.02505615 31.45618652 1.0501123 30.66088867 1.07592773 C27.16958819 1.19184007 23.67856078 1.31458824 20.1875 1.4375 C18.36508789 1.49647461 18.36508789 1.49647461 16.50585938 1.55664062 C15.34248047 1.59853516 14.17910156 1.64042969 12.98046875 1.68359375 C11.90692139 1.72025146 10.83337402 1.75690918 9.72729492 1.79467773 C6.90688447 1.89541847 6.90688447 1.89541847 4 3 C1.8125 2.5625 1.8125 2.5625 0 2 C0 1.34 0 0.68 0 0 Z " fill="#EBEBEB" transform="translate(130,105)"/>
</svg>
