<?xml version="1.0" encoding="UTF-8"?>
<svg version="1.1" xmlns="http://www.w3.org/2000/svg" width="471" height="256">
<path d="M0 0 C5.28 0 10.56 0 16 0 C17.563688 3.58281912 19.12612976 7.1661708 20.6875 10.75 C21.14576172 11.80082764 21.60402344 12.85165527 22.07617188 13.93432617 C24.82558102 20.25298073 27.51929447 26.58351732 30.0625 32.98828125 C30.93755935 35.16572111 30.93755935 35.16572111 33 37 C37.13880111 27.28315013 41.26854282 17.58644241 44.89453125 7.6640625 C47.16301613 2.19725441 47.16301613 2.19725441 49 0 C52.35546875 -0.48828125 52.35546875 -0.48828125 56.1875 -0.3125 C57.45980469 -0.26738281 58.73210937 -0.22226563 60.04296875 -0.17578125 C61.01878906 -0.11777344 61.99460938 -0.05976562 63 0 C63 1.32 63 2.64 63 4 C61.02 4 59.04 4 57 4 C57.11817586 9.92665216 57.24241928 15.8531341 57.37231445 21.77954102 C57.41565529 23.79610729 57.45733098 25.81271007 57.49731445 27.8293457 C57.55503747 30.72618617 57.61872622 33.62284306 57.68359375 36.51953125 C57.70030624 37.42274612 57.71701874 38.325961 57.73423767 39.25654602 C57.7641555 40.5175135 57.7641555 40.5175135 57.79467773 41.80395508 C57.81799416 42.91315056 57.81799416 42.91315056 57.84178162 44.04475403 C57.93912225 46.2151671 57.93912225 46.2151671 59 49 C61.50447516 50.21869929 61.50447516 50.21869929 64 51 C64 51.99 64 52.98 64 54 C56.74 54 49.48 54 42 54 C42 53.01 42 52.02 42 51 C43.65 50.34 45.3 49.68 47 49 C47 38.11 47 27.22 47 16 C43.5597026 24.76426459 43.5597026 24.76426459 40.12011719 33.52880859 C37.43674366 40.36200442 34.73878591 47.18881036 32 54 C30.68 54 29.36 54 28 54 C26.38174633 50.23244883 24.76436056 46.46452629 23.14770508 42.69628906 C22.60007958 41.42015036 22.0522357 40.14410535 21.50415039 38.86816406 C20.70658781 37.01132727 19.90986881 35.15413026 19.11328125 33.296875 C18.63673096 32.18666992 18.16018066 31.07646484 17.66918945 29.93261719 C15.41972629 24.63287277 13.21437528 19.31450068 11 14 C11 25.88 11 37.76 11 50 C12.65 50.33 14.3 50.66 16 51 C16 51.99 16 52.98 16 54 C10.72 54 5.44 54 0 54 C0 53.01 0 52.02 0 51 C2.475 50.505 2.475 50.505 5 50 C5.33 34.82 5.66 19.64 6 4 C4.02 4 2.04 4 0 4 C0 2.68 0 1.36 0 0 Z " fill="#FFFFFF" transform="translate(155,90)"/>
<path d="M0 0 C1.66611905 -0.042721 3.33382885 -0.04063832 5 0 C6 1 6 1 6.3125 3.875 C6 7 6 7 4.1875 8.875 C2 10 2 10 -1 10 C-0.95359375 10.72445312 -0.9071875 11.44890625 -0.859375 12.1953125 C-0.69169527 16.68673382 -0.69641249 20.20488987 -2.3125 24.4375 C-7.4495294 29.3355978 -14.32021841 30.70960543 -21.125 32.125 C-23.043125 32.558125 -23.043125 32.558125 -25 33 C-25.33 33.66 -25.66 34.32 -26 35 C-21.58924692 36.47025103 -17.04187082 36.31812133 -12.42382812 36.4296875 C-7.61024729 36.63254253 -4.16525011 37.34079343 0 40 C2.62280066 43.93420099 3.50236376 47.36012771 2.6015625 52.09375 C1.36273464 55.99970137 0.28581911 57.76283095 -2.9375 60.4375 C-10.16368012 64.12432659 -19.56070594 64.18739004 -27.43359375 62.46875 C-30.89952872 61.09728326 -33.47705564 59.4266248 -35 56 C-34.56363636 49.56363636 -34.56363636 49.56363636 -33 48 C-30.5 47.875 -30.5 47.875 -28 48 C-27 49 -27 49 -26.6875 52.4375 C-26.42516037 55.98348482 -26.42516037 55.98348482 -24.328125 57.20703125 C-21.46860543 58.18099513 -19.08160728 58.26522879 -16.0625 58.25 C-15.04285156 58.25515625 -14.02320313 58.2603125 -12.97265625 58.265625 C-9.90514976 57.99152455 -7.72423419 57.42581322 -5 56 C-4.06343771 53.19031313 -4 50.96200864 -4 48 C-4.66531738 47.95512451 -5.33063477 47.91024902 -6.01611328 47.86401367 C-9.05349346 47.65166679 -12.08908072 47.41976611 -15.125 47.1875 C-16.17171875 47.11724609 -17.2184375 47.04699219 -18.296875 46.97460938 C-23.78692349 46.5402701 -28.29621933 46.14377261 -33 43 C-34.42041821 40.15916359 -34.31452272 38.14522722 -34 35 C-31.88093452 32.36943595 -29.81981355 30.8798757 -27 29 C-27.804375 28.2575 -28.60875 27.515 -29.4375 26.75 C-32.88396131 23.05135859 -32.91850312 21.49410939 -33.1875 16.5625 C-32.92536997 11.58202938 -31.94882127 9.13331429 -28.75 5.3125 C-24.89675991 2.07227538 -21.75747754 1.20676206 -16.8125 0.625 C-11.50971799 1.14658512 -6.91398046 3.0095269 -2 5 C-1.34 3.35 -0.68 1.7 0 0 Z M-21.25 6.375 C-23.8645595 10.29683925 -24.03727513 14.34806351 -24 19 C-23.56531239 21.22309264 -23.56531239 21.22309264 -23 23 C-22.34 23 -21.68 23 -21 23 C-21 23.99 -21 24.98 -21 26 C-18.03 26 -15.06 26 -12 26 C-9.44096318 21.20180597 -9.61387255 16.29802777 -10 11 C-10.33 10.01 -10.66 9.02 -11 8 C-11.99 8 -12.98 8 -14 8 C-14 7.01 -14 6.02 -14 5 C-17.04838235 4.66129085 -18.60426893 4.75816434 -21.25 6.375 Z " fill="#FFFFFF" transform="translate(330,103)"/>
<path d="M0 0 C3.98347226 -0.07480519 7.96666594 -0.12890718 11.95068359 -0.16479492 C13.96336248 -0.18709408 15.97584584 -0.22523653 17.98828125 -0.26367188 C26.62285193 -0.32875658 33.02856942 -0.14404921 40 5.375 C42.95680588 9.40150358 42.74458089 14.04694616 42.546875 18.86328125 C41.71488921 23.63531404 39.83546625 26.14270635 36 29 C29.46555458 33.22016266 22.59536405 32.2170104 15 32 C15.495 40.415 15.495 40.415 16 49 C18.31 49.66 20.62 50.32 23 51 C23 51.99 23 52.98 23 54 C15.08 54 7.16 54 -1 54 C-1 53.01 -1 52.02 -1 51 C0.98 50.01 2.96 49.02 5 48 C5.33 33.48 5.66 18.96 6 4 C4.02 4 2.04 4 0 4 C0 2.68 0 1.36 0 0 Z M18 4 C18 4.66 18 5.32 18 6 C17.34 6 16.68 6 16 6 C16 13.26 16 20.52 16 28 C24.81219325 28.39813811 24.81219325 28.39813811 31 24 C33.53545602 20.14169736 33.11568997 16.4882906 32.46484375 12.0859375 C31.83996955 9.28188018 31.22720109 7.85600091 29 6 C25.0914588 4.57871229 22.1714867 4 18 4 Z " fill="#9F9F9F" transform="translate(104,90)"/>
<path d="M0 0 C4.29 0 8.58 0 13 0 C13.66 1.65 14.32 3.3 15 5 C15.763125 4.175 16.52625 3.35 17.3125 2.5 C21.09672992 -0.66253501 24.64472334 -0.64860426 29.43359375 -0.43359375 C32.8780297 0.14834292 34.70373816 1.39756992 37 4 C38.39560045 6.79120091 38.21808288 9.20205692 38.31640625 12.3203125 C38.35830078 13.57714844 38.40019531 14.83398438 38.44335938 16.12890625 C38.48267578 17.44761719 38.52199219 18.76632813 38.5625 20.125 C38.60569512 21.46485751 38.64930973 22.80470156 38.69335938 24.14453125 C38.79970981 27.42957815 38.90173808 30.71470281 39 34 C40.65 34.33 42.3 34.66 44 35 C44 36.32 44 37.64 44 39 C37.4 39 30.8 39 24 39 C24 37.68 24 36.36 24 35 C25.98 34.505 25.98 34.505 28 34 C28.05796132 29.89589245 28.09358313 25.79188984 28.125 21.6875 C28.14175781 20.52025391 28.15851563 19.35300781 28.17578125 18.15039062 C28.18222656 17.03212891 28.18867188 15.91386719 28.1953125 14.76171875 C28.20578613 13.73006592 28.21625977 12.69841309 28.22705078 11.63549805 C28.19297515 8.76812408 28.19297515 8.76812408 26 6 C22.59385054 6.02126462 22.59385054 6.02126462 19 7 C15.45144442 12.06012709 15.60568682 16.82414012 15.75 22.75 C15.75515625 23.61238281 15.7603125 24.47476563 15.765625 25.36328125 C15.688256 29.83370561 15.688256 29.83370561 17 34 C18.485 34.495 18.485 34.495 20 35 C20 36.32 20 37.64 20 39 C13.4 39 6.8 39 0 39 C0 37.68 0 36.36 0 35 C1.65 34.34 3.3 33.68 5 33 C5.33 23.43 5.66 13.86 6 4 C4.02 4 2.04 4 0 4 C0 2.68 0 1.36 0 0 Z " fill="#FFFFFF" transform="translate(376,105)"/>
<path d="M0 0 C3.12207488 3.17998397 3.38568861 5.63647987 3.44140625 10.0078125 C3.46783203 11.15894531 3.49425781 12.31007813 3.52148438 13.49609375 C3.53501953 14.69363281 3.54855469 15.89117187 3.5625 17.125 C3.59683107 19.50274458 3.6393751 21.88038939 3.69140625 24.2578125 C3.70373291 25.3111377 3.71605957 26.36446289 3.72875977 27.44970703 C3.74760573 30.16651071 3.74760573 30.16651071 6 32 C6.45375 31.34 6.9075 30.68 7.375 30 C7.91125 29.34 8.4475 28.68 9 28 C9.66 28 10.32 28 11 28 C11.49046322 33.39509537 11.49046322 33.39509537 9.125 36.3125 C5.63253116 39.08593114 3.45781682 39.43704086 -1 39 C-3.875 37 -3.875 37 -6 35 C-6.969375 35.66 -7.93875 36.32 -8.9375 37 C-13.229118 39.4374301 -17.15531093 39.92539005 -22 39 C-24.87029869 37.20606332 -26.49131638 36.01736724 -28 33 C-28.67423916 28.18400597 -28.51197788 24.89183244 -26.0625 20.625 C-22.1867675 16.68357712 -17.04828675 15.22710746 -11.640625 14.82421875 C-9.75953051 14.81421293 -7.87832897 14.89754569 -6 15 C-6.33 11.04 -6.66 7.08 -7 3 C-11.455 3.495 -11.455 3.495 -16 4 C-16.350625 5.134375 -16.70125 6.26875 -17.0625 7.4375 C-17.8671875 9.375 -17.8671875 9.375 -19 11 C-22.6875 11.9375 -22.6875 11.9375 -26 12 C-26.84536152 8.69540498 -27.19139177 6.58784614 -26.125 3.3125 C-19.6559738 -3.72732263 -8.26080206 -3.23953022 0 0 Z M-12.5 20.3125 C-13.2940625 20.74175781 -14.088125 21.17101562 -14.90625 21.61328125 C-17.2688318 22.9835631 -17.2688318 22.9835631 -19 26 C-18.81767408 29.82748905 -18.81767408 29.82748905 -17 33 C-13.09702488 33.26019834 -10.30254875 33.20169917 -7 31 C-5.67770811 28.35541621 -5.90322806 26.32238699 -5.9375 23.375 C-5.95103516 21.87066406 -5.95103516 21.87066406 -5.96484375 20.3359375 C-5.97644531 19.56507812 -5.98804688 18.79421875 -6 18 C-8.68191633 18 -10.157044 19.0231135 -12.5 20.3125 Z " fill="#FFFFFF" transform="translate(365,106)"/>
<path d="M0 0 C4.21635388 3.48541662 6.22343774 6.19616296 7.578125 11.58203125 C7.87890625 15.01953125 7.87890625 15.01953125 7.890625 18.58203125 C7.90738281 19.75765625 7.92414063 20.93328125 7.94140625 22.14453125 C7.27601654 28.44069192 4.35277911 32.5669812 -0.421875 36.58203125 C-5.99805849 39.57664831 -10.49869656 40.65752327 -16.6875 38.9609375 C-22.0548856 36.9614975 -24.74913769 34.55578648 -27.546875 29.58203125 C-30.29280291 23.3056246 -30.40857889 15.92773059 -28.421875 9.39453125 C-26.40730678 4.6746857 -22.71345341 1.29374288 -18.421875 -1.41796875 C-12.39794848 -3.13493331 -5.49648792 -3.21810502 0 0 Z M-15.234375 2.58203125 C-19.0289934 6.05139665 -19.34295214 10.54885928 -19.72265625 15.51953125 C-19.73703372 16.87362722 -19.74086043 18.22787448 -19.734375 19.58203125 C-19.75048828 20.25492188 -19.76660156 20.9278125 -19.78320312 21.62109375 C-19.78812001 26.71498152 -18.62963215 30.10826478 -16.421875 34.58203125 C-15.03516013 34.91435943 -13.63631832 35.19631096 -12.234375 35.45703125 C-11.45707031 35.61945313 -10.67976563 35.781875 -9.87890625 35.94921875 C-6.73699535 35.4796804 -5.27814783 34.14791254 -3.38793945 31.63623047 C-1.39392356 27.39623811 -1.91720749 22.78948718 -2.109375 18.20703125 C-2.13193359 17.18480469 -2.15449219 16.16257812 -2.17773438 15.109375 C-2.23639418 12.59873544 -2.31841572 10.09115746 -2.421875 7.58203125 C-3.081875 7.58203125 -3.741875 7.58203125 -4.421875 7.58203125 C-4.091875 6.59203125 -3.761875 5.60203125 -3.421875 4.58203125 C-6.81337447 1.19053178 -10.81457395 1.01054643 -15.234375 2.58203125 Z " fill="#FFFFFF" transform="translate(250.421875,106.41796875)"/>
<path d="M0 0 C7.59 0 15.18 0 23 0 C23 1.32 23 2.64 23 4 C20.69 4 18.38 4 16 4 C16.02094727 5.13429443 16.04189453 6.26858887 16.06347656 7.43725586 C16.13635503 11.68077773 16.1819722 15.92424526 16.21972656 20.16821289 C16.23973374 21.99838593 16.26694851 23.82849592 16.30175781 25.65844727 C16.35076003 28.30240512 16.37307761 30.94551165 16.390625 33.58984375 C16.41127014 34.39646957 16.43191528 35.2030954 16.45318604 36.03416443 C16.45549799 42.00397832 15.09941435 46.85985121 12 52 C6.99593571 56.00325143 0.21462944 56.00852487 -6 56 C-10.01108913 55.15556018 -12.44525115 54.20624641 -15 51 C-15.328125 48.7734375 -15.328125 48.7734375 -15.25 46.375 C-15.23453125 45.57835937 -15.2190625 44.78171875 -15.203125 43.9609375 C-15 42 -15 42 -14 41 C-11.66702567 40.95907063 -9.33294775 40.95758277 -7 41 C-6.34 43.97 -5.68 46.94 -5 50 C-2.21571665 50.77341204 -0.52724898 51.17574966 2.25 50.25 C4.31552961 49.03369734 4.31552961 49.03369734 5 46 C5.11294746 44.60420727 5.17589187 43.20400091 5.20532227 41.80395508 C5.22526749 40.96331009 5.24521271 40.1226651 5.26576233 39.25654602 C5.29083107 37.90172371 5.29083107 37.90172371 5.31640625 36.51953125 C5.33718735 35.59154221 5.35796844 34.66355316 5.37937927 33.70744324 C5.44477323 30.7425376 5.50371262 27.77754328 5.5625 24.8125 C5.60569487 22.8027252 5.64930947 20.79295937 5.69335938 18.78320312 C5.80044427 13.85555968 5.90174045 8.92782701 6 4 C4.02 4 2.04 4 0 4 C0 2.68 0 1.36 0 0 Z " fill="#9E9E9E" transform="translate(68,90)"/>
<path d="M0 0 C1.93166016 0.01740234 1.93166016 0.01740234 3.90234375 0.03515625 C5.19269531 0.04417969 6.48304688 0.05320312 7.8125 0.0625 C8.81152344 0.07410156 9.81054688 0.08570312 10.83984375 0.09765625 C10.83984375 1.74765625 10.83984375 3.39765625 10.83984375 5.09765625 C11.62359375 4.27265625 12.40734375 3.44765625 13.21484375 2.59765625 C16.82460286 -0.43488601 19.99257135 -0.42734863 24.5703125 -0.37109375 C27.29110465 0.19085988 28.23556548 0.84649158 29.83984375 3.09765625 C30.02734375 6.78515625 30.02734375 6.78515625 29.83984375 10.09765625 C27.08984375 10.84765625 27.08984375 10.84765625 23.83984375 11.09765625 C22.46673668 9.80532018 21.12949551 8.47328479 19.83984375 7.09765625 C17.68252243 7.01197122 17.68252243 7.01197122 15.83984375 8.09765625 C13.86472851 11.06032911 13.56913109 11.81439402 13.390625 15.15234375 C13.34744141 15.93222656 13.30425781 16.71210937 13.25976562 17.515625 C13.2065918 18.73185547 13.2065918 18.73185547 13.15234375 19.97265625 C13.08176758 21.17728516 13.08176758 21.17728516 13.00976562 22.40625 C12.80514978 26.47844079 12.76860489 30.11876905 13.83984375 34.09765625 C15.81984375 34.75765625 17.79984375 35.41765625 19.83984375 36.09765625 C19.83984375 37.08765625 19.83984375 38.07765625 19.83984375 39.09765625 C12.24984375 39.09765625 4.65984375 39.09765625 -3.16015625 39.09765625 C-3.16015625 37.77765625 -3.16015625 36.45765625 -3.16015625 35.09765625 C-0.68515625 34.60265625 -0.68515625 34.60265625 1.83984375 34.09765625 C2.16984375 24.19765625 2.49984375 14.29765625 2.83984375 4.09765625 C0.85984375 4.09765625 -1.12015625 4.09765625 -3.16015625 4.09765625 C-3.49015625 3.10765625 -3.82015625 2.11765625 -4.16015625 1.09765625 C-3.16015625 0.09765625 -3.16015625 0.09765625 0 0 Z " fill="#FFFFFF" transform="translate(264.16015625,104.90234375)"/>
<path d="M0 0 C2.64 0 5.28 0 8 0 C8 8.91 8 17.82 8 27 C11.3 27 14.6 27 18 27 C17.67 27.66 17.34 28.32 17 29 C13.7 29 10.4 29 7 29 C7.08691739 31.77236494 7.19377361 34.54147078 7.3125 37.3125 C7.33505859 38.09818359 7.35761719 38.88386719 7.38085938 39.69335938 C7.41630859 40.45068359 7.45175781 41.20800781 7.48828125 41.98828125 C7.51446533 42.68477783 7.54064941 43.38127441 7.56762695 44.09887695 C8.1317609 46.57934619 9.02668877 47.42151927 11 49 C12.32 49.66 13.64 50.32 15 51 C7.74 51 0.48 51 -7 51 C-6.67 50.34 -6.34 49.68 -6 49 C-4.35 49 -2.7 49 -1 49 C-0.67 32.83 -0.34 16.66 0 0 Z " fill="#8B8B8B" transform="translate(111,92)"/>
<path d="M0 0 C2 2 2 2 2.375 4.4375 C2 7 2 7 0.3125 8.875 C-2 10 -2 10 -4.6875 9.8125 C-7 9 -7 9 -8 7 C-8.039992 5.00039988 -8.04346799 2.99952758 -8 1 C-5.23749964 -0.38125018 -3.05268901 -0.19079306 0 0 Z " fill="#999999" transform="translate(144,136)"/>
<path d="M0 0 C2 2 2 2 2.375 4.4375 C2 7 2 7 0.3125 8.9375 C-2 10 -2 10 -4.6875 9.25 C-7 8 -7 8 -8 7 C-8.04080783 5.00041636 -8.04254356 2.99954746 -8 1 C-5.23749964 -0.38125018 -3.05268901 -0.19079306 0 0 Z " fill="#9F9F9F" transform="translate(96,136)"/>
<path d="M0 0 C10 0 10 0 14 3 C6.57142857 2 6.57142857 2 3 1 C3 1.66 3 2.32 3 3 C2.34 3 1.68 3 1 3 C1 10.26 1 17.52 1 25 C3.64 25 6.28 25 9 25 C9 25.33 9 25.66 9 26 C6.03 26 3.06 26 0 26 C0 17.42 0 8.84 0 0 Z " fill="#BFBFBF" transform="translate(119,93)"/>
<path d="M0 0 C1.58246707 -0.08153933 3.16616273 -0.13943557 4.75 -0.1875 C6.07257813 -0.23970703 6.07257813 -0.23970703 7.421875 -0.29296875 C10.44671583 0.05076316 11.75583602 1.00227459 14 3 C9.33333333 2.33333333 4.66666667 1.66666667 0 1 C0 0.67 0 0.34 0 0 Z " fill="#B7B7B7" transform="translate(119,93)"/>
</svg>
