<?xml version="1.0" encoding="UTF-8"?>
<svg version="1.1" xmlns="http://www.w3.org/2000/svg" width="404" height="256">
<path d="M0 0 C1.17411049 0.94507457 2.32609706 1.91942097 3.4375 2.9375 C5.7606547 5.28552906 5.7606547 5.28552906 8.36328125 4.8359375 C11.35410033 3.88773708 13.26019114 2.58740317 15.75 0.6875 C27.35726944 -7.68411468 40.16820918 -10.5766307 54.375 -10.4375 C56.01299561 -10.42614014 56.01299561 -10.42614014 57.68408203 -10.41455078 C76.2679952 -10.03607656 91.2269278 -2.63361495 104.4140625 10.3828125 C119.40566195 26.37719453 123.64635622 43.4462755 123.31640625 64.82421875 C123.05480376 72.06918475 121.80437274 78.26950542 119 85 C118.63777344 85.88171875 118.27554688 86.7634375 117.90234375 87.671875 C113.20500713 97.92639969 106.17673665 107.35543342 97 114 C96.34 114 95.68 114 95 114 C95 114.66 95 115.32 95 116 C77.96566703 124.89758583 77.96566703 124.89758583 69 127 C68.09556152 127.25583862 68.09556152 127.25583862 67.17285156 127.5168457 C49.11885574 131.5313241 30.37724918 126.50972429 15 117 C12.9067256 115.41281677 10.96627863 113.74712683 9 112 C5.80089924 113.49980936 2.98390973 115.3312131 0.0625 117.3125 C-16.30605477 127.80236154 -35.75661456 130.67996843 -54.75 127 C-72.64500018 122.0944208 -88.14734618 110.92200123 -98.1875 95.3125 C-107.35531582 79.15016529 -110.57252345 59.91569162 -106.0234375 41.81640625 C-100.78716821 23.08743634 -89.72133493 7.89966278 -72.75 -1.87109375 C-49.73901511 -14.30375114 -22.4412904 -13.43051273 0 0 Z " fill="#8A8A8A" transform="translate(194,74)"/>
<path d="M0 0 C1.328125 1.39453125 1.328125 1.39453125 1.328125 4.39453125 C-0.49381342 6.31949595 -2.56422783 7.76988656 -4.671875 9.39453125 C-3.77984375 9.40871094 -2.8878125 9.42289063 -1.96875 9.4375 C-0.21304688 9.50904297 -0.21304688 9.50904297 1.578125 9.58203125 C2.73828125 9.61683594 3.8984375 9.65164062 5.09375 9.6875 C8.328125 10.39453125 8.328125 10.39453125 10.75 12.8203125 C12.328125 15.39453125 12.328125 15.39453125 12.328125 17.39453125 C11.64709717 17.39864014 10.96606934 17.40274902 10.2644043 17.40698242 C7.18059294 17.43986448 4.09877174 17.51050078 1.015625 17.58203125 C-0.05623047 17.58783203 -1.12808594 17.59363281 -2.23242188 17.59960938 C-3.77446289 17.64311523 -3.77446289 17.64311523 -5.34765625 17.6875 C-6.29552002 17.70321045 -7.24338379 17.7189209 -8.2199707 17.73510742 C-11.39263243 18.28406196 -11.39263243 18.28406196 -13.671875 23.39453125 C-3.441875 23.72453125 6.788125 24.05453125 17.328125 24.39453125 C20.328125 30.39453125 20.328125 30.39453125 20.328125 32.39453125 C7.788125 32.72453125 -4.751875 33.05453125 -17.671875 33.39453125 C-18.661875 36.36453125 -18.661875 36.36453125 -19.671875 39.39453125 C-22.311875 39.39453125 -24.951875 39.39453125 -27.671875 39.39453125 C-27.74535156 40.48507813 -27.74535156 40.48507813 -27.8203125 41.59765625 C-28.22496081 47.03947835 -28.79282923 52.34081365 -29.796875 57.70703125 C-30.6122646 62.30945256 -30.78147749 65.85524833 -29.671875 70.39453125 C-28.68919641 71.60014309 -28.68919641 71.60014309 -26.82421875 71.4921875 C-23.74804688 71.44335938 -23.74804688 71.44335938 -20.671875 71.39453125 C-20.59839844 69.82251953 -20.59839844 69.82251953 -20.5234375 68.21875 C-20.44839357 66.83981771 -20.37284643 65.46091275 -20.296875 64.08203125 C-20.2659375 63.39173828 -20.235 62.70144531 -20.203125 61.99023438 C-19.99062581 58.32462336 -19.75253639 56.51552333 -17.671875 53.39453125 C-17.61580078 54.49861328 -17.61580078 54.49861328 -17.55859375 55.625 C-17.18716855 63.03590166 -17.18716855 63.03590166 -13.671875 69.39453125 C-9.9350907 71.88572078 -7.92735681 71.60105385 -3.484375 71.51953125 C-1.57591797 71.49246094 -1.57591797 71.49246094 0.37109375 71.46484375 C1.34691406 71.44164062 2.32273437 71.4184375 3.328125 71.39453125 C3.328125 69.41453125 3.328125 67.43453125 3.328125 65.39453125 C2.65265625 65.513125 1.9771875 65.63171875 1.28125 65.75390625 C-6.0626777 66.81516748 -6.0626777 66.81516748 -9.296875 64.58203125 C-10.671875 62.39453125 -10.671875 62.39453125 -10.671875 60.39453125 C-5.721875 60.06453125 -0.771875 59.73453125 4.328125 59.39453125 C5.318125 55.76453125 6.308125 52.13453125 7.328125 48.39453125 C7.658125 48.39453125 7.988125 48.39453125 8.328125 48.39453125 C7.83690047 56.52558986 6.97546259 64.4137404 5.328125 72.39453125 C7.968125 72.39453125 10.608125 72.39453125 13.328125 72.39453125 C13.36550781 71.45351562 13.40289062 70.5125 13.44140625 69.54296875 C13.50714844 68.29773438 13.57289063 67.0525 13.640625 65.76953125 C13.69863281 64.53976563 13.75664062 63.31 13.81640625 62.04296875 C14.35602787 58.19559019 15.29483833 55.68835907 17.328125 52.39453125 C18.318125 51.73453125 19.308125 51.07453125 20.328125 50.39453125 C20.8025 49.26015625 21.276875 48.12578125 21.765625 46.95703125 C23.29122644 43.47865996 24.13525918 42.26621121 27.328125 40.39453125 C25.48452035 45.13522892 25.48452035 45.13522892 24.27734375 47.13671875 C22.97239627 50.2406679 23.02645515 52.91218399 23.015625 56.26953125 C22.99048828 58.06003906 22.99048828 58.06003906 22.96484375 59.88671875 C23.36403356 63.74126123 24.28833128 66.1174856 26.328125 69.39453125 C29.49053082 71.5028018 30.83469969 71.7327059 34.515625 72.01953125 C35.41667969 72.09429687 36.31773437 72.1690625 37.24609375 72.24609375 C38.27669922 72.31957031 38.27669922 72.31957031 39.328125 72.39453125 C39.328125 73.05453125 39.328125 73.71453125 39.328125 74.39453125 C26.65842113 75.13257225 26.65842113 75.13257225 21.328125 70.39453125 C20.998125 72.37453125 20.668125 74.35453125 20.328125 76.39453125 C8.118125 76.72453125 -4.091875 77.05453125 -16.671875 77.39453125 C-16.011875 79.04453125 -15.351875 80.69453125 -14.671875 82.39453125 C1.168125 82.88953125 1.168125 82.88953125 17.328125 83.39453125 C16.338125 85.70453125 15.348125 88.01453125 14.328125 90.39453125 C6.408125 90.72453125 -1.511875 91.05453125 -9.671875 91.39453125 C-8.186875 93.37453125 -8.186875 93.37453125 -6.671875 95.39453125 C-6.671875 96.05453125 -6.671875 96.71453125 -6.671875 97.39453125 C-1.721875 97.39453125 3.228125 97.39453125 8.328125 97.39453125 C6.89583333 99.0546875 5.46354167 100.71484375 4.03125 102.375 C2.78660338 103.85087684 1.5938887 105.37098983 0.43359375 106.9140625 C-8.09883341 116.96617984 -24.14429445 122.48973304 -37.05517578 123.59936523 C-57.4987016 124.41206053 -75.71307833 120.04153241 -91.5 106.453125 C-105.53488623 93.15027421 -113.4767906 76.85134399 -114.671875 57.39453125 C-114.9993765 38.28385543 -109.16973029 20.65672736 -95.9050293 6.60375977 C-69.81239516 -20.11190347 -29.8211473 -22.00218795 0 0 Z " fill="#525252" transform="translate(200.671875,78.60546875)"/>
<path d="M0 0 C0 3 0 3 -1.4765625 5.75 C-3.20707175 9.44175306 -3.40168287 11.94420422 -3.375 16 C-3.38273438 17.175625 -3.39046875 18.35125 -3.3984375 19.5625 C-2.95854929 23.35761401 -2.00443145 25.76279616 0 29 C3.16240582 31.10827055 4.50657469 31.33817465 8.1875 31.625 C9.08855469 31.69976562 9.98960937 31.77453125 10.91796875 31.8515625 C11.60503906 31.90054688 12.29210937 31.94953125 13 32 C13 32.66 13 33.32 13 34 C0.33029613 34.738041 0.33029613 34.738041 -5 30 C-5.33 31.98 -5.66 33.96 -6 36 C-18.21 36.33 -30.42 36.66 -43 37 C-42.01 39.475 -42.01 39.475 -41 42 C-25.16 42.495 -25.16 42.495 -9 43 C-9.99 45.31 -10.98 47.62 -12 50 C-19.92 50.33 -27.84 50.66 -36 51 C-35.01 52.32 -34.02 53.64 -33 55 C-33 55.66 -33 56.32 -33 57 C-28.05 57 -23.1 57 -18 57 C-19.43229167 58.66015625 -20.86458333 60.3203125 -22.296875 61.98046875 C-23.54152162 63.45634559 -24.7342363 64.97645858 -25.89453125 66.51953125 C-34.42695841 76.57164859 -50.47241945 82.09520179 -63.38330078 83.20483398 C-83.8268266 84.01752928 -102.04120333 79.64700116 -117.828125 66.05859375 C-126.13682355 58.18326257 -134.58290057 48.81790948 -136 37 C-135.86255968 33.20258794 -135.33104725 29.50232738 -134.75 25.75 C-134.60377197 24.73599121 -134.45754395 23.72198242 -134.30688477 22.67724609 C-134.01604454 20.681221 -133.71819302 18.68620218 -133.41259766 16.69238281 C-133.06423861 14.41918545 -132.7353107 12.14485569 -132.41796875 9.8671875 C-131.5455533 3.98015643 -131.5455533 3.98015643 -131 2 C-130.34 1.67 -129.68 1.34 -129 1 C-129.57641995 11.13704052 -131.23643851 21.01757646 -133 31 C-130.69 31 -128.38 31 -126 31 C-125.95101562 30.41734375 -125.90203125 29.8346875 -125.8515625 29.234375 C-125.2306143 22.42535679 -124.19122901 15.73102216 -123 9 C-122.67 9 -122.34 9 -122 9 C-121.67 16.26 -121.34 23.52 -121 31 C-119.35 31 -117.7 31 -116 31 C-115.76216797 30.16082031 -115.76216797 30.16082031 -115.51953125 29.3046875 C-113.32157454 21.7514882 -110.69334719 14.3880749 -108 7 C-107.00373917 10.17021017 -107.03483155 12.4973489 -107.55859375 15.765625 C-107.69716797 16.65507812 -107.83574219 17.54453125 -107.97851562 18.4609375 C-108.12998047 19.38132813 -108.28144531 20.30171875 -108.4375 21.25 C-108.58509766 22.18585938 -108.73269531 23.12171875 -108.88476562 24.0859375 C-109.24947522 26.39184331 -109.62144974 28.69633288 -110 31 C-107.69 31 -105.38 31 -103 31 C-103.04125 30.05125 -103.0825 29.1025 -103.125 28.125 C-103 25 -103 25 -101 23 C-99.68 25.64 -98.36 28.28 -97 31 C-92.45208535 31.16896418 -92.45208535 31.16896418 -88 30.4375 C-84.90615639 29.76072171 -82.08555121 30.46596229 -79 31 C-78.67 29.68 -78.34 28.36 -78 27 C-77.505 28.98 -77.505 28.98 -77 31 C-75.27119018 31.05449838 -73.54187288 31.09301688 -71.8125 31.125 C-70.36810547 31.15980469 -70.36810547 31.15980469 -68.89453125 31.1953125 C-65.8364022 30.98896101 -63.72481396 30.38418613 -61 29 C-59.84929647 26.69859295 -59.63981364 24.86907508 -59.31640625 22.31640625 C-59.19330078 21.38892578 -59.07019531 20.46144531 -58.94335938 19.50585938 C-58.69001421 17.54795599 -58.43999864 15.58961881 -58.19335938 13.63085938 C-58.06896484 12.70208984 -57.94457031 11.77332031 -57.81640625 10.81640625 C-57.70756104 9.96506104 -57.59871582 9.11371582 -57.48657227 8.23657227 C-57 6 -57 6 -55 3 C-54.81206626 7.88627716 -55.16036923 12.24911769 -56.0625 17.0625 C-56.90803494 21.76653244 -57.13389367 25.36134409 -56 30 C-55.01732141 31.20561184 -55.01732141 31.20561184 -53.15234375 31.09765625 C-51.1015625 31.06510417 -49.05078125 31.03255208 -47 31 C-46.92652344 29.42798828 -46.92652344 29.42798828 -46.8515625 27.82421875 C-46.77651857 26.44528646 -46.70097143 25.0663815 -46.625 23.6875 C-46.5940625 22.99720703 -46.563125 22.30691406 -46.53125 21.59570312 C-46.31875081 17.93009211 -46.08066139 16.12099208 -44 13 C-43.94392578 14.10408203 -43.94392578 14.10408203 -43.88671875 15.23046875 C-43.51529355 22.64137041 -43.51529355 22.64137041 -40 29 C-36.2632157 31.49118953 -34.25548181 31.2065226 -29.8125 31.125 C-28.54019531 31.10695312 -27.26789063 31.08890625 -25.95703125 31.0703125 C-24.98121094 31.04710937 -24.00539063 31.02390625 -23 31 C-23 29.02 -23 27.04 -23 25 C-24.01320312 25.17789063 -24.01320312 25.17789063 -25.046875 25.359375 C-32.3908027 26.42063623 -32.3908027 26.42063623 -35.625 24.1875 C-37 22 -37 22 -37 20 C-32.05 19.67 -27.1 19.34 -22 19 C-21.01 15.37 -20.02 11.74 -19 8 C-18.67 8 -18.34 8 -18 8 C-18.49122453 16.13105861 -19.35266241 24.01920915 -21 32 C-18.36 32 -15.72 32 -13 32 C-12.96261719 31.05898437 -12.92523438 30.11796875 -12.88671875 29.1484375 C-12.82097656 27.90320313 -12.75523437 26.65796875 -12.6875 25.375 C-12.62949219 24.14523438 -12.57148438 22.91546875 -12.51171875 21.6484375 C-11.97209713 17.80105894 -11.03328667 15.29382782 -9 12 C-8.01 11.34 -7.02 10.68 -6 10 C-4.98470459 7.67328135 -3.98511802 5.3396553 -3 3 C-1.3125 1.0625 -1.3125 1.0625 0 0 Z " fill="#525252" transform="translate(227,119)"/>
<path d="M0 0 C1.8871875 0.061875 1.8871875 0.061875 3.8125 0.125 C4.3075 2.105 4.3075 2.105 4.8125 4.125 C4.8125 3.465 4.8125 2.805 4.8125 2.125 C6.1325 2.125 7.4525 2.125 8.8125 2.125 C8.8125 3.445 8.8125 4.765 8.8125 6.125 C9.328125 5.96 9.84375 5.795 10.375 5.625 C14.19900845 4.84058801 18.25541427 4.34645713 21.8125 6.125 C21.8125 7.445 21.8125 8.765 21.8125 10.125 C20.81669922 10.16367188 20.81669922 10.16367188 19.80078125 10.203125 C14.29483744 10.55679146 10.77063608 10.9115003 6.8125 15.125 C5.40792263 17.93415474 5.56354843 20.01310534 5.8125 23.125 C6.71485835 25.60605194 6.71485835 25.60605194 8.8125 27.125 C13.06308287 27.58869995 16.17168336 27.45512265 19.8125 25.125 C19.8125 25.785 19.8125 26.445 19.8125 27.125 C21.7925 27.125 23.7725 27.125 25.8125 27.125 C25.99425781 25.54912109 25.99425781 25.54912109 26.1796875 23.94140625 C27.05271206 16.56373394 28.0075189 9.3449244 29.8125 2.125 C30.1425 2.125 30.4725 2.125 30.8125 2.125 C30.34257706 10.59597928 29.55890116 18.81687796 27.8125 27.125 C30.1225 27.125 32.4325 27.125 34.8125 27.125 C34.84988281 26.42375 34.88726562 25.7225 34.92578125 25 C35.35522869 18.80248398 36.33895761 13.82490204 38.8125 8.125 C40.1325 8.125 41.4525 8.125 42.8125 8.125 C42.77769531 9.00542969 42.74289062 9.88585937 42.70703125 10.79296875 C42.66642578 12.53513672 42.66642578 12.53513672 42.625 14.3125 C42.59019531 15.46105469 42.55539062 16.60960937 42.51953125 17.79296875 C42.83926467 21.4294035 43.63091727 23.2355914 45.8125 26.125 C48.5923816 27.5149408 50.7311326 27.30988204 53.8125 27.125 C56.11480766 26.22668984 56.11480766 26.22668984 57.8125 25.125 C57.8125 25.785 57.8125 26.445 57.8125 27.125 C62.45836892 26.64015724 62.45836892 26.64015724 66.8125 25.125 C67.3075 26.115 67.3075 26.115 67.8125 27.125 C69.7925 26.795 71.7725 26.465 73.8125 26.125 C75.07452828 37.06257842 68.30917922 46.15433625 61.97265625 54.56640625 C58.64557619 58.50716112 54.99643897 62.09555041 50.8125 65.125 C50.1525 65.125 49.4925 65.125 48.8125 65.125 C48.8125 65.785 48.8125 66.445 48.8125 67.125 C31.77816703 76.02258583 31.77816703 76.02258583 22.8125 78.125 C21.90806152 78.38083862 21.90806152 78.38083862 20.98535156 78.6418457 C2.58596407 82.73312524 -15.40510822 77.30213604 -31.1875 68.125 C-34.02109806 66.24516889 -36.57227664 64.3043528 -39.1875 62.125 C-38.20883662 60.97873678 -37.22955413 59.83300212 -36.25 58.6875 C-35.70472656 58.04941406 -35.15945312 57.41132813 -34.59765625 56.75390625 C-33.81954305 55.85508851 -33.02813472 54.96563472 -32.1875 54.125 C-33.15171875 54.13402344 -34.1159375 54.14304688 -35.109375 54.15234375 C-36.37265625 54.12269531 -37.6359375 54.09304687 -38.9375 54.0625 C-40.81695312 54.04509766 -40.81695312 54.04509766 -42.734375 54.02734375 C-43.87390625 53.72957031 -45.0134375 53.43179688 -46.1875 53.125 C-47.5075 50.815 -48.8275 48.505 -50.1875 46.125 C-41.9375 46.125 -33.6875 46.125 -25.1875 46.125 C-24.5275 44.145 -23.8675 42.165 -23.1875 40.125 C-33.4175 39.795 -43.6475 39.465 -54.1875 39.125 C-55.6725 35.66 -55.6725 35.66 -57.1875 32.125 C-44.6475 32.125 -32.1075 32.125 -19.1875 32.125 C-18.8575 30.145 -18.5275 28.165 -18.1875 26.125 C-16.1875 27.125 -14.1875 28.125 -12.1875 29.125 C-10.1500237 29.35358114 -8.10709697 29.53524278 -6.0625 29.6875 C-4.41894531 29.81318359 -4.41894531 29.81318359 -2.7421875 29.94140625 C-1.47761719 30.03228516 -1.47761719 30.03228516 -0.1875 30.125 C-0.6825 28.64 -0.6825 28.64 -1.1875 27.125 C-0.1975 27.125 0.7925 27.125 1.8125 27.125 C2.1425 24.815 2.4725 22.505 2.8125 20.125 C2.19761719 20.23199219 1.58273438 20.33898437 0.94921875 20.44921875 C0.14097656 20.56910156 -0.66726562 20.68898437 -1.5 20.8125 C-2.30050781 20.94011719 -3.10101563 21.06773437 -3.92578125 21.19921875 C-6.1875 21.125 -6.1875 21.125 -7.92578125 19.91015625 C-10.23854326 16.63792022 -10.30452762 13.04542516 -10.1875 9.125 C-8.77494159 3.35524219 -6.25341955 -0.20503015 0 0 Z " fill="#8A8A8A" transform="translate(240.1875,122.875)"/>
<path d="M0 0 C16.5 0 33 0 50 0 C50 1.32 50 2.64 50 4 C48.02 4.99 46.04 5.98 44 7 C44 6.01 44 5.02 44 4 C41.69 4 39.38 4 37 4 C37 6.31 37 8.62 37 11 C36.34 11 35.68 11 35 11 C34.86722656 11.63808594 34.73445313 12.27617187 34.59765625 12.93359375 C34.42105469 13.75988281 34.24445313 14.58617187 34.0625 15.4375 C33.88847656 16.26121094 33.71445313 17.08492187 33.53515625 17.93359375 C33 20 33 20 32 21 C29.46950598 21.07313567 26.96695163 21.09247527 24.4375 21.0625 C23.72658203 21.05798828 23.01566406 21.05347656 22.28320312 21.04882812 C20.52209987 21.03700864 18.76103964 21.01907263 17 21 C17.76349403 23.01745088 17.76349403 23.01745088 19 25 C23.01712758 25.90953832 26.89102857 26.12451429 31 26 C31 27.98 31 29.96 31 32 C26.34217135 33.55260955 21.85978651 33.57623183 17 33 C12.62932542 30.77632346 12.62932542 30.77632346 11 28 C9.95217566 24.36072717 9.38229341 20.76361267 9 17 C8.93941406 18.07121094 8.87882813 19.14242187 8.81640625 20.24609375 C8.73201463 21.64324391 8.64736594 23.04037857 8.5625 24.4375 C8.52318359 25.14455078 8.48386719 25.85160156 8.44335938 26.58007812 C8.11328125 31.88671875 8.11328125 31.88671875 7 33 C1.20411664 33.46740995 1.20411664 33.46740995 -1 33 C-3.06650037 30.97464676 -3.93858326 29.73967115 -4.1796875 26.8359375 C-3.06359356 17.82133264 -1.49880939 8.99285632 0 0 Z " fill="#535353" transform="translate(173,118)"/>
<path d="M0 0 C3.63 0 7.26 0 11 0 C11.33 6.27 11.66 12.54 12 19 C13.98 12.73 15.96 6.46 18 0 C21.96 0 25.92 0 30 0 C29.32871681 7.61729765 28.2329111 15.09055949 26.9375 22.625 C26.75123047 23.72457031 26.56496094 24.82414062 26.37304688 25.95703125 C25.91835544 28.63854486 25.46062096 31.31949973 25 34 C22.69 34 20.38 34 18 34 C17.71899498 26.83437211 18.79556805 20.05453001 20 13 C19.79318604 13.56509277 19.58637207 14.13018555 19.37329102 14.71240234 C18.43756929 17.26704615 17.50005683 19.82102914 16.5625 22.375 C16.23701172 23.26445312 15.91152344 24.15390625 15.57617188 25.0703125 C15.26357422 25.92109375 14.95097656 26.771875 14.62890625 27.6484375 C14.34088135 28.43395996 14.05285645 29.21948242 13.75610352 30.02880859 C13 32 13 32 12 34 C10.35 34 8.7 34 7 34 C6.34 28.72 5.68 23.44 5 18 C4.01 23.28 3.02 28.56 2 34 C-0.31 34 -2.62 34 -5 34 C-4.42128908 26.17339378 -3.33870899 18.5315276 -1.9375 10.8125 C-1.75123047 9.76513672 -1.56496094 8.71777344 -1.37304688 7.63867188 C-0.91947865 5.09171185 -0.46033257 2.54574615 0 0 Z " fill="#F6F6F6" transform="translate(99,116)"/>
<path d="M0 0 C2.31 0 4.62 0 7 0 C5.35 11.22 3.7 22.44 2 34 C-1 34 -4 34 -7 34 C-7.99 34.495 -7.99 34.495 -9 35 C-12.83191838 35.42576871 -14.52949683 35.30321315 -17.8125 33.1875 C-21.00966972 29.99033028 -21.21524097 27.16900591 -21.375 22.8125 C-21.32012111 15.90690696 -18.75944321 11.84845751 -14.0625 7 C-11.22103521 5.6223201 -9.11647728 5.66845986 -6 6 C-5.01 6.66 -4.02 7.32 -3 8 C-2.01 5.36 -1.02 2.72 0 0 Z " fill="#F9F9F9" transform="translate(303,116)"/>
<path d="M0 0 C3.25 2.0625 3.25 2.0625 5 5 C5.34405334 10.34605966 4.55713174 15.23279284 3.5 20.4375 C3.35691406 21.16904297 3.21382813 21.90058594 3.06640625 22.65429688 C2.71678704 24.43735486 2.35922312 26.21885203 2 28 C-0.66666667 28 -3.33333333 28 -6 28 C-6.66 28.33 -7.32 28.66 -8 29 C-11.375 29.375 -11.375 29.375 -15 29 C-17.89576216 26.4754894 -18.84147642 24.82784534 -19.5625 21.0625 C-18.77590045 16.77990245 -17.03113127 15.10330106 -14 12 C-11.47524538 10.73762269 -9.68799534 10.90143596 -6.875 10.9375 C-5.96492188 10.94652344 -5.05484375 10.95554688 -4.1171875 10.96484375 C-3.41851562 10.97644531 -2.71984375 10.98804688 -2 11 C-2 9.68 -2 8.36 -2 7 C-6.29 7 -10.58 7 -15 7 C-14.67 5.02 -14.34 3.04 -14 1 C-9.79622018 -1.10188991 -4.56713007 -0.52908165 0 0 Z " fill="#F8F8F8" transform="translate(264,122)"/>
<path d="M0 0 C3.25 1.3125 3.25 1.3125 5 4 C6.24893417 11.93279068 4.39063479 20.19009569 3 28 C2.37351563 27.98839844 1.74703125 27.97679687 1.1015625 27.96484375 C-0.12433594 27.95130859 -0.12433594 27.95130859 -1.375 27.9375 C-2.59316406 27.92009766 -2.59316406 27.92009766 -3.8359375 27.90234375 C-6.04937142 27.85533666 -6.04937142 27.85533666 -8 29 C-14.26440678 29.56949153 -14.26440678 29.56949153 -16.9375 27.5 C-18.43452156 23.97759632 -18.68759905 20.72634323 -18 17 C-16.20636089 14.1899654 -14.98119065 12.49059532 -12 11 C-10.29297265 10.93003986 -8.58331997 10.91559846 -6.875 10.9375 C-5.96492187 10.94652344 -5.05484375 10.95554688 -4.1171875 10.96484375 C-3.41851562 10.97644531 -2.71984375 10.98804688 -2 11 C-2.33 9.68 -2.66 8.36 -3 7 C-6.63 7 -10.26 7 -14 7 C-14 5.02 -14 3.04 -14 1 C-9.80600628 -1.09699686 -4.56836306 -0.40148064 0 0 Z " fill="#F8F8F8" transform="translate(145,122)"/>
<path d="M0 0 C3.80897138 2.89481825 3.80897138 2.89481825 5 6 C5.4289201 9.38540504 5.44617507 12.61544341 5 16 C4 17 4 17 0.62109375 17.09765625 C-0.77347077 17.09098369 -2.16801743 17.07902532 -3.5625 17.0625 C-4.27341797 17.05798828 -4.98433594 17.05347656 -5.71679688 17.04882812 C-7.47790013 17.03700864 -9.23896036 17.01907263 -11 17 C-10.23650597 19.01745088 -10.23650597 19.01745088 -9 21 C-4.98287242 21.90953832 -1.10897143 22.12451429 3 22 C3 23.98 3 25.96 3 28 C-1.6365695 29.54552317 -6.16300501 29.62791233 -11 29 C-14.67435174 27.1592706 -16.68333826 24.94998521 -18 21 C-18.72944043 14.2676236 -18.14135756 8.53459204 -14 3 C-9.77310302 -0.89343176 -5.50350379 -1.05802415 0 0 Z " fill="#F7F7F7" transform="translate(201,122)"/>
<path d="M0 0 C0 3 0 3 -1.4765625 5.75 C-3.20707175 9.44175306 -3.40168287 11.94420422 -3.375 16 C-3.38273437 17.175625 -3.39046875 18.35125 -3.3984375 19.5625 C-2.95854929 23.35761401 -2.00443145 25.76279616 0 29 C3.16240582 31.10827055 4.50657469 31.33817465 8.1875 31.625 C9.08855469 31.69976562 9.98960937 31.77453125 10.91796875 31.8515625 C11.60503906 31.90054688 12.29210937 31.94953125 13 32 C13 32.66 13 33.32 13 34 C0.33029613 34.738041 0.33029613 34.738041 -5 30 C-5.33 31.98 -5.66 33.96 -6 36 C-18.54 36 -31.08 36 -44 36 C-44 35.67 -44 35.34 -44 35 C-42.95199219 34.95101562 -41.90398437 34.90203125 -40.82421875 34.8515625 C-39.44528646 34.77651857 -38.0663815 34.70097143 -36.6875 34.625 C-35.99720703 34.5940625 -35.30691406 34.563125 -34.59570312 34.53125 C-30.93009211 34.31875081 -29.12099208 34.08066139 -26 32 C-25.01 31.67 -24.02 31.34 -23 31 C-23 29.02 -23 27.04 -23 25 C-23.67546875 25.11859375 -24.3509375 25.2371875 -25.046875 25.359375 C-32.3908027 26.42063623 -32.3908027 26.42063623 -35.625 24.1875 C-37 22 -37 22 -37 20 C-32.05 19.67 -27.1 19.34 -22 19 C-21.01 15.37 -20.02 11.74 -19 8 C-18.67 8 -18.34 8 -18 8 C-18.49122453 16.13105861 -19.35266241 24.01920915 -21 32 C-18.36 32 -15.72 32 -13 32 C-12.96261719 31.05898437 -12.92523438 30.11796875 -12.88671875 29.1484375 C-12.82097656 27.90320313 -12.75523437 26.65796875 -12.6875 25.375 C-12.62949219 24.14523438 -12.57148438 22.91546875 -12.51171875 21.6484375 C-11.97209713 17.80105894 -11.03328667 15.29382782 -9 12 C-8.01 11.34 -7.02 10.68 -6 10 C-4.98470459 7.67328135 -3.98511802 5.3396553 -3 3 C-1.3125 1.0625 -1.3125 1.0625 0 0 Z " fill="#575757" transform="translate(227,119)"/>
<path d="M0 0 C1.8871875 0.061875 1.8871875 0.061875 3.8125 0.125 C4.1425 1.445 4.4725 2.765 4.8125 4.125 C4.8125 3.465 4.8125 2.805 4.8125 2.125 C6.1325 2.125 7.4525 2.125 8.8125 2.125 C8.8125 3.445 8.8125 4.765 8.8125 6.125 C9.328125 5.96 9.84375 5.795 10.375 5.625 C14.19900845 4.84058801 18.25541427 4.34645713 21.8125 6.125 C21.8125 7.445 21.8125 8.765 21.8125 10.125 C20.81669922 10.16367188 20.81669922 10.16367188 19.80078125 10.203125 C14.29483744 10.55679146 10.77063608 10.9115003 6.8125 15.125 C5.40792263 17.93415474 5.56354843 20.01310534 5.8125 23.125 C6.80284226 25.52883995 6.80284226 25.52883995 8.8125 27.125 C11.91447397 27.93446422 11.91447397 27.93446422 14.8125 28.125 C12.8125 30.125 12.8125 30.125 10.9375 30.390625 C10.23625 30.38546875 9.535 30.3803125 8.8125 30.375 C7.760625 30.38273437 7.760625 30.38273437 6.6875 30.390625 C4.8125 30.125 4.8125 30.125 2.8125 28.125 C2.54258094 25.43660615 2.72512643 22.83358064 2.8125 20.125 C2.19761719 20.23199219 1.58273438 20.33898437 0.94921875 20.44921875 C0.14097656 20.56910156 -0.66726562 20.68898437 -1.5 20.8125 C-2.30050781 20.94011719 -3.10101563 21.06773437 -3.92578125 21.19921875 C-6.1875 21.125 -6.1875 21.125 -7.92578125 19.91015625 C-10.23854326 16.63792022 -10.30452762 13.04542516 -10.1875 9.125 C-8.77494159 3.35524219 -6.25341955 -0.20503015 0 0 Z " fill="#898989" transform="translate(240.1875,122.875)"/>
<path d="M0 0 C0.78246094 -0.01417969 1.56492188 -0.02835937 2.37109375 -0.04296875 C4.5625 0.1875 4.5625 0.1875 7.5625 2.1875 C7.2325 4.4975 6.9025 6.8075 6.5625 9.1875 C5.54929688 9.11789063 5.54929688 9.11789063 4.515625 9.046875 C-0.95156777 8.77583852 -0.95156777 8.77583852 -6 10.5625 C-8.73365804 15.55439729 -9.08723206 20.86702835 -7.5625 26.3125 C-4.56698581 28.95560076 -2.17430474 28.57950664 1.69921875 28.36328125 C2.31410156 28.30527344 2.92898437 28.24726563 3.5625 28.1875 C3.2325 30.4975 2.9025 32.8075 2.5625 35.1875 C-1.49751575 36.54083858 -5.19253981 36.72464786 -9.4375 36.1875 C-13.56109973 33.81862356 -15.00243026 31.62997677 -16.4375 27.1875 C-17.28454994 19.72454426 -17.53313464 12.91824966 -12.875 6.73828125 C-8.93868999 2.4917729 -5.79170134 0.04755091 0 0 Z " fill="#F8F8F8" transform="translate(239.4375,114.8125)"/>
<path d="M0 0 C1.08667969 0.01804687 2.17335937 0.03609375 3.29296875 0.0546875 C4.54013672 0.08949219 4.54013672 0.08949219 5.8125 0.125 C5.8125 2.105 5.8125 4.085 5.8125 6.125 C3.1725 6.455 0.5325 6.785 -2.1875 7.125 C-2.13981597 9.00380872 -2.13981597 9.00380872 -1.1875 11.125 C-0.176875 11.681875 0.83375 12.23875 1.875 12.8125 C4.8125 15.125 4.8125 15.125 5.34765625 17.23828125 C5.49518608 21.15744324 5.3370721 23.40145228 3 26.625 C-0.6560134 29.13198061 -3.55906608 29.23827569 -7.875 29.1875 C-8.86886719 29.17847656 -9.86273438 29.16945312 -10.88671875 29.16015625 C-12.02560547 29.14275391 -12.02560547 29.14275391 -13.1875 29.125 C-14.1875 26.125 -14.1875 26.125 -13.1875 22.125 C-9.8875 22.125 -6.5875 22.125 -3.1875 22.125 C-3.1875 21.135 -3.1875 20.145 -3.1875 19.125 C-5.14059888 17.72386384 -7.14458818 16.39160533 -9.1875 15.125 C-11.1875 13.125 -11.1875 13.125 -11.4375 9.75 C-11.20994889 6.45050892 -11.05377309 4.77707228 -9.1875 2.125 C-5.66070901 -0.22619399 -4.15870515 -0.08943452 0 0 Z " fill="#F7F7F7" transform="translate(163.1875,121.875)"/>
<path d="M0 0 C2.64 0 5.28 0 8 0 C8 0.99 8 1.98 8 3 C8.99 3.33 9.98 3.66 11 4 C10.67 6.31 10.34 8.62 10 11 C8.68 11.33 7.36 11.66 6 12 C5.34 16.62 4.68 21.24 4 26 C5.32 26 6.64 26 8 26 C8.04254356 27.99954746 8.04080783 30.00041636 8 32 C6.13077346 33.86922654 3.50248831 33.29230229 1.0078125 33.42578125 C-1 33 -1 33 -2.765625 31.26953125 C-4.22869977 28.57951087 -4.2481896 27.38922367 -3.875 24.375 C-3.76027344 23.42753906 -3.64554688 22.48007813 -3.52734375 21.50390625 C-2.44606837 14.31943204 -1.25181079 7.15657869 0 0 Z " fill="#F5F5F5" transform="translate(173,118)"/>
<path d="M0 0 C2.31 0 4.62 0 7 0 C7.33 0.66 7.66 1.32 8 2 C8.66 1.34 9.32 0.68 10 0 C10.99 0 11.98 0 13 0 C12.75 3.3125 12.75 3.3125 12 7 C10.0625 8.625 10.0625 8.625 8 10 C6.01720341 13.98754296 5.44929043 17.92328031 4.875 22.3125 C4.62363281 24.19388672 4.62363281 24.19388672 4.3671875 26.11328125 C4.24601563 27.06589844 4.12484375 28.01851562 4 29 C1.36 29 -1.28 29 -4 29 C-2.91779132 19.2831476 -1.74337372 9.62564851 0 0 Z " fill="#F1F1F1" transform="translate(210,122)"/>
<path d="M0 0 C4.33333333 0 8.66666667 0 13 0 C12.7452486 1.31571603 12.47065859 2.62760376 12.1875 3.9375 C12.03667969 4.66839844 11.88585937 5.39929688 11.73046875 6.15234375 C11.48941406 6.76207031 11.24835938 7.37179688 11 8 C10.01 8.33 9.02 8.66 8 9 C5.16532293 15.12290247 4.03706697 21.36277137 3 28 C0.69 28 -1.62 28 -4 28 C-4.27501507 21.80356671 -3.22632202 16.12367944 -2 10.0625 C-1.80921875 9.09248047 -1.6184375 8.12246094 -1.421875 7.12304688 C-0.95378085 4.74746905 -0.47969098 2.37325835 0 0 Z " fill="#F7F7F7" transform="translate(272,122)"/>
<path d="M0 0 C0.33 0 0.66 0 1 0 C0.50877547 8.13105861 -0.35266241 16.01920915 -2 24 C-0.02 24 1.96 24 4 24 C4 24.66 4 25.32 4 26 C1.36 26 -1.28 26 -4 26 C-4 23.03 -4 20.06 -4 17 C-4.67546875 17.11859375 -5.3509375 17.2371875 -6.046875 17.359375 C-13.3908027 18.42063623 -13.3908027 18.42063623 -16.625 16.1875 C-18 14 -18 14 -18 12 C-13.05 11.67 -8.1 11.34 -3 11 C-2.01 7.37 -1.02 3.74 0 0 Z " fill="#3D3D3D" transform="translate(208,127)"/>
<path d="M0 0 C0 3 0 3 -1.4765625 5.75 C-3.20707175 9.44175306 -3.40168287 11.94420422 -3.375 16 C-3.38273438 17.175625 -3.39046875 18.35125 -3.3984375 19.5625 C-2.95854929 23.35761401 -2.00443145 25.76279616 0 29 C3.16240582 31.10827055 4.50657469 31.33817465 8.1875 31.625 C9.08855469 31.69976562 9.98960937 31.77453125 10.91796875 31.8515625 C11.60503906 31.90054688 12.29210937 31.94953125 13 32 C13 32.66 13 33.32 13 34 C2.21383107 34.61930157 2.21383107 34.61930157 -2.0625 32.4375 C-6.74334168 26.54869917 -7.44342994 21.24268899 -7 14 C-7.66 14 -8.32 14 -9 14 C-8.67 13.01 -8.34 12.02 -8 11 C-7.34 10.67 -6.68 10.34 -6 10 C-5.2884375 8.329375 -5.2884375 8.329375 -4.5625 6.625 C-3.24414993 3.56642783 -2.50922597 2.03127817 0 0 Z " fill="#212121" transform="translate(227,119)"/>
<path d="M0 0 C4.875 0.875 4.875 0.875 6 2 C6.44690265 11.08702065 6.44690265 11.08702065 4 14 C1.5 14.875 1.5 14.875 -1 15 C-3.40450178 12.59549822 -3.29609139 11.91766058 -3.3125 8.625 C-3.25687267 5.48458455 -3.11914878 4.20354584 -1.5 1.4375 C-0.7575 0.7259375 -0.7575 0.7259375 0 0 Z " fill="#888888" transform="translate(293,129)"/>
<path d="M0 0 C1.32 0 2.64 0 4 0 C3.96519531 0.88042969 3.93039062 1.76085937 3.89453125 2.66796875 C3.86746094 3.82941406 3.84039062 4.99085938 3.8125 6.1875 C3.76029297 7.91033203 3.76029297 7.91033203 3.70703125 9.66796875 C4.02676467 13.3044035 4.81841727 15.1105914 7 18 C9.7459726 19.3729863 11.9589047 19.12412634 15 19 C15.99 18.67 16.98 18.34 18 18 C18 18.66 18 19.32 18 20 C19.98 20 21.96 20 24 20 C24 20.66 24 21.32 24 22 C21.08234109 22.10806144 18.16868875 22.18732877 15.25 22.25 C14.425 22.28351563 13.6 22.31703125 12.75 22.3515625 C6.619831 22.45043619 6.619831 22.45043619 3.484375 20.171875 C0.56676424 15.90294978 0.65340112 11.50019724 0.28125 6.49609375 C0.1454973 4.00411573 0.1454973 4.00411573 -1 2 C-0.67 1.34 -0.34 0.68 0 0 Z " fill="#212121" transform="translate(279,131)"/>
<path d="M0 0 C0.33 0 0.66 0 1 0 C1.03738281 0.73605469 1.07476562 1.47210938 1.11328125 2.23046875 C1.48470645 9.64137041 1.48470645 9.64137041 5 16 C8.40431947 18.26954631 10.16524202 18.36549949 14.1875 18.625 C15.27417969 18.69976562 16.36085937 18.77453125 17.48046875 18.8515625 C18.72763672 18.92503906 18.72763672 18.92503906 20 19 C19.67 19.66 19.34 20.32 19 21 C6.11194002 21.86047878 6.11194002 21.86047878 2.25 18.75 C-0.81479071 15.00414469 -1.14107015 12.18622833 -1.125 7.4375 C-1.12757813 6.67308594 -1.13015625 5.90867188 -1.1328125 5.12109375 C-1 3 -1 3 0 0 Z " fill="#202020" transform="translate(182,132)"/>
<path d="M0 0 C0.33 0 0.66 0 1 0 C1.18793374 4.88627716 0.83963077 9.24911769 -0.0625 14.0625 C-0.90803494 18.76653244 -1.13389367 22.36134409 0 27 C1.96822886 28.96822886 5.34808709 28.66248381 8 29 C7.67 29.66 7.34 30.32 7 31 C0.9453125 31.1953125 0.9453125 31.1953125 -1 31 C-3.8426626 28.1573374 -3.30013396 26.22362048 -3.3125 22.25 C-3.29743288 14.54222472 -1.93338851 7.46886395 0 0 Z " fill="#353535" transform="translate(171,122)"/>
<path d="M0 0 C0.33 0 0.66 0 1 0 C0.39507314 10.45063307 -1.28484583 20.68750074 -3 31 C-1.35 31 0.3 31 2 31 C2 31.66 2 32.32 2 33 C-0.31 33 -2.62 33 -5 33 C-4.5922377 25.16815159 -3.71282603 17.49354005 -2.5 9.75 C-2.36940186 8.90397217 -2.23880371 8.05794434 -2.10424805 7.1862793 C-1.12660095 1.12660095 -1.12660095 1.12660095 0 0 Z " fill="#242424" transform="translate(97,120)"/>
<path d="M0 0 C0.33 0 0.66 0 1 0 C1 1.98 1 3.96 1 6 C1.99 5.67 2.98 5.34 4 5 C5.684571 4.88259878 7.37388877 4.82493455 9.0625 4.8125 C10.37927734 4.79123047 10.37927734 4.79123047 11.72265625 4.76953125 C14 5 14 5 16 7 C15.33613281 7.01417969 14.67226562 7.02835938 13.98828125 7.04296875 C9.44480592 7.28838275 6.71119322 7.49200484 2.9375 10.1875 C0.83154654 13.24452921 0.25630399 15.32630946 0 19 C-2.63180464 15.05229304 -1.8008948 12.26019851 -1.125 7.8125 C-0.96837891 6.68811523 -0.96837891 6.68811523 -0.80859375 5.54101562 C-0.5495672 3.69250796 -0.27616034 1.84602568 0 0 Z " fill="#5E5E5E" transform="translate(127,126)"/>
<path d="M0 0 C1.07138687 3.29760194 0.90279404 5.60429626 0.22265625 8.984375 C-0.05288086 10.38623047 -0.05288086 10.38623047 -0.33398438 11.81640625 C-0.53314453 12.78449219 -0.73230469 13.75257813 -0.9375 14.75 C-1.13279297 15.73355469 -1.32808594 16.71710938 -1.52929688 17.73046875 C-2.01190558 20.15528321 -2.50238859 22.57822773 -3 25 C-1.02 25 0.96 25 3 25 C3 25.66 3 26.32 3 27 C0.36 27 -2.28 27 -5 27 C-4.73400343 17.26452556 -3.65601213 9.13152797 0 0 Z " fill="#424242" transform="translate(119,126)"/>
<path d="M0 0 C0.33 0.66 0.66 1.32 1 2 C0.67 2.66 0.34 3.32 0 4 C-0.28163537 7.23880681 -0.30809145 9.36670091 1.125 12.3125 C3.62320828 14.56088745 5.70948807 14.70751005 9 15 C7 17 7 17 5.125 17.265625 C4.42375 17.26046875 3.7225 17.2553125 3 17.25 C1.948125 17.25773437 1.948125 17.25773437 0.875 17.265625 C-1 17 -1 17 -3 15 C-3.83564176 11.67508737 -4.15588388 8.4240701 -4 5 C-2.0625 1.875 -2.0625 1.875 0 0 Z " fill="#242424" transform="translate(246,136)"/>
<path d="M0 0 C0.33 0 0.66 0 1 0 C0.50610812 8.78607656 -0.36822681 17.35001785 -2 26 C-0.35 26 1.3 26 3 26 C3 26.66 3 27.32 3 28 C0.69 28 -1.62 28 -4 28 C-2.73333333 5.46666667 -2.73333333 5.46666667 0 0 Z " fill="#404040" transform="translate(270,125)"/>
<path d="M0 0 C0.33 0 0.66 0 1 0 C0.50877547 8.13105861 -0.35266241 16.01920915 -2 24 C-0.02 24 1.96 24 4 24 C4 24.66 4 25.32 4 26 C1.36 26 -1.28 26 -4 26 C-3.52681647 22.04092723 -3.04544382 18.08289307 -2.5625 14.125 C-2.42779297 12.99707031 -2.29308594 11.86914062 -2.15429688 10.70703125 C-2.02216797 9.63066406 -1.89003906 8.55429688 -1.75390625 7.4453125 C-1.57323608 5.95281982 -1.57323608 5.95281982 -1.38891602 4.43017578 C-1 2 -1 2 0 0 Z " fill="#2F2F2F" transform="translate(208,127)"/>
<path d="M0 0 C4.00301032 1.76132454 7.6028977 4.26132483 11 7 C11 7.33 11 7.66 11 8 C3.25 8.125 3.25 8.125 1 7 C0.67 8.32 0.34 9.64 0 11 C-1.28571429 3.57142857 -1.28571429 3.57142857 0 0 Z " fill="#636363" transform="translate(149,137)"/>
<path d="M0 0 C0.66 0 1.32 0 2 0 C2 1.32 2 2.64 2 4 C2.515625 3.835 3.03125 3.67 3.5625 3.5 C6.73363876 2.84951 9.77218334 2.9379266 13 3 C13.33 4.32 13.66 5.64 14 7 C9.05 6.67 4.1 6.34 -1 6 C-1 1 -1 1 0 0 Z " fill="#333333" transform="translate(247,125)"/>
<path d="M0 0 C0.33 0.66 0.66 1.32 1 2 C1.99 2 2.98 2 4 2 C3.67 5.96 3.34 9.92 3 14 C1.68 14 0.36 14 -1 14 C-0.67 9.38 -0.34 4.76 0 0 Z " fill="#5C5C5C" transform="translate(178,130)"/>
<path d="M0 0 C0.33 1.32 0.66 2.64 1 4 C1.66 3.67 2.32 3.34 3 3 C4.54023996 2.93049459 6.08334988 2.91547643 7.625 2.9375 C8.85089844 2.95103516 8.85089844 2.95103516 10.1015625 2.96484375 C11.04128906 2.98224609 11.04128906 2.98224609 12 3 C12.33 4.32 12.66 5.64 13 7 C6.07 6.505 6.07 6.505 -1 6 C-1 1 -1 1 0 0 Z " fill="#3F3F3F" transform="translate(130,125)"/>
<path d="M0 0 C0.94875 0.04125 1.8975 0.0825 2.875 0.125 C2.215 2.105 1.555 4.085 0.875 6.125 C-0.775 6.455 -2.425 6.785 -4.125 7.125 C-4.75 4.75 -4.75 4.75 -5.125 2.125 C-3.125 0.125 -3.125 0.125 0 0 Z " fill="#424242" transform="translate(139.125,137.875)"/>
<path d="M0 0 C0.33 0 0.66 0 1 0 C1.33 7.59 1.66 15.18 2 23 C2.99 23 3.98 23 5 23 C5 23.66 5 24.32 5 25 C3.35 25 1.7 25 0 25 C0 16.75 0 8.5 0 0 Z " fill="#282828" transform="translate(104,128)"/>
<path d="M0 0 C-0.33 1.98 -0.66 3.96 -1 6 C-2.65614657 6.38218767 -4.32457024 6.71395102 -6 7 C-7 6 -7 6 -7.0625 3.4375 C-7.041875 2.633125 -7.02125 1.82875 -7 1 C-4.53721199 -0.231394 -2.7204945 -0.07159196 0 0 Z " fill="#212121" transform="translate(260,138)"/>
<path d="M0 0 C0.70125 0.7425 1.4025 1.485 2.125 2.25 C4.91588732 5.09535508 4.91588732 5.09535508 8.3125 7.125 C9.6428125 8.053125 9.6428125 8.053125 11 9 C11 9.99 11 10.98 11 12 C6.3707042 10.50228665 3.4092634 8.4092634 0 5 C-0.375 2.1875 -0.375 2.1875 0 0 Z " fill="#202020" transform="translate(150,132)"/>
<path d="M0 0 C2 3 2 3 3.125 5.625 C5.2982112 8.37773419 5.8552819 8.40699198 9.1875 8.8125 C10.445625 8.874375 11.70375 8.93625 13 9 C11 11 11 11 7.0625 11.375 C4.20847167 11.28694468 3.30059617 11.23484076 1 9.4375 C-0.32761013 6.2014503 -0.19966912 3.46093134 0 0 Z " fill="#1E1E1E" transform="translate(125,142)"/>
<path d="M0 0 C0.19335938 0.64453125 0.38671875 1.2890625 0.5859375 1.953125 C1.88708247 4.34351201 1.88708247 4.34351201 5.0390625 4.609375 C6.81410156 4.67898437 6.81410156 4.67898437 8.625 4.75 C10.40777344 4.83507812 10.40777344 4.83507812 12.2265625 4.921875 C13.14179688 4.94765625 14.05703125 4.9734375 15 5 C13 7 13 7 9.9609375 7.1953125 C8.77757812 7.17210937 7.59421875 7.14890625 6.375 7.125 C5.18648437 7.10695312 3.99796875 7.08890625 2.7734375 7.0703125 C1.85820312 7.04710937 0.94296875 7.02390625 0 7 C0 4.69 0 2.38 0 0 Z " fill="#1B1B1B" transform="translate(148,146)"/>
<path d="M0 0 C0 1.32 0 2.64 0 4 C-2.64 4 -5.28 4 -8 4 C-7.625 2.0625 -7.625 2.0625 -7 0 C-4.3333581 -1.33332095 -2.83319697 -0.67102033 0 0 Z " fill="#404040" transform="translate(199,129)"/>
<path d="M0 0 C0 3 0 3 -1.4375 5.5 C-3.56361548 10.26249868 -3.73358433 14.83704805 -4 20 C-4.33 20 -4.66 20 -5 20 C-5 17.36 -5 14.72 -5 12 C-5.99 11.67 -6.98 11.34 -8 11 C-7.34 10.67 -6.68 10.34 -6 10 C-5.2884375 8.329375 -5.2884375 8.329375 -4.5625 6.625 C-3.24414993 3.56642783 -2.50922597 2.03127817 0 0 Z " fill="#4B4B4B" transform="translate(227,119)"/>
<path d="M0 0 C2 3 2 3 4 6 C7.56769552 6.73606499 7.56769552 6.73606499 11 7 C10.67 7.66 10.34 8.32 10 9 C3.9453125 9.1953125 3.9453125 9.1953125 2 9 C0 7 0 7 -0.125 3.375 C-0.08375 2.26125 -0.0425 1.1475 0 0 Z " fill="#212121" transform="translate(168,144)"/>
<path d="M0 0 C4.70588235 0.70588235 4.70588235 0.70588235 6 2 C6.27314815 7.73611111 6.27314815 7.73611111 6 10 C5.34 10.66 4.68 11.32 4 12 C3.9175 10.741875 3.835 9.48375 3.75 8.1875 C3.33442857 4.66188788 3.33442857 4.66188788 0.9375 2 C0.298125 1.67 -0.34125 1.34 -1 1 C-0.67 0.67 -0.34 0.34 0 0 Z " fill="#262626" transform="translate(293,129)"/>
<path d="M0 0 C1.32 0 2.64 0 4 0 C3.67 3.63 3.34 7.26 3 11 C2.67 11 2.34 11 2 11 C1.690625 9.88625 1.38125 8.7725 1.0625 7.625 C0.17673517 4.2054845 0.17673517 4.2054845 -1 2 C-0.67 1.34 -0.34 0.68 0 0 Z " fill="#393939" transform="translate(279,131)"/>
<path d="M0 0 C0.33 1.32 0.66 2.64 1 4 C2.98 4 4.96 4 7 4 C7 4.66 7 5.32 7 6 C4.36 6 1.72 6 -1 6 C-0.67 4.02 -0.34 2.04 0 0 Z " fill="#1E1E1E" transform="translate(115,147)"/>
<path d="M0 0 C0.33 0 0.66 0 1 0 C1 1.65 1 3.3 1 5 C2.98 5 4.96 5 7 5 C7 5.66 7 6.32 7 7 C4.36 7 1.72 7 -1 7 C-0.67 4.69 -0.34 2.38 0 0 Z " fill="#1C1C1C" transform="translate(205,146)"/>
<path d="M0 0 C0.33 0.66 0.66 1.32 1 2 C2.98 2 4.96 2 7 2 C7 2.66 7 3.32 7 4 C4.36 4 1.72 4 -1 4 C-1.33 3.01 -1.66 2.02 -2 1 C-1.34 0.67 -0.68 0.34 0 0 Z " fill="#2D2D2D" transform="translate(296,149)"/>
<path d="M0 0 C0.33 0.99 0.66 1.98 1 3 C1.99 3 2.98 3 4 3 C4 3.66 4 4.32 4 5 C1.69 5 -0.62 5 -3 5 C-3 4.01 -3 3.02 -3 2 C-2.01 1.34 -1.02 0.68 0 0 Z " fill="#313131" transform="translate(259,148)"/>
<path d="M0 0 C1.98 0.495 1.98 0.495 4 1 C3.67 2.32 3.34 3.64 3 5 C1.68 4.67 0.36 4.34 -1 4 C-0.67 2.68 -0.34 1.36 0 0 Z " fill="#B0B0B0" transform="translate(308,146)"/>
<path d="M0 0 C1.53166168 4.08443115 0.63081652 7.79455657 0 12 C-0.33 12 -0.66 12 -1 12 C-1 10.02 -1 8.04 -1 6 C-1.66 6 -2.32 6 -3 6 C-3 5.01 -3 4.02 -3 3 C-2.34 3 -1.68 3 -1 3 C-0.67 2.01 -0.34 1.02 0 0 Z " fill="#5E5E5E" transform="translate(205,138)"/>
<path d="M0 0 C0.33 1.32 0.66 2.64 1 4 C3.64 4.33 6.28 4.66 9 5 C9 5.33 9 5.66 9 6 C5.7 6 2.4 6 -1 6 C-1 1 -1 1 0 0 Z " fill="#2F2F2F" transform="translate(130,125)"/>
<path d="M0 0 C2.64 0 5.28 0 8 0 C8 0.99 8 1.98 8 3 C5.03 2.67 2.06 2.34 -1 2 C-0.67 1.34 -0.34 0.68 0 0 Z " fill="#212121" transform="translate(236,123)"/>
<path d="M0 0 C0.66 0 1.32 0 2 0 C2 0.66 2 1.32 2 2 C3.65 2 5.3 2 7 2 C7 2.66 7 3.32 7 4 C4.69 4 2.38 4 0 4 C0 2.68 0 1.36 0 0 Z " fill="#222222" transform="translate(139,149)"/>
<path d="M0 0 C1.32 0.33 2.64 0.66 4 1 C3.67 2.65 3.34 4.3 3 6 C2.01 5.67 1.02 5.34 0 5 C0 3.35 0 1.7 0 0 Z " fill="#7E7E7E" transform="translate(253,139)"/>
<path d="M0 0 C0.66 0 1.32 0 2 0 C2.33 1.98 2.66 3.96 3 6 C1.68 6 0.36 6 -1 6 C-1.042721 4.33388095 -1.04063832 2.66617115 -1 1 C-0.67 0.67 -0.34 0.34 0 0 Z " fill="#1D1D1D" transform="translate(247,125)"/>
</svg>
