<?xml version="1.0" encoding="UTF-8"?>
<svg version="1.1" xmlns="http://www.w3.org/2000/svg" width="444" height="256">
<path d="M0 0 C3.96 0 7.92 0 12 0 C14.64 8.91 17.28 17.82 20 27 C22.59122426 18.48945276 22.59122426 18.48945276 25.17553711 9.97680664 C25.4978833 8.92356201 25.82022949 7.87031738 26.15234375 6.78515625 C26.48226318 5.70113525 26.81218262 4.61711426 27.15209961 3.50024414 C28 1 28 1 29 0 C32.63 0 36.26 0 40 0 C40 14.52 40 29.04 40 44 C37.36 44 34.72 44 32 44 C31.505 31.625 31.505 31.625 31 19 C28.73936214 26.4786533 28.73936214 26.4786533 26.48266602 33.95849609 C26.20092529 34.88742676 25.91918457 35.81635742 25.62890625 36.7734375 C25.1968689 38.20308838 25.1968689 38.20308838 24.75610352 39.66162109 C24 42 24 42 23 44 C21.02 44 19.04 44 17 44 C15.86988659 40.66837869 14.74685741 37.33440952 13.625 34 C13.30789062 33.06542969 12.99078125 32.13085938 12.6640625 31.16796875 C12.2 29.78544922 12.2 29.78544922 11.7265625 28.375 C11.44377441 27.53710938 11.16098633 26.69921875 10.86962891 25.8359375 C9.77419462 22.26362849 8.90623228 18.6249291 8 15 C7.67 24.57 7.34 34.14 7 44 C4.69 44 2.38 44 0 44 C0 29.48 0 14.96 0 0 Z " fill="#959595" transform="translate(27,99)"/>
<path d="M0 0 C3.32442778 0.80592189 6.64910935 0.52755512 10.0625 0.5 C10.16201569 5.33799361 10.23427037 10.17538025 10.28222656 15.01416016 C10.30223571 16.6571695 10.32945213 18.30010859 10.36425781 19.94287109 C10.41325305 22.31625788 10.43557504 24.68869649 10.453125 27.0625 C10.47377014 27.78679199 10.49441528 28.51108398 10.51568604 29.25732422 C10.51804828 34.73144403 9.1014661 38.92641832 6.0625 43.5 C1.62912795 47.17751846 -2.43697634 46.92778941 -7.9765625 46.8046875 C-11.86262616 46.40480232 -14.52602284 45.36080572 -17.9375 43.5 C-17.33566251 41.47954558 -16.66443904 39.47888961 -15.9375 37.5 C-14.9475 37.005 -14.9475 37.005 -13.9375 36.5 C-13.215625 36.809375 -12.49375 37.11875 -11.75 37.4375 C-8.26740583 38.75314669 -5.63359211 38.84223075 -1.9375 38.5 C0.06734776 37.33115894 0.06734776 37.33115894 1.0625 35.5 C1.0625 34.51 1.0625 33.52 1.0625 32.5 C0.32 33.0259375 0.32 33.0259375 -0.4375 33.5625 C-4.7313513 35.17269424 -8.86541316 34.07557968 -13.1875 32.875 C-17.44958627 29.52621793 -18.72893516 26.22209499 -19.36328125 20.984375 C-19.60080978 14.17069948 -19.65087954 8.43345369 -15.35546875 2.88671875 C-11.1878307 -1.18907053 -5.49938045 -1.41919496 0 0 Z M-8.5625 7.875 C-11.84753666 11.50582999 -12.21268362 13.48483818 -12.16796875 18.39453125 C-11.79234929 21.8260378 -10.39920064 25.03829936 -7.9375 27.5 C-3.8995014 27.76919991 -1.45672149 27.43137318 2.0625 25.5 C2.19737595 22.72754986 2.29650807 19.96162912 2.375 17.1875 C2.41689453 16.40181641 2.45878906 15.61613281 2.50195312 14.80664062 C2.5488767 12.60123244 2.53200218 10.65650758 2.0625 8.5 C-1.82216884 5.0968479 -4.57793247 4.26991509 -8.5625 7.875 Z " fill="#949494" transform="translate(141.9375,109.5)"/>
<path d="M0 0 C3.36401345 1.78697957 5.90508668 3.79907655 8 7 C8 8.32 8 9.64 8 11 C6.02 11.66 4.04 12.32 2 13 C1.278125 12.195625 0.55625 11.39125 -0.1875 10.5625 C-3.07285633 7.93361979 -4.17075093 7.09573123 -8 7 C-10.7774903 7.47730529 -10.7774903 7.47730529 -13 9 C-13.89386164 11.54775306 -13.89386164 11.54775306 -14 14 C-13.34 14 -12.68 14 -12 14 C-12 14.66 -12 15.32 -12 16 C-11.1646875 16.14695312 -11.1646875 16.14695312 -10.3125 16.296875 C-3.49550066 17.63263839 2.21751444 19.56532514 7.5 24.1875 C9.63727798 28.19489621 9.76059364 31.55405576 9 36 C7.11146658 40.07923219 5.64233846 41.62942012 1.75 43.875 C-6.15256643 46.24576993 -10.62909298 45.13214109 -17.80078125 41.484375 C-20.18313473 39.87639219 -21.52660063 38.46043389 -23 36 C-23 35.01 -23 34.02 -23 33 C-21.02 32.34 -19.04 31.68 -17 31 C-16.65388672 31.94746094 -16.65388672 31.94746094 -16.30078125 32.9140625 C-15.16932871 35.1825168 -15.16932871 35.1825168 -12.79296875 35.8984375 C-6.15095224 37.29807583 -6.15095224 37.29807583 0 35 C0.33 34.01 0.66 33.02 1 32 C-2.29011378 27.73503769 -5.40987031 26.33799258 -10.5 24.5625 C-16.07859323 22.52817721 -19.19014896 21.30749641 -22 16 C-22.7617835 12.09105031 -22.37417416 8.88620195 -20.8125 5.1875 C-15.38463075 -1.36337668 -7.90335533 -1.26240321 0 0 Z " fill="#FCFCFC" transform="translate(250,99)"/>
<path d="M0 0 C3.25667232 1.75927453 4.76168054 2.62488537 5.95703125 6.2109375 C6.0384698 7.83813232 6.06456145 9.46845469 6.0546875 11.09765625 C6.05146484 12.03544922 6.04824219 12.97324219 6.04492188 13.93945312 C6.03654297 14.91591797 6.02816406 15.89238281 6.01953125 16.8984375 C6.01501953 17.88650391 6.01050781 18.87457031 6.00585938 19.89257812 C5.99407428 22.33209224 5.97762136 24.77148439 5.95703125 27.2109375 C6.94703125 27.2109375 7.93703125 27.2109375 8.95703125 27.2109375 C8.95703125 29.1909375 8.95703125 31.1709375 8.95703125 33.2109375 C2.33203125 33.4609375 2.33203125 33.4609375 -1.04296875 31.2109375 C-1.72359375 31.7059375 -2.40421875 32.2009375 -3.10546875 32.7109375 C-6.7843725 34.58952665 -8.95209125 34.71332596 -13.04296875 34.2109375 C-18.58143029 31.13401442 -18.58143029 31.13401442 -20.04296875 28.2109375 C-20.73921448 21.13243921 -20.73921448 21.13243921 -17.91796875 17.3984375 C-13.13978205 13.76286066 -9.01695273 11.92212607 -3.04296875 11.2109375 C-3.04296875 9.8909375 -3.04296875 8.5709375 -3.04296875 7.2109375 C-8.01853074 6.92388585 -10.18434559 7.15065016 -14.04296875 10.2109375 C-16.16796875 10.1484375 -16.16796875 10.1484375 -18.04296875 9.2109375 C-19.29296875 7.1484375 -19.29296875 7.1484375 -20.04296875 5.2109375 C-18.94228879 4.39372033 -17.83727144 3.58234299 -16.73046875 2.7734375 C-16.11558594 2.32097656 -15.50070312 1.86851563 -14.8671875 1.40234375 C-10.42843101 -1.49662998 -4.90449379 -1.89427867 0 0 Z M-7.60546875 19.2109375 C-8.43175781 19.5821875 -9.25804687 19.9534375 -10.109375 20.3359375 C-10.74746094 20.6246875 -11.38554687 20.9134375 -12.04296875 21.2109375 C-12.04296875 22.8609375 -12.04296875 24.5109375 -12.04296875 26.2109375 C-10.32873985 27.44489791 -10.32873985 27.44489791 -8.04296875 28.2109375 C-4.74954007 27.23231437 -4.74954007 27.23231437 -2.04296875 25.2109375 C-1.97148676 23.85849833 -1.95897421 22.50259383 -1.98046875 21.1484375 C-2.00109375 19.8490625 -2.02171875 18.5496875 -2.04296875 17.2109375 C-4.00038883 17.2109375 -5.85560566 18.42226681 -7.60546875 19.2109375 Z " fill="#FFFFFF" transform="translate(300.04296875,109.7890625)"/>
<path d="M0 0 C3.97467666 2.30112859 6.72817813 5.43453438 8.1875 9.8125 C8.42015456 12.9921123 8.375 16.18688731 8.375 19.375 C1.445 19.375 -5.485 19.375 -12.625 19.375 C-11.965 21.685 -11.305 23.995 -10.625 26.375 C-7.59163814 26.60393297 -4.65034949 26.73975845 -1.625 26.375 C0.49855567 24.55228073 0.49855567 24.55228073 1.375 22.375 C3.355 23.035 5.335 23.695 7.375 24.375 C7.08040991 27.91008103 6.62618587 29.13703444 4 31.625 C-0.32756244 34.51004163 -4.52378281 35.16469021 -9.625 34.375 C-14.17302113 32.57035816 -16.98494798 30.37508129 -19.625 26.25 C-21.70557443 20.00827672 -21.68089841 12.98690321 -19.0625 6.9375 C-14.83730653 -0.30781415 -7.93267649 -1.8887325 0 0 Z M-11.625 8.375 C-11.955 10.025 -12.285 11.675 -12.625 13.375 C-8.335 13.375 -4.045 13.375 0.375 13.375 C-0.09921699 8.53945713 -0.09921699 8.53945713 -2.5 6.5625 C-6.41759157 4.37325765 -8.59156332 5.44267788 -11.625 8.375 Z " fill="#FFFFFF" transform="translate(378.625,109.625)"/>
<path d="M0 0 C5.46341463 2.92682927 5.46341463 2.92682927 7 6 C7.08426094 7.6674606 7.10725143 9.33825187 7.09765625 11.0078125 C7.09443359 11.99394531 7.09121094 12.98007813 7.08789062 13.99609375 C7.07951172 15.02863281 7.07113281 16.06117187 7.0625 17.125 C7.05798828 18.16527344 7.05347656 19.20554688 7.04882812 20.27734375 C7.03701952 22.85161962 7.02055075 25.42578146 7 28 C7.99 28 8.98 28 10 28 C10 29.98 10 31.96 10 34 C3.44144144 34.12612613 3.44144144 34.12612613 0.8125 33.375 C-1.05904868 32.78937043 -1.05904868 32.78937043 -2.8125 33.9375 C-6.0042698 35.48778819 -8.49640233 35.30733313 -12 35 C-15.82431929 33.30030254 -17.45508194 31.84497544 -19 28 C-19.37944804 24.78619012 -19.0945473 22.049485 -18 19 C-13.33544805 13.95986074 -6.52304015 12.89558133 0 12 C-0.66 10.68 -1.32 9.36 -2 8 C-6.97556199 7.71294835 -9.14137684 7.93971266 -13 11 C-15.125 10.9375 -15.125 10.9375 -17 10 C-18.25 7.9375 -18.25 7.9375 -19 6 C-17.89932004 5.18278283 -16.79430269 4.37140549 -15.6875 3.5625 C-15.07261719 3.11003906 -14.45773438 2.65757813 -13.82421875 2.19140625 C-9.57507241 -0.58373215 -4.89937141 -0.62598442 0 0 Z M-5.5625 19.5 C-6.38878906 19.7784375 -7.21507812 20.056875 -8.06640625 20.34375 C-8.70449219 20.5603125 -9.34257812 20.776875 -10 21 C-10.38133299 22.9914056 -10.71325582 24.99279077 -11 27 C-9.83697846 28.38528649 -9.83697846 28.38528649 -6.625 28.1875 C-2.90324609 28.30453853 -2.90324609 28.30453853 0 26 C0.36297936 24.02252878 0.36297936 24.02252878 0.1875 21.875 C0.125625 20.59625 0.06375 19.3175 0 18 C-1.91924836 18 -3.76394824 18.89203884 -5.5625 19.5 Z " fill="#979797" transform="translate(174,109)"/>
<path d="M0 0 C2.8100346 1.79363911 4.50940468 3.01880935 6 6 C6.08543895 8.10528933 6.10714725 10.21331157 6.09765625 12.3203125 C6.09443359 13.57714844 6.09121094 14.83398438 6.08789062 16.12890625 C6.07951172 17.44761719 6.07113281 18.76632813 6.0625 20.125 C6.05748489 21.46484211 6.05292201 22.804686 6.04882812 24.14453125 C6.03701086 27.42973206 6.02053617 30.71484397 6 34 C3.36 34 0.72 34 -2 34 C-2.495 21.13 -2.495 21.13 -3 8 C-6.75979645 6.63716826 -6.75979645 6.63716826 -9.25 7.9375 C-9.8275 8.288125 -10.405 8.63875 -11 9 C-11.02505615 9.72179443 -11.0501123 10.44358887 -11.07592773 11.18725586 C-11.19151302 14.437535 -11.31440774 17.68749688 -11.4375 20.9375 C-11.47681641 22.07380859 -11.51613281 23.21011719 -11.55664062 24.38085938 C-11.59853516 25.46044922 -11.64042969 26.54003906 -11.68359375 27.65234375 C-11.73858032 29.15269165 -11.73858032 29.15269165 -11.79467773 30.68334961 C-12 33 -12 33 -13 34 C-16.5 34.125 -16.5 34.125 -20 34 C-21.90849948 32.09150052 -21.13059633 28.68521226 -21.1328125 26.15625 C-21.13376923 25.47195923 -21.13472595 24.78766846 -21.13571167 24.0826416 C-21.1363933 22.63338123 -21.13454023 21.18411782 -21.13037109 19.73486328 C-21.12502252 17.50937072 -21.1303166 15.28407999 -21.13671875 13.05859375 C-21.13605797 11.65364539 -21.1347768 10.24869715 -21.1328125 8.84375 C-21.13168457 7.55662109 -21.13055664 6.26949219 -21.12939453 4.94335938 C-21 2 -21 2 -20 1 C-17.73671744 0.9278635 -15.48995407 1.00351911 -13.2265625 1.0625 C-8.68338631 0.93497225 -4.7015354 -0.68735898 0 0 Z " fill="#999999" transform="translate(208,109)"/>
<path d="M0 0 C2.64 0 5.28 0 8 0 C10.31 6.6 12.62 13.2 15 20 C17.14082246 17.85917754 17.59262865 16.69232024 18.5078125 13.8671875 C18.77207031 13.06152344 19.03632813 12.25585938 19.30859375 11.42578125 C19.57800781 10.58402344 19.84742188 9.74226563 20.125 8.875 C20.40214844 8.02550781 20.67929687 7.17601563 20.96484375 6.30078125 C21.6486468 4.20221327 22.32678277 2.10198304 23 0 C25.31 0 27.62 0 30 0 C29.4785845 6.60204034 27.70379298 12.06056511 25.25 18.1875 C24.51921489 20.04414634 23.78874569 21.90091706 23.05859375 23.7578125 C22.52661377 25.10020996 22.52661377 25.10020996 21.98388672 26.46972656 C21.1267468 28.67404372 20.31532831 30.88476407 19.53515625 33.1171875 C19.13167969 34.25414062 18.72820312 35.39109375 18.3125 36.5625 C17.97863281 37.53316406 17.64476562 38.50382812 17.30078125 39.50390625 C15.66615207 42.6406271 13.98243132 44.11843671 11 46 C8.54296875 46.390625 8.54296875 46.390625 6.1875 46.25 C5.39730469 46.21390625 4.60710937 46.1778125 3.79296875 46.140625 C3.20128906 46.09421875 2.60960937 46.0478125 2 46 C1.20046862 42.71303767 0.90341064 41.28976808 2 38 C4.31 38 6.62 38 9 38 C10.85751782 34.28496436 10.22749511 30.77124471 9.08203125 26.88793945 C8.66308594 25.80730225 8.24414062 24.72666504 7.8125 23.61328125 C7.13574219 21.8353418 7.13574219 21.8353418 6.4453125 20.02148438 C5.96835937 18.79751953 5.49140625 17.57355469 5 16.3125 C4.05616943 13.87342644 3.12054804 11.43153418 2.1875 8.98828125 C1.76855469 7.91102783 1.34960938 6.83377441 0.91796875 5.72387695 C0 3 0 3 0 0 Z " fill="#FFFFFF" transform="translate(387,110)"/>
<path d="M0 0 C5.58800973 2.89748653 5.58800973 2.89748653 6.65795898 5.76074219 C7.08558027 8.56027286 7.11154173 11.24548707 7.09765625 14.078125 C7.09443359 15.23828125 7.09121094 16.3984375 7.08789062 17.59375 C7.07951172 18.8003125 7.07113281 20.006875 7.0625 21.25 C7.05798828 22.47203125 7.05347656 23.6940625 7.04882812 24.953125 C7.03704815 27.96879946 7.02059853 30.98437498 7 34 C4.36 34 1.72 34 -1 34 C-1.495 21.13 -1.495 21.13 -2 8 C-5.83441029 6.62507932 -5.83441029 6.62507932 -8.70581055 8.09106445 C-11.211838 9.79862459 -11.211838 9.79862459 -11.65942383 12.54370117 C-11.67513428 13.53345947 -11.69084473 14.52321777 -11.70703125 15.54296875 C-11.73603516 16.61611328 -11.76503906 17.68925781 -11.79492188 18.79492188 C-11.80072266 19.91447266 -11.80652344 21.03402344 -11.8125 22.1875 C-11.83763672 23.31865234 -11.86277344 24.44980469 -11.88867188 25.61523438 C-11.94764384 28.4105053 -11.98385033 31.20420675 -12 34 C-14.64 34 -17.28 34 -20 34 C-20 23.11 -20 12.22 -20 1 C-16.66666667 1 -13.33333333 1 -10 1 C-6.38069302 -0.20643566 -3.80768995 -0.32268559 0 0 Z " fill="#FFFFFF" transform="translate(332,109)"/>
<path d="M0 0 C3.98561154 2.62688033 6.23980531 5.28191592 7.75 9.8125 C8.70027159 23.50006579 8.70027159 23.50006579 4.75 28.8125 C1.0700984 32.21640898 -1.51528618 33.6815782 -6.5625 34.0625 C-11.91430237 33.69966594 -14.96949363 32.23143949 -18.5625 28.25 C-21.33403896 24.24666595 -21.4637235 21.2567557 -21.5 16.5 C-21.52578125 15.18386719 -21.5515625 13.86773437 -21.578125 12.51171875 C-21.07316167 6.81885832 -18.47632621 3.51053543 -14.25 -0.1875 C-9.22141801 -1.863694 -4.90969589 -1.79392735 0 0 Z M-10.875 6.1875 C-14.35806603 10.03720456 -14.40995306 13.74198785 -14.25 18.8125 C-13.40535845 22.45095591 -12.87526301 24.18723699 -10.25 26.8125 C-6.79230809 27.39592353 -6.79230809 27.39592353 -3.25 26.8125 C-0.32443775 23.69190026 0.42046226 20.09741857 0.8203125 15.875 C0.69787811 12.28359118 -0.49688097 9.9430697 -2.25 6.8125 C-5.8899699 4.3858534 -7.0146501 4.16541196 -10.875 6.1875 Z " fill="#959595" transform="translate(93.25,110.1875)"/>
<path d="M0 0 C2.31 0 4.62 0 7 0 C7 2.97 7 5.94 7 9 C8.98 9 10.96 9 13 9 C13 10.98 13 12.96 13 15 C11.02 15 9.04 15 7 15 C7.33 21.6 7.66 28.2 8 35 C9.65 35.33 11.3 35.66 13 36 C13 37.98 13 39.96 13 42 C11.58506449 42.10884119 10.16767057 42.18597617 8.75 42.25 C7.96109375 42.29640625 7.1721875 42.3428125 6.359375 42.390625 C3.08922314 41.84920913 2.06636629 40.54801671 0 38 C-0.45410156 35.43457031 -0.45410156 35.43457031 -0.390625 32.578125 C-0.37773437 31.55332031 -0.36484375 30.52851563 -0.3515625 29.47265625 C-0.31804687 28.40917969 -0.28453125 27.34570312 -0.25 26.25 C-0.23195313 25.17105469 -0.21390625 24.09210938 -0.1953125 22.98046875 C-0.14821415 20.31941212 -0.082456 17.66015746 0 15 C-1.98 15 -3.96 15 -6 15 C-6 13.02 -6 11.04 -6 9 C-4.02 9 -2.04 9 0 9 C0 6.03 0 3.06 0 0 Z " fill="#FFFFFF" transform="translate(265,101)"/>
<path d="M0 0 C2.31 0 4.62 0 7 0 C7.33 12.21 7.66 24.42 8 37 C9.32 37 10.64 37 12 37 C12 39.31 12 41.62 12 44 C10.56344146 44.08131463 9.1255517 44.13933559 7.6875 44.1875 C6.48673828 44.23970703 6.48673828 44.23970703 5.26171875 44.29296875 C2.42803166 43.92591084 1.75459282 43.21014475 0 41 C-0.36076355 39.0827179 -0.36076355 39.0827179 -0.34057617 36.89575195 C-0.34034958 36.07512772 -0.34012299 35.25450348 -0.33988953 34.40901184 C-0.32440567 33.52767075 -0.30892181 32.64632965 -0.29296875 31.73828125 C-0.28872391 30.83248825 -0.28447906 29.92669525 -0.28010559 28.99345398 C-0.26330848 26.09950067 -0.2256545 23.20624294 -0.1875 20.3125 C-0.17245449 18.35092151 -0.15876585 16.38933211 -0.14648438 14.42773438 C-0.11340157 9.61822144 -0.06161222 4.80922867 0 0 Z " fill="#FFFFFF" transform="translate(345,99)"/>
<path d="M0 0 C0 2.31 0 4.62 0 7 C-2.64 7.66 -5.28 8.32 -8 9 C-8 9.66 -8 10.32 -8 11 C-8.66 11 -9.32 11 -10 11 C-10 18.59 -10 26.18 -10 34 C-12.31 34 -14.62 34 -17 34 C-17 23.11 -17 12.22 -17 1 C-14 1 -11 1 -8 1 C-6.7934375 0.4740625 -6.7934375 0.4740625 -5.5625 -0.0625 C-3 -1 -3 -1 0 0 Z " fill="#929292" transform="translate(123,109)"/>
<path d="M0 0 C0.845625 0.309375 1.69125 0.61875 2.5625 0.9375 C6.0497854 2.01538821 9.38177535 2.56581304 13 3 C13 3.33 13 3.66 13 4 C9.04 4 5.08 4 1 4 C0.67 4.66 0.34 5.32 0 6 C3.465 7.485 3.465 7.485 7 9 C2.82412255 10.39195915 0.86525224 8.82323219 -3 7 C-1.125 1.125 -1.125 1.125 0 0 Z " fill="#ACACAC" transform="translate(127,146)"/>
</svg>
