<?xml version="1.0" encoding="UTF-8"?>
<svg version="1.1" xmlns="http://www.w3.org/2000/svg" width="471" height="256">
<path d="M0 0 C2.83029639 0.07308596 5.17570783 0.20879054 7.73583984 1.47436523 C10.7669706 4.75960276 11.56960735 8.96968378 11.77880859 13.29077148 C11.53923576 17.85917766 9.89671661 20.30536629 6.58740234 23.38452148 C0.16104319 28.72971644 -6.81057881 32.89450703 -14.06494141 36.99389648 C-16.4470629 38.25022284 -16.4470629 38.25022284 -17.33447266 40.45092773 C-16.63322266 40.69842773 -15.93197266 40.94592773 -15.20947266 41.20092773 C-12.63289504 42.32117887 -10.47037701 43.61253688 -8.16650391 45.20483398 C-5.94320753 46.71705476 -3.6723711 48.14326946 -1.39697266 49.57592773 C3.86533395 52.91422592 9.06445422 56.34041041 14.23291016 59.82177734 C16.95784874 61.6565179 19.68060225 63.46016922 22.48193359 65.17749023 C28.24421332 68.72788994 31.50988522 71.75074149 33.18896484 78.57983398 C34.26640436 85.46347534 33.41931518 92.13313016 29.54052734 98.01342773 C28.92177734 98.81780273 28.30302734 99.62217773 27.66552734 100.45092773 C24.14104228 99.7839107 21.48252596 98.34734942 18.41552734 96.51342773 C17.52349609 95.9887793 16.63146484 95.46413086 15.71240234 94.92358398 C15.03693359 94.43760742 14.36146484 93.95163086 13.66552734 93.45092773 C13.66552734 92.79092773 13.66552734 92.13092773 13.66552734 91.45092773 C12.9463916 91.18755615 12.22725586 90.92418457 11.48632812 90.65283203 C8.58731001 89.41760041 6.15956949 87.95697436 3.53271484 86.22045898 C2.56076172 85.58172852 1.58880859 84.94299805 0.58740234 84.28491211 C-0.41806641 83.61782227 -1.42353516 82.95073242 -2.45947266 82.26342773 C-4.440836 80.95682002 -6.42260579 79.65082842 -8.40478516 78.34545898 C-9.38825928 77.69681885 -10.3717334 77.04817871 -11.38500977 76.37988281 C-14.25308452 74.50415575 -17.13861852 72.65964995 -20.03369141 70.82592773 C-24.74791607 67.83638846 -29.40827319 64.7807072 -34.02197266 61.63842773 C-34.73546875 61.16211914 -35.44896484 60.68581055 -36.18408203 60.19506836 C-37.9378575 58.99954165 -39.64183834 57.7315532 -41.33447266 56.45092773 C-41.33447266 55.79092773 -41.33447266 55.13092773 -41.33447266 54.45092773 C-42.32447266 54.12092773 -43.31447266 53.79092773 -44.33447266 53.45092773 C-48.3440962 47.59070871 -48.80990143 40.69850852 -48.03759766 33.79858398 C-46.09010617 25.25857064 -40.18690131 21.17973136 -33.33447266 16.32592773 C-32.34447266 15.70717773 -31.35447266 15.08842773 -30.33447266 14.45092773 C-28.93669967 13.51632213 -27.54106496 12.57851475 -26.14697266 11.63842773 C-21.65369007 8.63780291 -17.09502902 5.74611111 -12.52197266 2.86889648 C-8.2773287 0.11745763 -5.09755921 0.0328374 0 0 Z " fill="#FEFEFE" transform="translate(125.33447265625,60.549072265625)"/>
<path d="M0 0 C3.56415623 0.54880606 5.93875897 1.35618859 8.875 3.4375 C9.66003906 3.98148437 10.44507812 4.52546875 11.25390625 5.0859375 C12.61322266 6.03339844 12.61322266 6.03339844 14 7 C16.26740122 8.52629438 18.53758766 10.04750262 20.8125 11.5625 C21.43350586 11.97693359 22.05451172 12.39136719 22.69433594 12.81835938 C28.31414939 16.56119406 33.96548999 20.25503037 39.625 23.9375 C40.47811768 24.4931665 41.33123535 25.04883301 42.21020508 25.62133789 C43.01997803 26.14719482 43.82975098 26.67305176 44.6640625 27.21484375 C45.41977539 27.70581543 46.17548828 28.19678711 46.95410156 28.70263672 C48.63480681 29.76842045 50.3557238 30.77053163 52.0859375 31.75390625 C52.71757812 32.16511719 53.34921875 32.57632813 54 33 C54 33.66 54 34.32 54 35 C55.11375 35.433125 55.11375 35.433125 56.25 35.875 C58.56739797 36.82302644 60.77917115 37.84845911 63 39 C63 39.66 63 40.32 63 41 C63.825 41.20625 64.65 41.4125 65.5 41.625 C70.39924629 43.5497039 75.26545221 46.36482163 78.21875 50.8515625 C79.18227338 53.50125179 79.2654735 55.68382364 79.25 58.5 C79.25773437 59.90765625 79.25773437 59.90765625 79.265625 61.34375 C78.88973336 65.10266637 77.95287081 67.08093392 75.23828125 69.69921875 C70.4163902 72.50146957 65.32861869 72.03501452 60 71 C55.4104653 68.67605064 51.44456045 65.73737124 47.32568359 62.67431641 C42.65250275 59.30997941 37.77479371 56.24621524 32.9375 53.125 C30.98762137 51.85778562 29.03837025 50.589605 27.08984375 49.3203125 C26.19974609 48.74104004 25.30964844 48.16176758 24.39257812 47.56494141 C22.45011923 46.29441472 20.51645573 45.01307854 18.58984375 43.71875 C15.63165989 41.75555106 12.59872091 39.94756248 9.5390625 38.1484375 C8.77722656 37.57996094 8.77722656 37.57996094 8 37 C8 36.34 8 35.68 8 35 C7.0925 34.773125 6.185 34.54625 5.25 34.3125 C1.52482554 32.80810262 0.16557398 31.33165227 -2 28 C-2 27.34 -2 26.68 -2 26 C-2.66 26 -3.32 26 -4 26 C-4.10867663 22.97818586 -4.18762754 19.96033673 -4.25 16.9375 C-4.30027344 15.66616211 -4.30027344 15.66616211 -4.3515625 14.36914062 C-4.44447793 8.35286661 -3.42213997 4.96479755 0 0 Z " fill="#FEFEFE" transform="translate(79,123)"/>
<path d="M0 0 C0 2.97 0 5.94 0 9 C1.32 8.34 2.64 7.68 4 7 C6.5625 7.125 6.5625 7.125 9 8 C10.8125 10.0625 10.8125 10.0625 12 12 C12.639375 11.360625 13.27875 10.72125 13.9375 10.0625 C18.47710228 7.00521683 23.18814658 6.51992747 28.5625 7.4375 C29.366875 7.623125 30.17125 7.80875 31 8 C32.3836361 8.03823138 33.76823733 8.04780291 35.15234375 8.03515625 C36.42207031 8.02355469 37.69179688 8.01195313 39 8 C39.02465881 11.96930989 39.04284023 15.93859034 39.05493164 19.90795898 C39.05997057 21.25920386 39.06680177 22.61044326 39.07543945 23.96166992 C39.08752419 25.90020434 39.09269828 27.838778 39.09765625 29.77734375 C39.10289307 30.94515381 39.10812988 32.11296387 39.11352539 33.31616211 C39 36 39 36 38 37 C36.00041636 37.04080783 33.99954746 37.04254356 32 37 C32 36.34 32 35.68 32 35 C31.01 35.515625 30.02 36.03125 29 36.5625 C24.5609279 38.44955494 21.67740397 38.13162999 17 37 C14 34.9375 14 34.9375 12 33 C11.46375 33.61875 10.9275 34.2375 10.375 34.875 C7.68896977 37.2782902 5.44585438 38.06022153 2 39 C2.66 39.66 3.32 40.32 4 41 C4.125 44.125 4.125 44.125 4 47 C4.639375 46.649375 5.27875 46.29875 5.9375 45.9375 C10.15182635 44.6474001 13.7485268 44.88746496 18 46 C20.99452434 48.24589325 21.81623122 49.44869367 23 53 C23.09278335 54.61513051 23.13068503 56.23377055 23.1328125 57.8515625 C23.13474609 59.25148438 23.13474609 59.25148438 23.13671875 60.6796875 C23.13285156 61.65164062 23.12898438 62.62359375 23.125 63.625 C23.13080078 65.09453125 23.13080078 65.09453125 23.13671875 66.59375 C23.13542969 67.52445312 23.13414062 68.45515625 23.1328125 69.4140625 C23.13168457 70.2695166 23.13055664 71.1249707 23.12939453 72.00634766 C23 74 23 74 22 75 C19.5 75.125 19.5 75.125 17 75 C14.91176625 72.91176625 15.62777989 68.52134425 15.5 65.625 C15.30184009 59.72811687 15.30184009 59.72811687 14 54 C9.90569133 53.59323977 9.90569133 53.59323977 6.33276367 55.24731445 C4.70919682 57.38242829 4.58261911 58.57014109 4.48828125 61.23046875 C4.45283203 62.03291016 4.41738281 62.83535156 4.38085938 63.66210938 C4.35830078 64.49548828 4.33574219 65.32886719 4.3125 66.1875 C4.27833984 67.03248047 4.24417969 67.87746094 4.20898438 68.74804688 C4.12658529 70.83156649 4.06161355 72.91576216 4 75 C1.69 75 -0.62 75 -3 75 C-3 61.8 -3 48.6 -3 35 C-4.32 34.34 -5.64 33.68 -7 33 C-7.33 32.01 -7.66 31.02 -8 30 C-8.3403125 30.49371094 -8.680625 30.98742187 -9.03125 31.49609375 C-11.61321478 34.90895677 -13.5747731 37.40213102 -17.9375 38.125 C-22.24123561 38.32363395 -25.23486701 36.99782567 -29 35 C-30 34 -30 34 -30.0625 30.9375 C-30.041875 29.968125 -30.02125 28.99875 -30 28 C-29.0409375 28.2165625 -29.0409375 28.2165625 -28.0625 28.4375 C-24.06155212 29.17236798 -20.04495104 29.58581111 -16 30 C-16.33 29.01 -16.66 28.02 -17 27 C-19.29598193 25.91698965 -21.63477442 24.92203709 -24 24 C-27.86440678 22.27118644 -27.86440678 22.27118644 -29 20 C-29.56755089 12.96236891 -29.56755089 12.96236891 -27.5625 9.5625 C-23.83913797 7.2921573 -20.32426376 6.9150591 -16 7 C-12.73796244 7.90226571 -11.38432398 8.61567602 -9 11 C-8.875 13.625 -8.875 13.625 -9 16 C-10.875 16.625 -10.875 16.625 -13 17 C-13.66 16.34 -14.32 15.68 -15 15 C-18.58343976 14.83322718 -18.58343976 14.83322718 -22 15 C-20.00138042 17.24759749 -20.00138042 17.24759749 -16.625 18.4375 C-13.58672925 19.74709946 -11.54929134 20.98415068 -9 23 C-8.98541748 22.40985107 -8.97083496 21.81970215 -8.95581055 21.21166992 C-8.88131156 18.53628771 -8.78466005 15.86215108 -8.6875 13.1875 C-8.66494141 12.25873047 -8.64238281 11.32996094 -8.61914062 10.37304688 C-8.58369141 9.48037109 -8.54824219 8.58769531 -8.51171875 7.66796875 C-8.48553467 6.84578857 -8.45935059 6.0236084 -8.43237305 5.17651367 C-7.45550991 0.25910269 -4.58246287 -0.37155104 0 0 Z M0 14 C-0.02685095 16.47923801 -0.04676547 18.9581884 -0.0625 21.4375 C-0.07087891 22.14455078 -0.07925781 22.85160156 -0.08789062 23.58007812 C-0.09653588 25.38693559 -0.05220011 27.19387603 0 29 C0.33 29.33 0.66 29.66 1 30 C4.02116333 29.8229564 6.99598232 29.38079097 10 29 C10 24.38 10 19.76 10 15 C8.02 15.33 6.04 15.66 4 16 C1.625 15.0625 1.625 15.0625 0 14 Z M17 18 C15.89601245 21.0753939 15.86367932 22.54909314 16.8125 25.6875 C17.90897644 28.11298256 17.90897644 28.11298256 20 30 C23.85506762 30.42834085 26.12800365 30.55897202 29.4375 28.4375 C31.61348954 25.04295632 31.55627159 22.9634351 31 19 C29.54366876 15.97061306 29.54366876 15.97061306 27 14 C22.15269352 13.09113003 19.88961326 14.04015961 17 18 Z " fill="#898989" transform="translate(219,86)"/>
<path d="M0 0 C4.75 0.875 4.75 0.875 7 2 C7 13.55 7 25.1 7 37 C4.03 37 1.06 37 -2 37 C-3.36125 37.226875 -4.7225 37.45375 -6.125 37.6875 C-10.7800279 38.06290548 -12.98533441 37.34820063 -17 35 C-19.10359034 33.09826934 -20.38373793 31.39990429 -22 29 C-22 27.68 -22 26.36 -22 25 C-31.9 25.495 -31.9 25.495 -42 26 C-39.45346504 29.13304478 -39.45346504 29.13304478 -36.94921875 29.328125 C-36.20285156 29.30234375 -35.45648438 29.2765625 -34.6875 29.25 C-33.50414062 29.21132812 -33.50414062 29.21132812 -32.296875 29.171875 C-29.48934359 28.96178762 -26.75753489 28.56564818 -24 28 C-23.52041703 33.39530843 -23.52041703 33.39530843 -25.4375 35.8125 C-30.2383192 38.03726987 -35.02030371 38.38817574 -40.1875 37.375 C-44.50675983 35.26336186 -47.93799897 32.83436541 -50.375 28.625 C-51.42844233 24.2005422 -51.43819559 20.31458677 -50 16 C-53.24983135 17.08784968 -53.24983135 17.08784968 -56 19 C-56.2110218 21.83707088 -56.37607813 24.65897646 -56.5 27.5 C-56.86486486 35.86486486 -56.86486486 35.86486486 -58 37 C-59.99958364 37.04080783 -62.00045254 37.04254356 -64 37 C-65.35048039 34.29903923 -65.12963577 32.17273483 -65.1328125 29.15234375 C-65.13410156 27.99025391 -65.13539063 26.82816406 -65.13671875 25.63085938 C-65.13285156 24.41205078 -65.12898438 23.19324219 -65.125 21.9375 C-65.12886719 20.71482422 -65.13273437 19.49214844 -65.13671875 18.23242188 C-65.13542969 17.07162109 -65.13414062 15.91082031 -65.1328125 14.71484375 C-65.13168457 13.64355225 -65.13055664 12.57226074 -65.12939453 11.46850586 C-65 9 -65 9 -64 8 C-61.66705225 7.95758277 -59.33297433 7.95907063 -57 8 C-53.95799954 8 -51.00467194 7.44513658 -48 7 C-47.67 8.65 -47.34 10.3 -47 12 C-46.360625 11.360625 -45.72125 10.72125 -45.0625 10.0625 C-41.06859896 7.37272991 -37.77739257 6.79706651 -33 7 C-27.72225113 8.7254179 -25.24587717 11.7039861 -22 16 C-21.63648438 15.51789063 -21.27296875 15.03578125 -20.8984375 14.5390625 C-17.65322963 10.46175004 -15.36436455 7.85829833 -10 7 C-2.7183908 7.2816092 -2.7183908 7.2816092 -1 9 C-0.67 6.03 -0.34 3.06 0 0 Z M-40 15 C-40.66 16.32 -41.32 17.64 -42 19 C-38.04 19 -34.08 19 -30 19 C-30.66 17.68 -31.32 16.36 -32 15 C-34.64 15 -37.28 15 -40 15 Z M-12.875 16.0625 C-14.58815561 19.01293466 -14.82212833 21.62043823 -15 25 C-14.04357118 27.79571502 -13.64701022 28.67649489 -11 30 C-5.67032792 30.34092041 -5.67032792 30.34092041 -1 28 C0.13713546 22.72129832 0.13713546 22.72129832 -0.8125 17.5625 C-1.93294306 15.84956695 -1.93294306 15.84956695 -4 15 C-8.61823824 14.5773491 -8.61823824 14.5773491 -12.875 16.0625 Z " fill="#898989" transform="translate(403,124)"/>
<path d="M0 0 C5.75 0.75 5.75 0.75 8 3 C8 4.32 8 5.64 8 7 C8.886875 6.896875 9.77375 6.79375 10.6875 6.6875 C15.00684858 7.09498572 16.25642975 8.7722703 19 12 C19.639375 11.360625 20.27875 10.72125 20.9375 10.0625 C24.95231443 7.35864539 28.18602458 6.67159236 33 7 C37.4782136 8.24955353 40.26009933 9.98263658 43 13.75 C44 17 44 17 44 25 C37.4 25 30.8 25 24 25 C26.39351831 29.1098654 26.39351831 29.1098654 29.05078125 29.42578125 C30.17033203 29.36970703 30.17033203 29.36970703 31.3125 29.3125 C32.10140625 29.27769531 32.8903125 29.24289063 33.703125 29.20703125 C36.50401192 28.95457035 39.2450233 28.56512343 42 28 C42.48160535 33.4180602 42.48160535 33.4180602 40.5 35.8125 C35.55921797 38.15937146 31.4155609 38.30167691 26.1875 37.1875 C23 36 23 36 20 34 C20 33.34 20 32.68 20 32 C19.34 32 18.68 32 18 32 C17.67 33.65 17.34 35.3 17 37 C7.0296496 38.60742033 7.0296496 38.60742033 3 36 C-0.3322103 31.75243555 -0.36834999 27.87650353 -0.1875 22.6875 C-0.16719727 21.57665039 -0.16719727 21.57665039 -0.14648438 20.44335938 C-0.11135979 18.62858925 -0.05755972 16.81419712 0 15 C-2.31 15.33 -4.62 15.66 -7 16 C-9.1543038 20.4399676 -9.41745846 24.47418774 -9.625 29.3125 C-9.66367187 30.05306641 -9.70234375 30.79363281 -9.7421875 31.55664062 C-9.83581705 33.37071309 -9.91896851 35.18532116 -10 37 C-11.98 37 -13.96 37 -16 37 C-16 27.43 -16 17.86 -16 8 C-14.02 8 -12.04 8 -10 8 C-9.67 8.66 -9.34 9.32 -9 10 C-8.236875 9.505 -7.47375 9.01 -6.6875 8.5 C-4 7 -4 7 -1 7 C-0.67 4.69 -0.34 2.38 0 0 Z M26 15 C25.34 16.32 24.68 17.64 24 19 C27.96 19 31.92 19 36 19 C35.34 17.68 34.68 16.36 34 15 C31.36 15 28.72 15 26 15 Z M13 16 C10.3125 16.125 10.3125 16.125 8 16 C7.97314062 18.14576637 7.95366912 20.29162645 7.9375 22.4375 C7.92589844 23.63246094 7.91429687 24.82742187 7.90234375 26.05859375 C7.66098208 28.88873341 7.66098208 28.88873341 9 30 C11.95817107 30.25005386 11.95817107 30.25005386 15 30 C15.66 29.34 16.32 28.68 17 28 C16.67949202 25.66487041 16.34403308 23.33177975 16 21 C16.2602896 18.65739357 16.57420028 16.3182429 17 14 C15.53774984 13.90754997 15.53774984 13.90754997 13 16 Z " fill="#888888" transform="translate(293,124)"/>
<path d="M0 0 C0 12.21 0 24.42 0 37 C-6 37 -6 37 -9 36 C-9.8353125 36.495 -9.8353125 36.495 -10.6875 37 C-14.2167796 38.52617496 -17.41311531 38.07122761 -21 37 C-25.06737115 34.64329054 -28.22080306 31.34914809 -30 27 C-30.52917527 22.24582214 -30.7017494 19.0526241 -28 15 C-31.79547921 15.96776098 -31.79547921 15.96776098 -35 18 C-35.21144292 20.81630224 -35.37628157 23.61717799 -35.5 26.4375 C-35.86559982 34.73119964 -35.86559982 34.73119964 -37 37 C-38.99954746 37.04254356 -41.00041636 37.04080783 -43 37 C-44 36 -44 36 -44.11352539 33.31616211 C-44.10828857 32.14835205 -44.10305176 30.98054199 -44.09765625 29.77734375 C-44.09443359 28.51728516 -44.09121094 27.25722656 -44.08789062 25.95898438 C-44.07953403 24.61848891 -44.07106907 23.27799412 -44.0625 21.9375 C-44.0574866 20.59310058 -44.05292342 19.2486994 -44.04882812 17.90429688 C-44.03699488 14.60282059 -44.02050971 11.30143197 -44 8 C-40.66666667 8 -37.33333333 8 -34 8 C-32.515 7.6596875 -32.515 7.6596875 -31 7.3125 C-28 7 -28 7 -26.125 8.4375 C-25.568125 9.2109375 -25.568125 9.2109375 -25 10 C-24.21625 9.484375 -23.4325 8.96875 -22.625 8.4375 C-17.7980349 6.52335867 -14.03170452 7.17464135 -9 8 C-8.731875 7.05125 -8.46375 6.1025 -8.1875 5.125 C-6.41432881 0.45876003 -4.92552446 0 0 0 Z M-21 16 C-22.60160199 19.20320397 -22.48770192 22.52426522 -22 26 C-20.54002013 28.62716577 -20.54002013 28.62716577 -18 30 C-14.39853135 30.60024477 -12.72140596 30.45562482 -9.625 28.5 C-7.34866712 24.99794942 -7.17499776 22.06667773 -8 18 C-9.52277007 15.39279682 -9.52277007 15.39279682 -12 14 C-15.57572137 13.46364179 -17.96811039 14.05092811 -21 16 Z " fill="#878787" transform="translate(397,86)"/>
<path d="M0 0 C3.69408334 1.70833103 5.58673094 4.1914301 7.4375 7.8125 C8.36596741 13.07381531 8.03435325 17.44847012 5 22 C4.34 22 3.68 22 3 22 C3 22.66 3 23.32 3 24 C-1.34117503 26.37846115 -5.14964231 27.04986097 -10 26 C-16.51864242 22.74453597 -22.37390561 18.62589983 -28 14 C-27.828125 12.22265625 -27.828125 12.22265625 -27 10 C-24.671875 8.18359375 -24.671875 8.18359375 -21.75 6.4375 C-20.79609375 5.85871094 -19.8421875 5.27992187 -18.859375 4.68359375 C-17.91578125 4.12800781 -16.9721875 3.57242188 -16 3 C-15.16855469 2.44441406 -14.33710938 1.88882813 -13.48046875 1.31640625 C-9.14391006 -0.98504301 -4.77046931 -0.74145124 0 0 Z " fill="#FDFDFD" transform="translate(149,87)"/>
<path d="M0 0 C0 12.21 0 24.42 0 37 C-3.33333333 37 -6.66666667 37 -10 37 C-11.093125 37.226875 -12.18625 37.45375 -13.3125 37.6875 C-17.83391474 38.07067074 -20.07242803 37.22315395 -24 35 C-28.61670488 30.14031065 -29.36827815 26.07080356 -29.2734375 19.57421875 C-28.82586098 15.36060547 -27.65739044 13.33877261 -25 10 C-19.48719507 6.54098514 -15.1296215 6.84635242 -9 8 C-8.731875 7.05125 -8.46375 6.1025 -8.1875 5.125 C-6.41432881 0.45876003 -4.92552446 0 0 0 Z M-22 19 C-22.71588388 22.81804737 -22.29055839 24.46537255 -20.4375 27.875 C-18.07926321 30.31095085 -18.07926321 30.31095085 -14.4375 30.5625 C-11.05602294 30.28943996 -11.05602294 30.28943996 -9.0625 28.5 C-7.54986811 24.94086615 -7.29805625 21.80609501 -8 18 C-9.9427206 15.12189541 -11.06526229 14.2157087 -14.4375 13.4375 C-18.22174087 14.26818702 -19.68262395 15.95430577 -22 19 Z " fill="#888888" transform="translate(318,86)"/>
<path d="M0 0 C1.85211329 1.09322303 3.60049525 2.26512981 5.35107422 3.51416016 C5.94919922 3.91828125 6.54732422 4.32240234 7.16357422 4.73876953 C8.82567688 5.86951415 10.4643008 7.03455202 12.10107422 8.20166016 C12.90029297 8.71083984 13.69951172 9.22001953 14.52294922 9.74462891 C15.04373047 10.22544922 15.56451172 10.70626953 16.10107422 11.20166016 C16.10107422 12.52166016 16.10107422 13.84166016 16.10107422 15.20166016 C14.12451172 16.76416016 14.12451172 16.76416016 11.47607422 18.20166016 C8.44624663 19.86658633 5.94197377 21.33601164 3.28857422 23.57666016 C-1.78152916 26.16141874 -7.31791447 26.02875262 -12.89892578 25.20166016 C-14.79345703 23.79931641 -14.79345703 23.79931641 -15.89892578 22.20166016 C-15.89892578 21.54166016 -15.89892578 20.88166016 -15.89892578 20.20166016 C-16.55892578 20.20166016 -17.21892578 20.20166016 -17.89892578 20.20166016 C-17.89892578 15.25166016 -17.89892578 10.30166016 -17.89892578 5.20166016 C-17.23892578 5.20166016 -16.57892578 5.20166016 -15.89892578 5.20166016 C-15.65142578 4.58291016 -15.40392578 3.96416016 -15.14892578 3.32666016 C-12.08599621 -1.88032011 -5.24053594 -2.20320809 0 0 Z " fill="#FDFDFD" transform="translate(92.89892578125,168.79833984375)"/>
<path d="M0 0 C4.48487356 0.50352366 8.54500431 0.625 13.125 0.625 C13.125 10.195 13.125 19.765 13.125 29.625 C9.825 29.625 6.525 29.625 3.125 29.625 C1.8875 29.83125 0.65 30.0375 -0.625 30.25 C-4.43428773 30.6895332 -6.42432201 30.27532425 -9.875 28.625 C-12.75 26.1875 -12.75 26.1875 -14.875 23.625 C-14.875 22.635 -14.875 21.645 -14.875 20.625 C-15.535 20.625 -16.195 20.625 -16.875 20.625 C-17.58624966 13.45981826 -17.25785308 8.8786236 -12.67578125 3.18359375 C-8.65151935 -0.2994442 -5.15065753 -0.60202491 0 0 Z M-7.8125 8.8125 C-9.19456119 11.17013379 -9.6795898 12.88925721 -9.875 15.625 C-8.81100927 19.43763347 -8.2498349 20.37511007 -4.875 22.625 C-1.2977467 23.08167063 0.45958305 23.06277431 3.5 21.0625 C5.7335569 17.71216465 5.61898209 15.5768567 5.125 11.625 C4.31047684 9.06648975 4.31047684 9.06648975 2.125 7.625 C-1.46209227 6.96736642 -4.6572271 6.87862306 -7.8125 8.8125 Z " fill="#868686" transform="translate(259.875,131.375)"/>
<path d="M0 0 C4.640874 0.52450507 9.14778982 0.60759387 13.8125 0.5625 C13.83715881 4.53180989 13.85534023 8.50109034 13.86743164 12.47045898 C13.87247057 13.82170386 13.87930177 15.17294326 13.88793945 16.52416992 C13.90002419 18.46270434 13.90519828 20.401278 13.91015625 22.33984375 C13.91801147 24.09155884 13.91801147 24.09155884 13.92602539 25.87866211 C13.8125 28.5625 13.8125 28.5625 12.8125 29.5625 C10.81297242 29.60596799 8.81210012 29.602492 6.8125 29.5625 C3.68123808 29.45314427 3.68123808 29.45314427 0.1875 30.375 C-4.42818043 30.97222298 -7.39749721 29.50847158 -11.265625 27.07421875 C-14.72156111 24.35582998 -15.92112302 21.70895795 -16.45703125 17.390625 C-16.68375543 12.38589873 -16.05002299 8.80693063 -13.1875 4.5625 C-8.78774185 0.49272371 -5.90618879 -0.674755 0 0 Z M-8.1875 10.5625 C-8.88944375 14.36859501 -8.63763189 17.50336615 -7.125 21.0625 C-5.13384249 22.85813263 -5.13384249 22.85813263 -1.75 23.0625 C1.77425238 22.81043376 1.77425238 22.81043376 4.25 21.0625 C6.14491656 18.03063351 6.45016746 16.00141992 6.265625 12.46875 C5.89950329 10.26961725 5.89950329 10.26961725 3.625 8.0625 C-1.4750557 5.34247029 -4.83739547 5.59938218 -8.1875 10.5625 Z " fill="#888888" transform="translate(336.1875,93.4375)"/>
<path d="M0 0 C2.45243461 1.90063682 3.62927427 3.25854855 5 6 C5.08449628 7.7404417 5.10723024 9.48409722 5.09765625 11.2265625 C5.09443359 12.2578125 5.09121094 13.2890625 5.08789062 14.3515625 C5.07951172 15.43179688 5.07113281 16.51203125 5.0625 17.625 C5.05798828 18.71296875 5.05347656 19.8009375 5.04882812 20.921875 C5.03701776 23.61463789 5.02054778 26.30729188 5 29 C3.00045254 29.04254356 0.99958364 29.04080783 -1 29 C-2.61780157 27.38219843 -2.22272147 25.54364482 -2.31640625 23.30859375 C-2.35830078 22.36435547 -2.40019531 21.42011719 -2.44335938 20.44726562 C-2.48267578 19.45404297 -2.52199219 18.46082031 -2.5625 17.4375 C-2.60568359 16.44041016 -2.64886719 15.44332031 -2.69335938 14.41601562 C-2.79980298 11.9441585 -2.90181928 9.4721969 -3 7 C-5.83151973 6.58190799 -5.83151973 6.58190799 -9 7 C-12.25967608 9.72915833 -13.21928929 12.0992829 -13.609375 16.20703125 C-13.67523162 17.7414904 -13.72168195 19.27688935 -13.75 20.8125 C-13.77964844 21.60076172 -13.80929687 22.38902344 -13.83984375 23.20117188 C-13.91011293 25.13357446 -13.95737134 27.06679015 -14 29 C-15.99954746 29.04254356 -18.00041636 29.04080783 -20 29 C-21.80279191 27.19720809 -21.13036605 24.45952299 -21.1328125 22.03125 C-21.13410156 20.82082031 -21.13539063 19.61039063 -21.13671875 18.36328125 C-21.13285156 17.08839844 -21.12898438 15.81351563 -21.125 14.5 C-21.12886719 13.22511719 -21.13273437 11.95023438 -21.13671875 10.63671875 C-21.13542969 9.42628906 -21.13414062 8.21585938 -21.1328125 6.96875 C-21.13168457 5.84919922 -21.13055664 4.72964844 -21.12939453 3.57617188 C-21 1 -21 1 -20 0 C-18.00045254 -0.04254356 -15.99958364 -0.04080783 -14 0 C0 0 0 0 0 0 Z " fill="#878787" transform="translate(282,94)"/>
<path d="M0 0 C0 0.99 0 1.98 0 3 C-1.828125 4.359375 -1.828125 4.359375 -4.25 5.75 C-8.62847404 8.57015099 -11.52682376 10.8975419 -13 16 C-14.05758854 23.3363247 -13.01609356 29.71806986 -9 36 C-6.91444964 37.90332221 -6.91444964 37.90332221 -5 39 C-5 39.66 -5 40.32 -5 41 C-4.29875 41.268125 -3.5975 41.53625 -2.875 41.8125 C1.70121033 43.70267383 5.56122345 45.40491543 9 49 C11.09989652 50.17574711 11.09989652 50.17574711 13 51 C13 51.66 13 52.32 13 53 C13.515625 53.0825 14.03125 53.165 14.5625 53.25 C18.04455732 54.32140225 20.87200885 56.13523605 24 58 C24 58.66 24 59.32 24 60 C24.67675781 60.23332031 25.35351562 60.46664062 26.05078125 60.70703125 C29.73195082 62.320895 32.87500355 64.42838668 36.1875 66.6875 C36.84806396 67.13158203 37.50862793 67.57566406 38.18920898 68.03320312 C42.02914984 70.62400659 45.80647102 73.28858091 49.5625 76 C52.92312543 78.38441704 55.93659821 80.03761536 60 81 C62.85347021 73.71317213 64.36567938 66.64867638 62 59 C56.94217736 51.92898997 48.04230471 47.64259679 40.74902344 43.10253906 C38.06811591 41.41256441 35.44183078 39.64382253 32.8125 37.875 C28.05039396 34.68113771 23.23404344 31.58710162 18.375 28.54296875 C16.17316568 27.11250073 14.07886952 25.60246192 12 24 C13.44472346 20.19118361 15.32603071 18.70257114 19 17 C19.99 17.33 20.98 17.66 22 18 C21.030625 18.61875 20.06125 19.2375 19.0625 19.875 C15.97164638 21.65678846 15.97164638 21.65678846 15 24 C15.70125 24.2475 16.4025 24.495 17.125 24.75 C19.70157762 25.87025114 21.86409564 27.16160914 24.16796875 28.75390625 C26.39126513 30.26612703 28.66210156 31.69234172 30.9375 33.125 C36.19980661 36.46329819 41.39892688 39.88948267 46.56738281 43.37084961 C49.29232139 45.20559017 52.01507491 47.00924148 54.81640625 48.7265625 C60.57868598 52.2769622 63.84435788 55.29981375 65.5234375 62.12890625 C66.60087702 69.0125476 65.75378784 75.68220243 61.875 81.5625 C61.25625 82.366875 60.6375 83.17125 60 84 C56.47551493 83.33298297 53.81699862 81.89642169 50.75 80.0625 C49.85796875 79.53785156 48.9659375 79.01320313 48.046875 78.47265625 C47.37140625 77.98667969 46.6959375 77.50070313 46 77 C46 76.34 46 75.68 46 75 C45.28086426 74.73662842 44.56172852 74.47325684 43.82080078 74.2019043 C40.92178266 72.96667267 38.49404215 71.50604662 35.8671875 69.76953125 C34.89523438 69.13080078 33.92328125 68.49207031 32.921875 67.83398438 C31.91640625 67.16689453 30.9109375 66.49980469 29.875 65.8125 C27.89363666 64.50589228 25.91186687 63.19990069 23.9296875 61.89453125 C22.94621338 61.24589111 21.96273926 60.59725098 20.94946289 59.92895508 C18.08138813 58.05322801 15.19585414 56.20872222 12.30078125 54.375 C7.58655658 51.38546072 2.92619947 48.32977946 -1.6875 45.1875 C-2.40099609 44.71119141 -3.11449219 44.23488281 -3.84960938 43.74414062 C-5.60338484 42.54861391 -7.30736568 41.28062546 -9 40 C-9 39.34 -9 38.68 -9 38 C-9.99 37.67 -10.98 37.34 -12 37 C-16.00962354 31.13978097 -16.47542878 24.24758079 -15.703125 17.34765625 C-14.06231163 10.15246791 -9.91324554 6.18128974 -4 2 C-2.6846659 1.29848848 -1.35656459 0.61802487 0 0 Z " fill="#D4D4D4" transform="translate(93,77)"/>
<path d="M0 0 C1.28583984 0.10054687 1.28583984 0.10054687 2.59765625 0.203125 C5.31183623 0.83749094 6.30680658 1.51044378 7.9375 3.75 C8.125 6.9375 8.125 6.9375 7.9375 9.75 C7.1125 9.585 6.2875 9.42 5.4375 9.25 C-1.50178943 8.09383447 -1.50178943 8.09383447 -8.0625 9.875 C-9.566606 12.69519875 -9.51162849 14.60610056 -9.0625 17.75 C-7.68966577 20.29002013 -7.68966577 20.29002013 -5.0625 21.75 C-0.48745669 22.11309868 3.47257272 21.86623182 7.9375 20.75 C8.125 24.125 8.125 24.125 7.9375 27.75 C3.1959626 30.91102493 -1.76417515 31.19198555 -7.3125 30.125 C-11.47003408 28.04623296 -14.12738019 25.44212156 -16.375 21.375 C-18.01224636 15.12369573 -17.14586909 10.38512282 -14.0625 4.75 C-9.57651779 0.37904298 -6.12424022 -0.55422988 0 0 Z " fill="#898989" transform="translate(206.0625,131.25)"/>
<path d="M0 0 C0.33 2.31 0.66 4.62 1 7 C0.43410156 7.27714844 -0.13179688 7.55429688 -0.71484375 7.83984375 C-1.44832031 8.20207031 -2.18179687 8.56429687 -2.9375 8.9375 C-3.66839844 9.29714844 -4.39929688 9.65679687 -5.15234375 10.02734375 C-6.96249027 10.86371827 -6.96249027 10.86371827 -8 12 C-8.2110218 14.83707088 -8.37607813 17.65897646 -8.5 20.5 C-8.86486486 28.86486486 -8.86486486 28.86486486 -10 30 C-11.99958364 30.04080783 -14.00045254 30.04254356 -16 30 C-17.35048039 27.29903923 -17.12963577 25.17273483 -17.1328125 22.15234375 C-17.13410156 20.99025391 -17.13539063 19.82816406 -17.13671875 18.63085938 C-17.13285156 17.41205078 -17.12898438 16.19324219 -17.125 14.9375 C-17.12886719 13.71482422 -17.13273437 12.49214844 -17.13671875 11.23242188 C-17.13542969 10.07162109 -17.13414062 8.91082031 -17.1328125 7.71484375 C-17.13168457 6.64355225 -17.13055664 5.57226074 -17.12939453 4.46850586 C-17 2 -17 2 -16 1 C-13.66705225 0.95758277 -11.33297433 0.95907063 -9 1 C-5.82631863 1 -3.30497421 0 0 0 Z " fill="#7E7E7E" transform="translate(355,131)"/>
<path d="M0 0 C0.125 2.375 0.125 2.375 0 5 C-2.22922955 7.22922955 -4.09135278 7.88128953 -7 9 C-9.09570947 11.09570947 -8.37238899 15.5284417 -8.5 18.4375 C-8.86559982 26.73119964 -8.86559982 26.73119964 -10 29 C-11.99954746 29.04254356 -14.00041636 29.04080783 -16 29 C-17 28 -17 28 -17.11352539 25.31616211 C-17.10828857 24.14835205 -17.10305176 22.98054199 -17.09765625 21.77734375 C-17.09443359 20.51728516 -17.09121094 19.25722656 -17.08789062 17.95898438 C-17.07953403 16.61848891 -17.07106907 15.27799412 -17.0625 13.9375 C-17.0574866 12.59310058 -17.05292342 11.2486994 -17.04882812 9.90429688 C-17.03699488 6.60282059 -17.02050971 3.30143197 -17 0 C-13.66666667 0 -10.33333333 0 -7 0 C-3.86650268 -1.04449911 -3.01031744 -0.93423645 0 0 Z " fill="#8E8E8E" transform="translate(370,94)"/>
<path d="M0 0 C3.56415623 0.54880606 5.93875897 1.35618859 8.875 3.4375 C9.66003906 3.98148437 10.44507812 4.52546875 11.25390625 5.0859375 C12.61322266 6.03339844 12.61322266 6.03339844 14 7 C16.26740122 8.52629438 18.53758766 10.04750262 20.8125 11.5625 C21.43350586 11.97693359 22.05451172 12.39136719 22.69433594 12.81835938 C28.31414939 16.56119406 33.96548999 20.25503037 39.625 23.9375 C40.47811768 24.4931665 41.33123535 25.04883301 42.21020508 25.62133789 C43.01997803 26.14719482 43.82975098 26.67305176 44.6640625 27.21484375 C45.41977539 27.70581543 46.17548828 28.19678711 46.95410156 28.70263672 C48.63480681 29.76842045 50.3557238 30.77053163 52.0859375 31.75390625 C52.71757812 32.16511719 53.34921875 32.57632813 54 33 C54 33.66 54 34.32 54 35 C55.11375 35.433125 55.11375 35.433125 56.25 35.875 C58.56739797 36.82302644 60.77917115 37.84845911 63 39 C63 39.66 63 40.32 63 41 C63.825 41.20625 64.65 41.4125 65.5 41.625 C70.39924629 43.5497039 75.26545221 46.36482163 78.21875 50.8515625 C79.18227338 53.50125179 79.2654735 55.68382364 79.25 58.5 C79.25773437 59.90765625 79.25773437 59.90765625 79.265625 61.34375 C78.89101805 65.08981953 77.86471692 67.19293087 75.125 69.75 C73 71 73 71 69 71 C69 70.34 69 69.68 69 69 C69.763125 68.773125 70.52625 68.54625 71.3125 68.3125 C74.68439721 66.6657595 75.54704383 65.44121198 77 62 C77.3997114 57.52323228 77.25460037 53.94555065 75 50 C73.68539227 49.29712823 72.34864226 48.63512697 71 48 C69.63353673 47.15898244 68.28001029 46.29671702 66.9375 45.41796875 C66.15020508 44.90435791 65.36291016 44.39074707 64.55175781 43.86157227 C63.70967773 43.30912842 62.86759766 42.75668457 62 42.1875 C60.20323276 41.01285598 58.40635445 39.83838184 56.609375 38.6640625 C55.68576172 38.05981445 54.76214844 37.45556641 53.81054688 36.83300781 C51.05122426 35.0334079 48.28490694 33.24516617 45.515625 31.4609375 C44.63261719 30.89093018 43.74960938 30.32092285 42.83984375 29.73364258 C41.16150173 28.65066265 39.481891 27.56964537 37.80078125 26.4909668 C33.33941638 23.60564773 29.03985799 20.60087409 24.84594727 17.33740234 C22.1857155 15.4100449 19.33962281 13.91014735 16.4453125 12.3671875 C12.60421787 10.21961063 8.95728738 7.77773246 5.28515625 5.35546875 C3.15612816 3.82994498 3.15612816 3.82994498 1 4 C-2.01667085 9.01986699 -2.38714622 12.71323804 -2.1875 18.375 C-2.17396484 19.11105469 -2.16042969 19.84710938 -2.14648438 20.60546875 C-2.11144869 22.40396743 -2.05765288 24.20208422 -2 26 C-2.66 26 -3.32 26 -4 26 C-4.10867663 22.97818586 -4.18762754 19.96033673 -4.25 16.9375 C-4.30027344 15.66616211 -4.30027344 15.66616211 -4.3515625 14.36914062 C-4.44447793 8.35286661 -3.42213997 4.96479755 0 0 Z " fill="#D8D8D8" transform="translate(79,123)"/>
<path d="M0 0 C3.69408334 1.70833103 5.58673094 4.1914301 7.4375 7.8125 C8.36596741 13.07381531 8.03435325 17.44847012 5 22 C4.34 22 3.68 22 3 22 C3 22.66 3 23.32 3 24 C-1.34117503 26.37846115 -5.14964231 27.04986097 -10 26 C-16.51864242 22.74453597 -22.37390561 18.62589983 -28 14 C-27.828125 12.22265625 -27.828125 12.22265625 -27 10 C-24.671875 8.18359375 -24.671875 8.18359375 -21.75 6.4375 C-20.79609375 5.85871094 -19.8421875 5.27992187 -18.859375 4.68359375 C-17.91578125 4.12800781 -16.9721875 3.57242188 -16 3 C-15.16855469 2.44441406 -14.33710938 1.88882813 -13.48046875 1.31640625 C-9.14391006 -0.98504301 -4.77046931 -0.74145124 0 0 Z M-13 3 C-13 3.66 -13 4.32 -13 5 C-13.680625 5.226875 -14.36125 5.45375 -15.0625 5.6875 C-18.6988709 7.31226146 -22.02829263 9.32803257 -25 12 C-25 12.66 -25 13.32 -25 14 C-23.9275 14.5775 -22.855 15.155 -21.75 15.75 C-18.67624639 17.49406141 -16.46141641 19.45370716 -14 22 C-9.79845945 24.49410599 -5.78129509 24.86932638 -1 24 C2.02409364 21.72872666 2.02409364 21.72872666 4 19 C4.33 18.67 4.66 18.34 5 18 C5.55419529 13.09400888 5.74119722 9.21062213 3.125 4.9375 C-0.04639528 2.04593371 -1.79783854 1.86278441 -6 1.875 C-7.3303125 1.87113281 -7.3303125 1.87113281 -8.6875 1.8671875 C-11.02676966 1.84872098 -11.02676966 1.84872098 -13 3 Z " fill="#D6D6D6" transform="translate(149,87)"/>
<path d="M0 0 C0.66 0 1.32 0 2 0 C2.515625 0.721875 3.03125 1.44375 3.5625 2.1875 C6.81435159 5.93963645 10.60748742 7.794358 15 10 C15 10.66 15 11.32 15 12 C15.680625 12.2475 16.36125 12.495 17.0625 12.75 C20.56865083 14.24197908 23.71620368 16.06835511 27 18 C27 18.66 27 19.32 27 20 C28.11375 20.433125 28.11375 20.433125 29.25 20.875 C31.56739797 21.82302644 33.77917115 22.84845911 36 24 C36 24.66 36 25.32 36 26 C36.7425 26.2475 37.485 26.495 38.25 26.75 C41.20124062 28.09147301 42.84814974 29.60905526 45 32 C41.91232592 31.38066254 39.72521745 30.36478361 37.1015625 28.63671875 C36.37453125 28.16169922 35.6475 27.68667969 34.8984375 27.19726562 C34.14820313 26.69904297 33.39796875 26.20082031 32.625 25.6875 C31.8825 25.20087891 31.14 24.71425781 30.375 24.21289062 C27.14941771 22.09574607 23.93820595 19.95853294 20.734375 17.80859375 C17.72554105 15.81846501 14.64790889 13.97648575 11.5390625 12.1484375 C11.03117187 11.76945313 10.52328125 11.39046875 10 11 C10 10.34 10 9.68 10 9 C9.0925 8.773125 8.185 8.54625 7.25 8.3125 C3.52482554 6.80810262 2.16557398 5.33165227 0 2 C0 1.34 0 0.68 0 0 Z " fill="#D4D4D4" transform="translate(77,149)"/>
<path d="M0 0 C6.2255646 -0.55001787 9.2914177 0.86869075 14.1875 4.3125 C14.79013672 4.71662109 15.39277344 5.12074219 16.01367188 5.53710938 C17.69087665 6.66936067 19.3462711 7.83372834 21 9 C21.80050781 9.50917969 22.60101563 10.01835937 23.42578125 10.54296875 C23.94527344 11.02378906 24.46476562 11.50460938 25 12 C25 13.32 25 14.64 25 16 C23.0234375 17.5625 23.0234375 17.5625 20.375 19 C17.31881489 20.69884123 14.38456418 22.37274924 11.5625 24.4375 C10.716875 24.953125 9.87125 25.46875 9 26 C8.01 25.67 7.02 25.34 6 25 C7.7241302 23.70161824 9.45453232 22.41156253 11.1875 21.125 C12.15042969 20.40570313 13.11335938 19.68640625 14.10546875 18.9453125 C16.71128675 17.19403401 19.04792144 16.02540206 22 15 C22 14.01 22 13.02 22 12 C21.46117188 11.74347656 20.92234375 11.48695313 20.3671875 11.22265625 C16.47899957 9.21440077 12.79658692 6.85058607 9.0703125 4.55859375 C5.961093 2.9802495 3.44635384 2.37549825 0 2 C0 1.34 0 0.68 0 0 Z " fill="#D2D2D2" transform="translate(84,168)"/>
<path d="M0 0 C2.1875 -0.375 2.1875 -0.375 5 0 C8.64563415 3.23135754 10.2490106 5.67570937 11 10.5 C11.21223466 14.88374359 10.68700041 17.39174231 8 21 C-5.07602339 33 -5.07602339 33 -11 33 C-9.6153715 28.84611451 -6.69944175 27.66178812 -3.125 25.5 C3.60935772 21.92341753 3.60935772 21.92341753 7.6171875 15.9140625 C8.03731198 12.18386636 8.26271403 9.67138029 6.875 6.125 C4.80451461 3.77844989 2.73912322 2.48060715 0 1 C0 0.67 0 0.34 0 0 Z " fill="#D0D0D0" transform="translate(126,61)"/>
<path d="M0 0 C2.0625 0.4375 2.0625 0.4375 4 1 C3.40832031 1.38671875 2.81664063 1.7734375 2.20703125 2.171875 C-2.77238628 5.44420675 -2.77238628 5.44420675 -7.5 9.0625 C-16.4516129 16 -16.4516129 16 -21 16 C-19.87696871 12.63090612 -19.53255126 12.43519298 -16.625 10.75 C-15.91472656 10.3271875 -15.20445313 9.904375 -14.47265625 9.46875 C-13.24869141 8.74171875 -13.24869141 8.74171875 -12 8 C-10.01658866 6.75674614 -8.03749497 5.5065809 -6.0625 4.25 C-5.12535156 3.65703125 -4.18820313 3.0640625 -3.22265625 2.453125 C-1.115674 1.18397717 -1.115674 1.18397717 0 0 Z " fill="#D9D9D9" transform="translate(116,61)"/>
<path d="M0 0 C1.88422755 2.13382653 2.94582837 3.42085599 3.21484375 6.296875 C2.58230472 11.89172726 1.68034802 17.52516416 -2 22 C-4.13671875 22.71484375 -4.13671875 22.71484375 -6 23 C-6.33 21.68 -6.66 20.36 -7 19 C-5.68 19.33 -4.36 19.66 -3 20 C-0.55833216 13.16914355 0.41640288 7.2484945 0 0 Z " fill="#DADADA" transform="translate(156,138)"/>
<path d="M0 0 C4.455 1.98 4.455 1.98 9 4 C9 4.66 9 5.32 9 6 C9.556875 6.0825 10.11375 6.165 10.6875 6.25 C13.73677919 7.23895541 15.65189963 8.84757466 18 11 C18 11.66 18 12.32 18 13 C13.8596102 11.52019402 10.41296144 9.48492647 6.75 7.0625 C5.16445312 6.02802734 5.16445312 6.02802734 3.546875 4.97265625 C1 3 1 3 0 0 Z " fill="#D5D5D5" transform="translate(123,181)"/>
<path d="M0 0 C2.45341915 2.45341915 2.67577385 4.44101326 3.046875 7.82421875 C2.97014202 11.38590802 1.6324242 13.86574554 0 17 C-0.66 16.67 -1.32 16.34 -2 16 C-1.67 15.01 -1.34 14.02 -1 13 C-0.95574662 10.95881299 -0.96064988 8.91628742 -1 6.875 C-1.03756303 4.91702695 -1.04675284 2.95777517 -1 1 C-0.67 0.67 -0.34 0.34 0 0 Z " fill="#DDDDDD" transform="translate(154,92)"/>
<path d="M0 0 C4.69131592 0.50214965 7.5596434 1.68196468 11.375 4.4375 C12.68597656 5.36369141 12.68597656 5.36369141 14.0234375 6.30859375 C14.67570313 6.86675781 15.32796875 7.42492187 16 8 C16 8.66 16 9.32 16 10 C9.8034553 8.53239731 4.93130534 4.88851943 0 1 C0 0.67 0 0.34 0 0 Z " fill="#CECECE" transform="translate(117,108)"/>
<path d="M0 0 C-1.1995145 3.59854349 -2.27925223 4.18616815 -5.375 6.25 C-6.16648437 6.79140625 -6.95796875 7.3328125 -7.7734375 7.890625 C-10 9 -10 9 -13 8 C-11.2126038 6.66094733 -9.41995047 5.32890934 -7.625 4 C-6.62726563 3.2575 -5.62953125 2.515 -4.6015625 1.75 C-2 0 -2 0 0 0 Z " fill="#D8D8D8" transform="translate(103,185)"/>
<path d="M0 0 C0.33 0.66 0.66 1.32 1 2 C0.01 3.485 0.01 3.485 -1 5 C-1.14245897 7.76655324 -1.18769445 10.42653306 -1.125 13.1875 C-1.11597656 13.93708984 -1.10695313 14.68667969 -1.09765625 15.45898438 C-1.07412578 17.30612654 -1.03825561 19.15310412 -1 21 C-1.66 21 -2.32 21 -3 21 C-3.08687496 17.87517438 -3.14034568 14.75065754 -3.1875 11.625 C-3.21263672 10.73554688 -3.23777344 9.84609375 -3.26367188 8.9296875 C-3.27333984 8.07890625 -3.28300781 7.228125 -3.29296875 6.3515625 C-3.3086792 5.56604004 -3.32438965 4.78051758 -3.34057617 3.97119141 C-3.22818604 3.32069824 -3.1157959 2.67020508 -3 2 C-2.01 1.34 -1.02 0.68 0 0 Z " fill="#DDDDDD" transform="translate(78,128)"/>
<path d="M0 0 C9.93514711 -0.62638406 9.93514711 -0.62638406 14.1875 1.875 C16 4 16 4 16 6 C12 4 12 4 10.25 2.9375 C6.89646338 1.54019308 3.60966975 1.36096697 0 1 C0 0.67 0 0.34 0 0 Z " fill="#CECECE" transform="translate(138,87)"/>
<path d="M0 0 C0 0.99 0 1.98 0 3 C-1.828125 4.53515625 -1.828125 4.53515625 -4.25 6.0625 C-5.03890625 6.56910156 -5.8278125 7.07570313 -6.640625 7.59765625 C-8.72412772 8.83602955 -10.8154732 9.95283004 -13 11 C-9.15619099 5.98756041 -5.6626826 2.8313413 0 0 Z " fill="#CDCDCD" transform="translate(93,77)"/>
<path d="M0 0 C0.66 0 1.32 0 2 0 C1.1381848 3.23180698 0.51738545 5.48261455 -1.875 7.875 C-4 9 -4 9 -8 9 C-8 8.34 -8 7.68 -8 7 C-7.236875 6.773125 -6.47375 6.54625 -5.6875 6.3125 C-2.44095547 4.72697825 -1.71197206 3.09785421 0 0 Z " fill="#CECECE" transform="translate(156,185)"/>
<path d="M0 0 C0.99 0.33 1.98 0.66 3 1 C2.04270084 2.12588014 1.08412105 3.2506715 0.125 4.375 C-0.40867187 5.00148437 -0.94234375 5.62796875 -1.4921875 6.2734375 C-2.61432007 7.55836651 -3.79371975 8.79371975 -5 10 C-5 8.35 -5 6.7 -5 5 C-4.34 5 -3.68 5 -3 5 C-2.5359375 4.0409375 -2.5359375 4.0409375 -2.0625 3.0625 C-1 1 -1 1 0 0 Z " fill="#D0D0D0" transform="translate(80,169)"/>
<path d="M0 0 C1.65161581 0.75836443 3.29617138 1.53212076 4.9375 2.3125 C5.85402344 2.74175781 6.77054688 3.17101562 7.71484375 3.61328125 C10 5 10 5 11 8 C6.89160936 6.54997977 3.49655387 4.6020866 0 2 C0 1.34 0 0.68 0 0 Z " fill="#D0D0D0" transform="translate(141,163)"/>
<path d="M0 0 C4 4.75 4 4.75 4 7 C5.32 7.33 6.64 7.66 8 8 C8 8.66 8 9.32 8 10 C6.125 9.75 6.125 9.75 4 9 C2.75 6.9375 2.75 6.9375 2 5 C1.34 5 0.68 5 0 5 C0 3.35 0 1.7 0 0 Z " fill="#D1D1D1" transform="translate(75,184)"/>
<path d="M0 0 C0 0.66 0 1.32 0 2 C-6.75 6 -6.75 6 -9 6 C-8 3 -8 3 -5.625 1.3125 C-3 0 -3 0 0 0 Z " fill="#C7C7C7" transform="translate(124,88)"/>
<path d="M0 0 C0 0.99 0 1.98 0 3 C-1.4609375 4.38671875 -1.4609375 4.38671875 -3.375 5.6875 C-4.00148438 6.12449219 -4.62796875 6.56148438 -5.2734375 7.01171875 C-7 8 -7 8 -9 8 C-7.82255415 4.46766245 -7.04394359 4.13691925 -3.9375 2.3125 C-3.20402344 1.87550781 -2.47054687 1.43851562 -1.71484375 0.98828125 C-1.14894531 0.66214844 -0.58304688 0.33601563 0 0 Z " fill="#BABABA" transform="translate(104,69)"/>
<path d="M0 0 C2.84326464 -0.23053497 4.46145349 -0.35903101 6.875 1.25 C8 3 8 3 7.6875 5.1875 C7.460625 5.785625 7.23375 6.38375 7 7 C4.66666667 4.66666667 2.33333333 2.33333333 0 0 Z " fill="#DCDCDC" transform="translate(126,61)"/>
<path d="M0 0 C3.33727786 1.17255709 5.77437487 2.18868404 8 5 C8 5.66 8 6.32 8 7 C5.08482708 5.92598892 3.22189824 5.22189824 1 3 C0.67 2.01 0.34 1.02 0 0 Z " fill="#DCDCDC" transform="translate(133,187)"/>
</svg>
