<?xml version="1.0" encoding="UTF-8"?>
<svg version="1.1" xmlns="http://www.w3.org/2000/svg" width="412" height="306">
<path d="M0 0 C2.64 0 5.28 0 8 0 C8 1.98 8 3.96 8 6 C8.99 6 9.98 6 11 6 C11 4.02 11 2.04 11 0 C13.64 0 16.28 0 19 0 C19.0928125 1.6396875 19.0928125 1.6396875 19.1875 3.3125 C19.58143049 7.12772754 19.58143049 7.12772754 22.4375 8.625 C23.283125 9.07875 24.12875 9.5325 25 10 C27.40929397 14.01548994 27.63556884 18.43127325 27 23 C25.5 26 25.5 26 24 28 C25.4540625 29.175625 25.4540625 29.175625 26.9375 30.375 C29.65112564 32.5689952 30.86331092 33.80494688 31.2734375 37.390625 C31.5813768 46.06030075 31.5813768 46.06030075 28.6875 49.5625 C23.79487179 54 23.79487179 54 19 54 C19 56.31 19 58.62 19 61 C16.36 61 13.72 61 11 61 C11 59.02 11 57.04 11 55 C10.01 55 9.02 55 8 55 C8 56.98 8 58.96 8 61 C5.36 61 2.72 61 0 61 C0 59.02 0 57.04 0 55 C-1.98 55 -3.96 55 -6 55 C-6.33 48.4 -6.66 41.8 -7 35 C-8.77503906 38.56748047 -8.77503906 38.56748047 -10.5859375 42.20703125 C-18.26884079 57.63111935 -25.96283101 73.03593641 -34.07177734 88.24169922 C-36.12157389 92.12455947 -38.06244548 96.06030582 -40 100 C-46.27 100 -52.54 100 -59 100 C-58.01812481 97.91645657 -57.03589782 95.83307827 -56.05200195 93.75048828 C-55.22427738 91.99721861 -54.39859952 90.24298125 -53.57495117 88.48779297 C-51.09185691 83.21829568 -48.5110083 78.04751269 -45.58203125 73.0078125 C-44.32783202 68.68124604 -48.06400575 63.81881255 -50.0390625 60.04296875 C-50.61914062 58.93115234 -51.19921875 57.81933594 -51.796875 56.67382812 C-52.40015625 55.52333984 -53.0034375 54.37285156 -53.625 53.1875 C-54.54152344 51.43276367 -54.54152344 51.43276367 -55.4765625 49.64257812 C-56.98224966 46.7605988 -58.49013275 43.87979095 -60 41 C-60.01401855 42.89105469 -60.01401855 42.89105469 -60.02832031 44.8203125 C-60.06837372 49.52460278 -60.13417501 54.22824963 -60.20751953 58.93212891 C-60.23564035 60.96296892 -60.25689886 62.99391657 -60.27099609 65.02490234 C-60.29254898 67.95465855 -60.33926222 70.88313265 -60.390625 73.8125 C-60.39185364 74.71178223 -60.39308228 75.61106445 -60.39434814 76.53759766 C-60.55180023 83.40694754 -62.10291662 88.96216763 -66.9296875 94.0234375 C-67.57164062 94.46945313 -68.21359375 94.91546875 -68.875 95.375 C-69.51179687 95.83648437 -70.14859375 96.29796875 -70.8046875 96.7734375 C-78.12425915 100.86302023 -85.82901075 100.81286525 -94 100 C-100.20468253 98.18320407 -104.73193479 94.88055092 -108.94140625 90.0390625 C-110.45445006 87.12463862 -110.6562154 84.23698308 -111 81 C-108.08234109 80.89193856 -105.16868875 80.81267123 -102.25 80.75 C-101.425 80.71648437 -100.6 80.68296875 -99.75 80.6484375 C-93.5430739 80.54832579 -93.5430739 80.54832579 -90.609375 82.98828125 C-89.81273437 83.98408203 -89.81273437 83.98408203 -89 85 C-85.67926952 85.4842732 -83.73602877 85.33817538 -80.6875 83.9375 C-78.27251186 81.16473584 -78.27079061 78.58797552 -78 75 C-79.11375 75.7425 -79.11375 75.7425 -80.25 76.5 C-85.73986745 79.21891539 -92.54546165 78.96727074 -98.34375 77.34375 C-103.45960454 75.06129182 -106.70372961 71.44497068 -110 67 C-110.5878125 68.0828125 -110.5878125 68.0828125 -111.1875 69.1875 C-114.66128197 74.57785134 -117.79989548 77.35447463 -124 79 C-134.13277319 79.84166509 -141.4676804 79.52051115 -149.6875 73.4375 C-154.52338157 69.01550018 -156.67413726 63.51466244 -157.2734375 57.05078125 C-157.32945163 52.85532274 -157.15763547 49.04701831 -156 45 C-157.32 44.67 -158.64 44.34 -160 44 C-159.99476318 44.99443115 -159.98952637 45.9888623 -159.98413086 47.01342773 C-159.96607959 50.69033921 -159.95456754 54.36724675 -159.94506836 58.04418945 C-159.94002843 59.63794614 -159.9331965 61.23169819 -159.92456055 62.82543945 C-159.91248001 65.11150253 -159.90676845 67.39750467 -159.90234375 69.68359375 C-159.89718246 70.40026718 -159.89202118 71.11694061 -159.88670349 71.85533142 C-159.88650737 73.57063672 -159.93807993 75.28581266 -160 77 C-161.75559942 78.75559942 -164.03582442 78.13221919 -166.37109375 78.13671875 C-167.07363281 78.13285156 -167.77617187 78.12898438 -168.5 78.125 C-169.20253906 78.12886719 -169.90507812 78.13273437 -170.62890625 78.13671875 C-175.87338622 78.12661378 -175.87338622 78.12661378 -177 77 C-177.08843793 74.55169574 -177.11528752 72.13179401 -177.09765625 69.68359375 C-177.0962413 68.95253922 -177.09482635 68.22148468 -177.09336853 67.46827698 C-177.08775408 65.12464368 -177.07519922 62.78110461 -177.0625 60.4375 C-177.05748686 58.85221492 -177.05292363 57.26692834 -177.04882812 55.68164062 C-177.03777997 51.7877239 -177.02050572 47.89387795 -177 44 C-178.98 44 -180.96 44 -183 44 C-183 55.22 -183 66.44 -183 78 C-188.28 78 -193.56 78 -199 78 C-199.33 77.01 -199.66 76.02 -200 75 C-200.763125 75.474375 -201.52625 75.94875 -202.3125 76.4375 C-206.82756135 79.06253567 -210.86650087 79.51240102 -216 79 C-222.42918255 76.96973183 -227.83425183 73.63081311 -231.328125 67.7734375 C-234.8587312 59.94145895 -234.83055935 52.28960616 -233 44 C-234.60830523 44.14785545 -236.21212543 44.34499559 -237.8125 44.5625 C-239.15248047 44.71912109 -239.15248047 44.71912109 -240.51953125 44.87890625 C-243.25692834 45.84466994 -243.25692834 45.84466994 -244.78125 48.78125 C-246.77388617 54.27459687 -246.57261054 60.16348376 -246.6875 65.9375 C-246.72166016 67.09830078 -246.75582031 68.25910156 -246.79101562 69.45507812 C-246.87306285 72.30328882 -246.94235536 75.15120839 -247 78 C-249.47923801 78.02685095 -251.9581884 78.04676547 -254.4375 78.0625 C-255.14455078 78.07087891 -255.85160156 78.07925781 -256.58007812 78.08789062 C-258.38693559 78.09653588 -260.19387603 78.05220011 -262 78 C-263 77 -263 77 -263.11352539 73.85717773 C-263.11336633 72.46597303 -263.10767506 71.07476239 -263.09765625 69.68359375 C-263.0962413 68.95253922 -263.09482635 68.22148468 -263.09336853 67.46827698 C-263.08775408 65.12464368 -263.07519922 62.78110461 -263.0625 60.4375 C-263.05748686 58.85221492 -263.05292363 57.26692834 -263.04882812 55.68164062 C-263.03777997 51.7877239 -263.02050572 47.89387795 -263 44 C-264.98 44 -266.96 44 -269 44 C-268.99214478 45.49164673 -268.99214478 45.49164673 -268.98413086 47.01342773 C-268.96607959 50.69033921 -268.95456754 54.36724675 -268.94506836 58.04418945 C-268.94002843 59.63794614 -268.9331965 61.23169819 -268.92456055 62.82543945 C-268.91248001 65.11150253 -268.90676845 67.39750467 -268.90234375 69.68359375 C-268.89718246 70.40026718 -268.89202118 71.11694061 -268.88670349 71.85533142 C-268.88650737 73.57063672 -268.93807993 75.28581266 -269 77 C-270.75559942 78.75559942 -273.03582442 78.13221919 -275.37109375 78.13671875 C-276.07363281 78.13285156 -276.77617187 78.12898438 -277.5 78.125 C-278.20253906 78.12886719 -278.90507812 78.13273437 -279.62890625 78.13671875 C-284.87338622 78.12661378 -284.87338622 78.12661378 -286 77 C-286.08843793 74.55169574 -286.11528752 72.13179401 -286.09765625 69.68359375 C-286.0962413 68.95253922 -286.09482635 68.22148468 -286.09336853 67.46827698 C-286.08775408 65.12464368 -286.07519922 62.78110461 -286.0625 60.4375 C-286.05748686 58.85221492 -286.05292363 57.26692834 -286.04882812 55.68164062 C-286.03777997 51.7877239 -286.02050572 47.89387795 -286 44 C-287.65 44 -289.3 44 -291 44 C-291 39.05 -291 34.1 -291 29 C-289.35 29 -287.7 29 -286 29 C-286 24.71 -286 20.42 -286 16 C-280.39 16 -274.78 16 -269 16 C-269 20.29 -269 24.58 -269 29 C-261.74 29 -254.48 29 -247 29 C-246.505 30.98 -246.505 30.98 -246 33 C-245.071875 32.360625 -244.14375 31.72125 -243.1875 31.0625 C-238.54888681 28.06104441 -235.44021065 27.89735452 -230 28 C-229.505 32.455 -229.505 32.455 -229 37 C-228.195625 36.236875 -227.39125 35.47375 -226.5625 34.6875 C-221.46457535 30.48709729 -215.85375824 28.59757838 -209.25 29.125 C-205.63230352 29.68887914 -202.97428668 30.79327117 -200 33 C-199.67 31.68 -199.34 30.36 -199 29 C-191.74 29 -184.48 29 -177 29 C-177 24.71 -177 20.42 -177 16 C-171.39 16 -165.78 16 -160 16 C-160 20.29 -160 24.58 -160 29 C-157.36 29 -154.72 29 -152 29 C-151.67 31.31 -151.34 33.62 -151 36 C-150.52691406 35.66226563 -150.05382812 35.32453125 -149.56640625 34.9765625 C-142.04870028 29.90614093 -135.30218511 28.31350216 -126.2890625 29.52734375 C-120.50903682 30.72083028 -116.79079689 33.57740363 -113 38 C-111.6875 40.8125 -111.6875 40.8125 -111 43 C-108.79947603 42.12775858 -108.79947603 42.12775858 -107.6875 39.75 C-104.56612567 34.6633159 -100.80408774 30.96738751 -94.95703125 29.48046875 C-89.02027537 28.66943653 -84.46408963 29.53628101 -79 32 C-78.67 32.33 -78.34 32.66 -78 33 C-77.67 32.01 -77.34 31.02 -77 30 C-72.40844308 27.70422154 -66.22781017 28.54527391 -61.1875 28.4375 C-59.90294922 28.37498047 -58.61839844 28.31246094 -57.29492188 28.24804688 C-48.08645647 28.08985877 -48.08645647 28.08985877 -45.11499023 30.57910156 C-43.77808635 32.67155909 -42.87192404 34.67822774 -42 37 C-41.40574219 38.17304688 -40.81148437 39.34609375 -40.19921875 40.5546875 C-39.45091797 42.19824219 -39.45091797 42.19824219 -38.6875 43.875 C-38.17574219 44.98617187 -37.66398438 46.09734375 -37.13671875 47.2421875 C-36 50 -36 50 -36 52 C-35.34 52 -34.68 52 -34 52 C-33.87761963 51.4337793 -33.75523926 50.86755859 -33.62915039 50.28417969 C-32.95678596 47.84310804 -32.02839598 45.73524797 -30.93359375 43.453125 C-30.53076172 42.60878906 -30.12792969 41.76445312 -29.71289062 40.89453125 C-29.29201172 40.02183594 -28.87113281 39.14914063 -28.4375 38.25 C-27.80038086 36.91775391 -27.80038086 36.91775391 -27.15039062 35.55859375 C-26.10355166 33.37081794 -25.05221077 31.18519731 -24 29 C-18.06 29 -12.12 29 -6 29 C-6 21.41 -6 13.82 -6 6 C-4.02 6 -2.04 6 0 6 C0 4.02 0 2.04 0 0 Z M8 16 C8 18.97 8 21.94 8 25 C11.81813447 24.72459296 11.81813447 24.72459296 15 23 C15.04080783 21.00041636 15.04254356 18.99954746 15 17 C12.69 16.67 10.38 16.34 8 16 Z M8 35 C8 37.97 8 40.94 8 44 C12.05085679 43.75368443 12.05085679 43.75368443 16 43 C17.5899433 41.07935207 17.5899433 41.07935207 18 39 C16.37719693 36.87501931 16.37719693 36.87501931 14 35 C10.832168 34.66551741 10.832168 34.66551741 8 35 Z M-138 43 C-138.33 44.32 -138.66 45.64 -139 47 C-134.05 47 -129.1 47 -124 47 C-126.06083371 42.69789432 -126.06083371 42.69789432 -130 41 C-134.39150489 40.98622407 -134.39150489 40.98622407 -138 43 Z M-92 47 C-94.4596 50.6894 -94.7996897 53.71832808 -94 58 C-92.10350449 61.14658666 -92.10350449 61.14658666 -89 63 C-84.5882483 63.7878128 -82.77807226 63.52975133 -79.0625 61 C-76.75454874 57.64297999 -76.30391662 55.90988129 -76.58203125 51.93359375 C-77.27398016 48.73252168 -78.55245319 47.12550118 -81 45 C-85.70847006 43.39711657 -88.10798293 43.97287561 -92 47 Z M-215 47.625 C-217.17624741 51.29741751 -217.7092595 52.83310042 -217 57 C-215.73711341 59.77835049 -214.6477829 61.49102772 -212.25 63.375 C-208.90127203 64.30520221 -206.35093496 63.79203917 -203 63 C-200.94458103 61.41853646 -200.1221631 60.41288036 -199.3828125 57.9140625 C-198.94458188 54.02310578 -198.71288901 51.6562537 -200.3125 48 C-202.81793826 45.03059169 -203.83081445 45.01941474 -207.8125 44.5625 C-211.5555686 44.61022583 -211.95107056 44.95718674 -215 47.625 Z M-140 58 C-139.67035569 63.78971131 -139.67035569 63.78971131 -136.875 65.9375 C-133.2243172 67.28666538 -130.75800798 66.81055074 -127 66 C-126.67 65.01 -126.34 64.02 -126 63 C-121.05 63 -116.1 63 -111 63 C-111 61.35 -111 59.7 -111 58 C-120.57 58 -130.14 58 -140 58 Z " fill="#888888" transform="translate(359,103)"/>
<path d="M0 0 C7.59259875 -0.42872598 15.36781704 1.80304915 22.14453125 5.19140625 C21.54097717 9.04166504 20.37680522 12.05241784 18.58203125 15.50390625 C18.12699219 16.38691406 17.67195313 17.26992187 17.203125 18.1796875 C16.67912109 19.17548828 16.67912109 19.17548828 16.14453125 20.19140625 C13.97338328 19.69244678 12.26492985 19.26198474 10.33203125 18.12890625 C7.15938727 16.76920169 4.54902374 16.87617546 1.14453125 17.19140625 C-1.0428293 19.87324975 -1.0428293 19.87324975 -0.859375 22.23046875 C0.71086992 25.29763977 3.00303393 25.52906154 6.20703125 26.56640625 C13.15328382 29.05211244 18.64547249 31.80558471 23.08203125 37.81640625 C26.29287042 44.99357616 25.98457408 52.75475741 23.2421875 60.05078125 C20.52217974 65.35528037 16.50214185 68.96520611 10.95703125 71.12890625 C0.29644584 74.04787606 -10.43371263 72.37993525 -19.98046875 67.00390625 C-20.92921875 66.40578125 -21.87796875 65.80765625 -22.85546875 65.19140625 C-22.2571215 61.04841958 -20.8488259 58.00946248 -18.79296875 54.37890625 C-18.24511719 53.40308594 -17.69726562 52.42726562 -17.1328125 51.421875 C-16.50052734 50.31779297 -16.50052734 50.31779297 -15.85546875 49.19140625 C-13.85888081 50.16761407 -11.90709099 51.16071488 -9.99609375 52.296875 C-4.79928525 55.27108152 -1.69489894 55.52320612 4.14453125 54.19140625 C5.56030602 53.00716299 5.56030602 53.00716299 5.20703125 49.62890625 C5.17609375 47.92734375 5.17609375 47.92734375 5.14453125 46.19140625 C4.34402344 45.95357422 4.34402344 45.95357422 3.52734375 45.7109375 C-5.06803585 43.01930479 -14.01243236 40.21268528 -18.85546875 32.19140625 C-21.78750431 24.60340682 -20.81748444 17.65170695 -17.85546875 10.19140625 C-15.54296875 7.19140625 -15.54296875 7.19140625 -12.85546875 5.19140625 C-11.86546875 4.44890625 -10.87546875 3.70640625 -9.85546875 2.94140625 C-6.3607924 0.90284505 -3.95334901 0.40781916 0 0 Z " fill="#888888" transform="translate(44.85546875,108.80859375)"/>
<path d="M0 0 C2.64 0 5.28 0 8 0 C8 1.98 8 3.96 8 6 C8.99 6 9.98 6 11 6 C11 4.02 11 2.04 11 0 C13.64 0 16.28 0 19 0 C19.061875 1.093125 19.12375 2.18625 19.1875 3.3125 C19.58143049 7.12772754 19.58143049 7.12772754 22.4375 8.625 C23.7059375 9.305625 23.7059375 9.305625 25 10 C27.40929397 14.01548994 27.63556884 18.43127325 27 23 C25.5 26 25.5 26 24 28 C24.969375 28.78375 25.93875 29.5675 26.9375 30.375 C29.65112564 32.5689952 30.86331092 33.80494688 31.2734375 37.390625 C31.5813768 46.06030075 31.5813768 46.06030075 28.6875 49.5625 C23.79487179 54 23.79487179 54 19 54 C19 56.31 19 58.62 19 61 C16.36 61 13.72 61 11 61 C11 59.02 11 57.04 11 55 C10.01 55 9.02 55 8 55 C8 56.98 8 58.96 8 61 C5.36 61 2.72 61 0 61 C0 59.02 0 57.04 0 55 C-1.98 55 -3.96 55 -6 55 C-6 38.83 -6 22.66 -6 6 C-4.02 6 -2.04 6 0 6 C0 4.02 0 2.04 0 0 Z M8 16 C8 18.97 8 21.94 8 25 C11.81813447 24.72459296 11.81813447 24.72459296 15 23 C15.04080783 21.00041636 15.04254356 18.99954746 15 17 C12.69 16.67 10.38 16.34 8 16 Z M8 35 C8 37.97 8 40.94 8 44 C12.05085679 43.75368443 12.05085679 43.75368443 16 43 C17.5899433 41.07935207 17.5899433 41.07935207 18 39 C16.37719693 36.87501931 16.37719693 36.87501931 14 35 C10.832168 34.66551741 10.832168 34.66551741 8 35 Z " fill="#FAFAFA" transform="translate(359,103)"/>
</svg>
