<?xml version="1.0" encoding="UTF-8"?>
<svg version="1.1" xmlns="http://www.w3.org/2000/svg" width="442" height="328">
<path d="M0 0 C0.74056641 0.00451172 1.48113281 0.00902344 2.24414062 0.01367188 C4.05862899 0.02537825 5.87307534 0.04331102 7.6875 0.0625 C10.89474812 6.46769988 11.93433224 12.97675773 13.125 20 C14.68598958 28.82914521 16.42736859 37.47830187 18.7109375 46.1484375 C19.94370072 50.93637937 20.90849484 55.77748961 21.875 60.625 C22.04201416 61.45894287 22.20902832 62.29288574 22.38110352 63.15209961 C23.28897129 67.77274008 24.17674327 72.3795377 24.6875 77.0625 C23.6875 78.0625 23.6875 78.0625 21.82983398 78.17602539 C20.64369507 78.16817017 20.64369507 78.16817017 19.43359375 78.16015625 C18.57958984 78.15693359 17.72558594 78.15371094 16.84570312 78.15039062 C15.94787109 78.14201172 15.05003906 78.13363281 14.125 78.125 C13.22330078 78.12048828 12.32160156 78.11597656 11.39257812 78.11132812 C9.15752411 78.09950244 6.92250398 78.08156638 4.6875 78.0625 C3.6975 73.1125 3.6975 73.1125 2.6875 68.0625 C-5.2325 68.0625 -13.1525 68.0625 -21.3125 68.0625 C-23.2925 73.0125 -23.2925 73.0125 -25.3125 78.0625 C-32.5725 78.0625 -39.8325 78.0625 -47.3125 78.0625 C-46.62622136 74.63110681 -46.11586588 72.27245206 -44.79223633 69.20019531 C-44.48259445 68.47394958 -44.17295258 67.74770386 -43.85392761 66.99945068 C-43.51670181 66.22103821 -43.17947601 65.44262573 -42.83203125 64.640625 C-42.10200493 62.93179923 -41.37236569 61.22280806 -40.64306641 59.51367188 C-40.26071838 58.62123779 -39.87837036 57.72880371 -39.48443604 56.80932617 C-37.53155238 52.23208665 -35.61662531 47.63906144 -33.69921875 43.046875 C-32.91871862 41.18094824 -32.13811927 39.31506298 -31.35742188 37.44921875 C-30.16811768 34.60567131 -28.97891621 31.76208096 -27.78979492 28.91845703 C-26.6140253 26.10698929 -25.43788879 23.29567525 -24.26171875 20.484375 C-23.90857101 19.63953552 -23.55542328 18.79469604 -23.1915741 17.92425537 C-22.53511942 16.35532918 -21.87707202 14.78706807 -21.21713257 13.21960449 C-20.62683892 11.81204397 -20.04304666 10.40173409 -19.46670532 8.98840332 C-17.93242192 5.2741054 -16.95016321 2.9883217 -13.3125 1.0625 C-8.90067804 -0.11996614 -4.53174726 -0.05264764 0 0 Z M-7.3125 27.0625 C-8.46178044 30.14455942 -9.60631663 33.22835971 -10.75 36.3125 C-11.07548828 37.18519531 -11.40097656 38.05789062 -11.73632812 38.95703125 C-12.04892578 39.80136719 -12.36152344 40.64570313 -12.68359375 41.515625 C-12.97161865 42.29067383 -13.25964355 43.06572266 -13.55639648 43.86425781 C-14.25485233 45.89489922 -14.79167796 47.97921186 -15.3125 50.0625 C-10.6925 50.0625 -6.0725 50.0625 -1.3125 50.0625 C-1.98704103 42.2378241 -3.58126958 34.71693386 -5.3125 27.0625 C-5.9725 27.0625 -6.6325 27.0625 -7.3125 27.0625 Z " fill="#FFFFFF" transform="translate(318.3125,124.9375)"/>
<path d="M0 0 C4.71391399 -0.074557 9.42747929 -0.12879273 14.1418457 -0.16479492 C15.74314356 -0.17981466 17.34440075 -0.20023663 18.94555664 -0.22631836 C21.25677571 -0.26300438 23.56744756 -0.27979435 25.87890625 -0.29296875 C26.58648575 -0.30845261 27.29406525 -0.32393646 28.02308655 -0.33988953 C33.00926296 -0.34155061 36.71793418 0.41563767 41 3 C43.67259809 7.65310182 44.69281731 12.51679592 45.5703125 17.76171875 C45.69687225 18.47479691 45.82343201 19.18787506 45.9538269 19.92256165 C46.35222303 22.17622416 46.73900636 24.43168358 47.125 26.6875 C47.52062182 28.95353117 47.91862479 31.21912977 48.31759644 33.48457336 C48.56383916 34.88761176 48.80770919 36.29106929 49.04885864 37.69499207 C49.59139293 40.83022045 50.16520799 43.92821868 51 47 C54.89675932 38.71381205 58.31920879 30.28693335 61.625 21.75 C69.49226804 1.50773196 69.49226804 1.50773196 71 0 C72.56172745 -0.08685603 74.12729344 -0.10702219 75.69140625 -0.09765625 C76.63564453 -0.09443359 77.57988281 -0.09121094 78.55273438 -0.08789062 C79.54595703 -0.07951172 80.53917969 -0.07113281 81.5625 -0.0625 C82.55958984 -0.05798828 83.55667969 -0.05347656 84.58398438 -0.04882812 C87.05604849 -0.03700007 89.52799518 -0.02051849 92 0 C91.40446087 4.60617062 90.15800659 8.43224877 88.33984375 12.69921875 C88.07440262 13.3272641 87.80896149 13.95530945 87.53547668 14.60238647 C86.6754829 16.63336476 85.80653578 18.66037648 84.9375 20.6875 C84.33887631 22.09730247 83.7408984 23.50737932 83.14355469 24.91772461 C81.96541149 27.69690798 80.78402186 30.47466755 79.59912109 33.25097656 C77.63657684 37.84941506 75.69042534 42.45468881 73.75 47.0625 C73.44827881 47.77728516 73.14655762 48.49207031 72.83569336 49.22851562 C68.81071195 58.78609906 64.91465688 68.39685734 61 78 C53.41 78 45.82 78 38 78 C36.50580372 72.31174934 35.01220477 66.623348 33.52001953 60.93457031 C33.01416685 59.00674874 32.50799193 57.07901168 32.00146484 55.15136719 C23.45671934 22.63057341 23.45671934 22.63057341 22.55395508 17.4309082 C22.1070992 14.9866494 22.1070992 14.9866494 20 12 C15.82436083 9.79554245 11.49894132 8.39731825 7 7 C5.39127895 6.40806703 3.78607734 5.80630413 2.1875 5.1875 C1.135625 4.795625 0.08375 4.40375 -1 4 C-0.67 2.68 -0.34 1.36 0 0 Z " fill="#848688" transform="translate(100,125)"/>
<path d="M0 0 C1.04091797 0.00128906 2.08183594 0.00257812 3.15429688 0.00390625 C8.74199866 0.0677657 13.53668645 0.50943651 18.8125 2.375 C18.32929152 8.5804142 17.47931876 14.37445246 15.8125 20.375 C15.19503906 20.24222656 14.57757813 20.10945313 13.94140625 19.97265625 C1.7999883 17.27274013 1.7999883 17.27274013 -10.1875 19.375 C-10.5175 21.025 -10.8475 22.675 -11.1875 24.375 C-9.91780993 25.23086516 -8.64664409 26.08454083 -7.375 26.9375 C-6.55773437 27.48792969 -5.74046875 28.03835937 -4.8984375 28.60546875 C-3.07577079 29.79519212 -1.22544886 30.94348476 0.6484375 32.05078125 C12.34673827 39.0216865 12.34673827 39.0216865 14.8125 45.375 C16.07372621 53.74917106 15.63889165 60.7951926 10.90625 67.93359375 C10.5453125 68.40925781 10.184375 68.88492188 9.8125 69.375 C9.1525 69.375 8.4925 69.375 7.8125 69.375 C7.3175 70.86 7.3175 70.86 6.8125 72.375 C4.6328125 73.7265625 4.6328125 73.7265625 1.9375 75 C1.05320312 75.42539063 0.16890625 75.85078125 -0.7421875 76.2890625 C-7.02017048 79.07704855 -13.10147079 78.59759068 -19.875 78.625 C-21.12990234 78.645625 -22.38480469 78.66625 -23.67773438 78.6875 C-30.58031428 78.7165788 -35.92920982 78.36638399 -42.1875 75.375 C-40.26039294 62.70529613 -40.26039294 62.70529613 -38.1875 57.375 C-37.52363281 57.57996094 -36.85976562 57.78492188 -36.17578125 57.99609375 C-35.29277344 58.26550781 -34.40976563 58.53492188 -33.5 58.8125 C-32.62988281 59.07933594 -31.75976562 59.34617188 -30.86328125 59.62109375 C-23.67648115 61.64598779 -16.09446722 62.82848361 -9.1875 59.375 C-7.74826801 56.86504504 -7.74826801 56.86504504 -7.1875 54.375 C-10.27344563 50.75699478 -13.26476695 48.68820374 -17.5 46.5 C-24.54616249 42.79149343 -31.69368169 38.32404587 -34.1875 30.375 C-35.36470979 22.68300423 -33.53783006 16.75695628 -29.1875 10.375 C-21.63285069 1.43980564 -11.12558793 -0.26472908 0 0 Z " fill="#FFFFFF" transform="translate(258.1875,124.625)"/>
<path d="M0 0 C0.83265381 0.00523682 1.66530762 0.01047363 2.52319336 0.01586914 C3.42231445 0.0190918 4.32143555 0.02231445 5.24780273 0.02563477 C6.66609375 0.03820312 6.66609375 0.03820312 8.11303711 0.05102539 C9.06243164 0.05553711 10.01182617 0.06004883 10.98999023 0.06469727 C13.34356776 0.07652429 15.69702188 0.09300514 18.05053711 0.11352539 C17.38812782 9.0124713 15.64287261 17.59098457 13.80053711 26.30102539 C13.48349477 27.81666684 13.16676598 29.33237391 12.8503418 30.84814453 C12.06827277 34.58588633 11.27917303 38.32209571 10.48657227 42.05761719 C10.08348947 43.95815483 9.68216913 45.85906603 9.28100586 47.76000977 C8.62588307 50.85811837 7.96516448 53.95494331 7.30053711 57.05102539 C7.11458984 57.92331787 6.92864258 58.79561035 6.73706055 59.69433594 C5.38728015 65.89813432 3.75714454 71.99818208 2.05053711 78.11352539 C-4.87946289 78.11352539 -11.80946289 78.11352539 -18.94946289 78.11352539 C-18.26878576 72.66810836 -17.48311482 67.44945408 -16.32446289 62.11352539 C-16.15624023 61.3266333 -15.98801758 60.53974121 -15.81469727 59.72900391 C-15.19804832 56.85605367 -14.57434156 53.98469705 -13.94946289 51.11352539 C-13.68294922 49.88746582 -13.41643555 48.66140625 -13.1418457 47.39819336 C-11.49933218 39.84776982 -9.84712724 32.29950977 -8.18725586 24.75288391 C-7.33291579 20.86674575 -6.48569014 16.97915148 -5.64477539 13.09008789 C-5.28805337 11.45205643 -4.93128742 9.81403453 -4.57446289 8.17602539 C-4.41913086 7.44955811 -4.26379883 6.72309082 -4.10375977 5.97460938 C-2.82997884 0.16480152 -2.82997884 0.16480152 0 0 Z " fill="#848587" transform="translate(201.949462890625,124.886474609375)"/>
<path d="M0 0 C0.33 0 0.66 0 1 0 C1.33 1.98 1.66 3.96 2 6 C7.61 6.33 13.22 6.66 19 7 C19.33 5.68 19.66 4.36 20 3 C20.33 3.99 20.66 4.98 21 6 C20.67 6.66 20.34 7.32 20 8 C13.07 8 6.14 8 -1 8 C-0.67 5.36 -0.34 2.72 0 0 Z " fill="#A4A5A6" transform="translate(184,195)"/>
</svg>
